<svg xmlns="http://www.w3.org/2000/svg" xmlns:xlink="http://www.w3.org/1999/xlink" id="processonSvg1000" viewBox="67.236083984375 36.56596374511719 1104.1771240234375 739.9496612548828" width="1104.1771240234375" height="739.9496612548828"><defs id="ProcessOnDefs1001"/><g id="ProcessOnG1002"><path id="ProcessOnPath1003" d="M67.236083984375 36.56596374511719H1171.4132080078125V776.515625H67.236083984375V36.56596374511719Z" fill="none"/><g id="ProcessOnG1004"><g id="ProcessOnG1005" transform="matrix(1.0,0.0,0.0,1.0,454.826416015625,56.56596374511719)" opacity="1.0"><path id="ProcessOnPath1006" d="M0.0 18.105517917209202L204.26236979166666 18.105517917209202L204.26236979166666 162.9496612548828L0.0 162.9496612548828L0.0 18.105517917209202Z" stroke="#323232" stroke-width="2.0" stroke-dasharray="none" opacity="1.0" fill="#ffffff"/><path id="ProcessOnPath1007" d="M0.0 18.105517917209202L25.532796223958332 0.0L229.795166015625 0.0L229.795166015625 144.84414333767361L204.26236979166666 162.9496612548828L204.26236979166666 18.105517917209202L0.0 18.105517917209202ZM204.26236979166666 18.105517917209202L229.795166015625 0.0" stroke="#323232" stroke-width="2.0" stroke-dasharray="none" opacity="1.0" fill="#e6e6e6"/><path id="ProcessOnPath1008" d="M0.0 0.0L229.795166015625 0.0L229.795166015625 162.9496612548828L0.0 162.9496612548828Z" stroke="#323232" stroke-width="0.0" stroke-dasharray="none" opacity="1.0" fill="none"/></g><g id="ProcessOnG1009" transform="matrix(1.0,0.0,0.0,1.0,97.236083984375,263.5659637451172)" opacity="1.0"><path id="ProcessOnPath1010" d="M0.0 14.549962361653645L222.04014756944443 14.549962361653645L222.04014756944443 130.9496612548828L0.0 130.9496612548828L0.0 14.549962361653645Z" stroke="#323232" stroke-width="2.0" stroke-dasharray="none" opacity="1.0" fill="#ffffff"/><path id="ProcessOnPath1011" d="M0.0 14.549962361653645L27.755018446180554 0.0L249.795166015625 0.0L249.795166015625 116.39969889322916L222.04014756944443 130.9496612548828L222.04014756944443 14.549962361653645L0.0 14.549962361653645ZM222.04014756944443 14.549962361653645L249.795166015625 0.0" stroke="#323232" stroke-width="2.0" stroke-dasharray="none" opacity="1.0" fill="#e6e6e6"/><path id="ProcessOnPath1012" d="M0.0 0.0L249.795166015625 0.0L249.795166015625 130.9496612548828L0.0 130.9496612548828Z" stroke="#323232" stroke-width="0.0" stroke-dasharray="none" opacity="1.0" fill="none"/></g><g id="ProcessOnG1013" transform="matrix(1.0,0.0,0.0,1.0,87.236083984375,462.515625)" opacity="1.0"><path id="ProcessOnPath1014" d="M0.0 15.99440680609809L228.26236979166666 15.99440680609809L228.26236979166666 143.9496612548828L0.0 143.9496612548828L0.0 15.99440680609809Z" stroke="#323232" stroke-width="2.0" stroke-dasharray="none" opacity="1.0" fill="#ffffff"/><path id="ProcessOnPath1015" d="M0.0 15.99440680609809L28.532796223958332 0.0L256.795166015625 0.0L256.795166015625 127.95525444878471L228.26236979166666 143.9496612548828L228.26236979166666 15.99440680609809L0.0 15.99440680609809ZM228.26236979166666 15.99440680609809L256.795166015625 0.0" stroke="#323232" stroke-width="2.0" stroke-dasharray="none" opacity="1.0" fill="#e6e6e6"/><path id="ProcessOnPath1016" d="M0.0 0.0L256.795166015625 0.0L256.795166015625 143.9496612548828L0.0 143.9496612548828Z" stroke="#323232" stroke-width="0.0" stroke-dasharray="none" opacity="1.0" fill="none"/></g><g id="ProcessOnG1017" transform="matrix(1.0,0.0,0.0,1.0,438.826416015625,271.0659637451172)" opacity="1.0"><path id="ProcessOnPath1018" d="M0.0 15.1055179172092L232.7068142361111 15.1055179172092L232.7068142361111 135.9496612548828L0.0 135.9496612548828L0.0 15.1055179172092Z" stroke="#323232" stroke-width="2.0" stroke-dasharray="none" opacity="1.0" fill="#ffffff"/><path id="ProcessOnPath1019" d="M0.0 15.1055179172092L29.088351779513886 0.0L261.795166015625 0.0L261.795166015625 120.8441433376736L232.7068142361111 135.9496612548828L232.7068142361111 15.1055179172092L0.0 15.1055179172092ZM232.7068142361111 15.1055179172092L261.795166015625 0.0" stroke="#323232" stroke-width="2.0" stroke-dasharray="none" opacity="1.0" fill="#e6e6e6"/><path id="ProcessOnPath1020" d="M0.0 0.0L261.795166015625 0.0L261.795166015625 135.9496612548828L0.0 135.9496612548828Z" stroke="#323232" stroke-width="0.0" stroke-dasharray="none" opacity="1.0" fill="none"/></g><g id="ProcessOnG1021" transform="matrix(1.0,0.0,0.0,1.0,810.236083984375,253.5659637451172)" opacity="1.0"><path id="ProcessOnPath1022" d="M0.0 13.772184583875868L236.26236979166666 13.772184583875868L236.26236979166666 123.94966125488281L0.0 123.94966125488281L0.0 13.772184583875868Z" stroke="#323232" stroke-width="2.0" stroke-dasharray="none" opacity="1.0" fill="#ffffff"/><path id="ProcessOnPath1023" d="M0.0 13.772184583875868L29.532796223958332 0.0L265.795166015625 0.0L265.795166015625 110.17747667100694L236.26236979166666 123.94966125488281L236.26236979166666 13.772184583875868L0.0 13.772184583875868ZM236.26236979166666 13.772184583875868L265.795166015625 0.0" stroke="#323232" stroke-width="2.0" stroke-dasharray="none" opacity="1.0" fill="#e6e6e6"/><path id="ProcessOnPath1024" d="M0.0 0.0L265.795166015625 0.0L265.795166015625 123.94966125488281L0.0 123.94966125488281Z" stroke="#323232" stroke-width="0.0" stroke-dasharray="none" opacity="1.0" fill="none"/></g><g id="ProcessOnG1025" transform="matrix(1.0,0.0,0.0,1.0,514.8541259765625,500.5659637451172)" opacity="1.0"><path id="ProcessOnPath1026" d="M0.0 24.216629028320312L281.04633246527777 24.216629028320312L281.04633246527777 217.9496612548828L0.0 217.9496612548828L0.0 24.216629028320312Z" stroke="#323232" stroke-width="2.0" stroke-dasharray="none" opacity="1.0" fill="#ffffff"/><path id="ProcessOnPath1027" d="M0.0 24.216629028320312L35.13079155815972 0.0L316.1771240234375 0.0L316.1771240234375 193.7330322265625L281.04633246527777 217.9496612548828L281.04633246527777 24.216629028320312L0.0 24.216629028320312ZM281.04633246527777 24.216629028320312L316.1771240234375 0.0" stroke="#323232" stroke-width="2.0" stroke-dasharray="none" opacity="1.0" fill="#e6e6e6"/><path id="ProcessOnPath1028" d="M0.0 0.0L316.1771240234375 0.0L316.1771240234375 217.9496612548828L0.0 217.9496612548828Z" stroke="#323232" stroke-width="0.0" stroke-dasharray="none" opacity="1.0" fill="none"/></g><g id="ProcessOnG1029" transform="matrix(1.0,0.0,0.0,1.0,954.236083984375,462.515625)" opacity="1.0"><path id="ProcessOnPath1030" d="M0.0 12.661073472764755L149.85807291666666 12.661073472764755L149.85807291666666 113.94966125488281L0.0 113.94966125488281L0.0 12.661073472764755Z" stroke="#323232" stroke-width="2.0" stroke-dasharray="none" opacity="1.0" fill="#ffffff"/><path id="ProcessOnPath1031" d="M0.0 12.661073472764755L18.732259114583332 0.0L168.59033203125 0.0L168.59033203125 101.28858778211804L149.85807291666666 113.94966125488281L149.85807291666666 12.661073472764755L0.0 12.661073472764755ZM149.85807291666666 12.661073472764755L168.59033203125 0.0" stroke="#323232" stroke-width="2.0" stroke-dasharray="none" opacity="1.0" fill="#e6e6e6"/><path id="ProcessOnPath1032" d="M0.0 0.0L168.59033203125 0.0L168.59033203125 113.94966125488281L0.0 113.94966125488281Z" stroke="#323232" stroke-width="0.0" stroke-dasharray="none" opacity="1.0" fill="none"/></g><g id="ProcessOnG1033" transform="matrix(1.0,0.0,0.0,1.0,925.6492919921875,626.1319274902344)" opacity="1.0"><path id="ProcessOnPath1034" d="M0.0 14.487077501085068L200.67903645833331 14.487077501085068L200.67903645833331 130.38369750976562L0.0 130.38369750976562L0.0 14.487077501085068Z" stroke="#323232" stroke-width="2.0" stroke-dasharray="none" opacity="1.0" fill="#ffffff"/><path id="ProcessOnPath1035" d="M0.0 14.487077501085068L25.084879557291664 0.0L225.763916015625 0.0L225.763916015625 115.89662000868054L200.67903645833331 130.38369750976562L200.67903645833331 14.487077501085068L0.0 14.487077501085068ZM200.67903645833331 14.487077501085068L225.763916015625 0.0" stroke="#323232" stroke-width="2.0" stroke-dasharray="none" opacity="1.0" fill="#e6e6e6"/><path id="ProcessOnPath1036" d="M0.0 0.0L225.763916015625 0.0L225.763916015625 130.38369750976562L0.0 130.38369750976562Z" stroke="#323232" stroke-width="0.0" stroke-dasharray="none" opacity="1.0" fill="none"/></g><g id="ProcessOnG1037" transform="matrix(1.0,0.0,0.0,1.0,470.62158203125,110.515625)" opacity="1.0"><path id="ProcessOnPath1038" d="M0.0 0.0L170.0 0.0L170.0 71.05033874511719L0.0 71.05033874511719Z" stroke="#323232" stroke-width="2.0" stroke-dasharray="none" opacity="1.0" fill="#ffffff"/><g id="ProcessOnG1039" transform="matrix(1.0,0.0,0.0,1.0,10.0,27.400169372558594)"><text id="ProcessOnText1040" fill="#000000" font-weight="normal" font-style="normal" text-decoration="blink" font-family="微软雅黑" text-anchor="middle" font-size="13" x="75.0" y="13.325">Gateway.jar</text></g></g><g id="ProcessOnG1041" transform="matrix(1.0,0.0,0.0,1.0,122.236083984375,303.515625)" opacity="1.0"><path id="ProcessOnPath1042" d="M0.0 0.0L170.0 0.0L170.0 71.05033874511719L0.0 71.05033874511719Z" stroke="#323232" stroke-width="2.0" stroke-dasharray="none" opacity="1.0" fill="#ffffff"/><g id="ProcessOnG1043" transform="matrix(1.0,0.0,0.0,1.0,10.0,27.400169372558594)"><text id="ProcessOnText1044" fill="#000000" font-weight="normal" font-style="normal" text-decoration="blink" font-family="微软雅黑" text-anchor="middle" font-size="13" x="75.0" y="13.325">SearchServer.jar</text></g></g><g id="ProcessOnG1045" transform="matrix(1.0,0.0,0.0,1.0,454.62158203125,307.0659637451172)" opacity="1.0"><path id="ProcessOnPath1046" d="M0.0 0.0L201.0 0.0L201.0 77.94966125488281L0.0 77.94966125488281Z" stroke="#323232" stroke-width="2.0" stroke-dasharray="none" opacity="1.0" fill="#ffffff"/><g id="ProcessOnG1047" transform="matrix(1.0,0.0,0.0,1.0,10.0,30.849830627441406)"><text id="ProcessOnText1048" fill="#000000" font-weight="normal" font-style="normal" text-decoration="blink" font-family="微软雅黑" text-anchor="middle" font-size="13" x="90.5" y="13.325">StaticContentServer</text></g></g><g id="ProcessOnG1049" transform="matrix(1.0,0.0,0.0,1.0,100.6336669921875,507.7326431274414)" opacity="1.0"><path id="ProcessOnPath1050" d="M0.0 0.0L201.0 0.0L201.0 76.7326431274414L0.0 76.7326431274414Z" stroke="#323232" stroke-width="2.0" stroke-dasharray="none" opacity="1.0" fill="#ffffff"/><g id="ProcessOnG1051" transform="matrix(1.0,0.0,0.0,1.0,10.0,30.241321563720703)"><text id="ProcessOnText1052" fill="#000000" font-weight="normal" font-style="normal" text-decoration="blink" font-family="微软雅黑" text-anchor="middle" font-size="13" x="90.5" y="13.325">GoodsInfoServer.jar</text></g></g><g id="ProcessOnG1053" transform="matrix(1.0,0.0,0.0,1.0,551.236083984375,544.515625)" opacity="1.0"><path id="ProcessOnPath1054" d="M0.0 0.0L218.0 0.0L218.0 75.0L0.0 75.0Z" stroke="#323232" stroke-width="2.0" stroke-dasharray="none" opacity="1.0" fill="#ffffff"/><g id="ProcessOnG1055" transform="matrix(1.0,0.0,0.0,1.0,10.0,29.375)"><text id="ProcessOnText1056" fill="#000000" font-weight="normal" font-style="normal" text-decoration="blink" font-family="微软雅黑" text-anchor="middle" font-size="13" x="99.0" y="13.325">CommentNotifier.jar</text></g></g><g id="ProcessOnG1057" transform="matrix(1.0,0.0,0.0,1.0,549.736083984375,637.515625)" opacity="1.0"><path id="ProcessOnPath1058" d="M0.0 0.0L221.0 0.0L221.0 60.0L0.0 60.0Z" stroke="#323232" stroke-width="2.0" stroke-dasharray="none" opacity="1.0" fill="#ffffff"/><g id="ProcessOnG1059" transform="matrix(1.0,0.0,0.0,1.0,10.0,13.75)"><text id="ProcessOnText1060" fill="#000000" font-weight="normal" font-style="normal" text-decoration="blink" font-family="微软雅黑" text-anchor="middle" font-size="13" x="100.5" y="13.325"></text><text id="ProcessOnText1061" fill="#000000" font-weight="normal" font-style="normal" text-decoration="blink" font-family="微软雅黑" text-anchor="middle" font-size="13" x="100.5" y="29.575">Message</text></g></g><g id="ProcessOnG1062" transform="matrix(1.0,0.0,0.0,1.0,981.53125,490.4149475097656)" opacity="1.0"><path id="ProcessOnPath1063" d="M0.0 0.0L100.0 0.0L100.0 70.0L0.0 70.0Z" stroke="#323232" stroke-width="2.0" stroke-dasharray="none" opacity="1.0" fill="#ffffff"/><g id="ProcessOnG1064" transform="matrix(1.0,0.0,0.0,1.0,10.0,26.875)"><text id="ProcessOnText1065" fill="#000000" font-weight="normal" font-style="normal" text-decoration="blink" font-family="微软雅黑" text-anchor="middle" font-size="13" x="40.0" y="13.325">DBProxy</text></g></g><g id="ProcessOnG1066" transform="matrix(1.0,0.0,0.0,1.0,952.4444580078125,660.5659637451172)" opacity="1.0"><path id="ProcessOnPath1067" d="M0.0 0.0L146.0 0.0L146.0 79.515625L0.0 79.515625Z" stroke="#323232" stroke-width="2.0" stroke-dasharray="none" opacity="1.0" fill="#ffffff"/><g id="ProcessOnG1068" transform="matrix(1.0,0.0,0.0,1.0,10.0,31.6328125)"><text id="ProcessOnText1069" fill="#000000" font-weight="normal" font-style="normal" text-decoration="blink" font-family="微软雅黑" text-anchor="middle" font-size="13" x="63.0" y="13.325">CommentDB</text></g></g><g id="ProcessOnG1070" transform="matrix(1.0,0.0,0.0,1.0,831.03125,286.515625)" opacity="1.0"><path id="ProcessOnPath1071" d="M0.0 0.0L197.0 0.0L197.0 67.0L0.0 67.0Z" stroke="#323232" stroke-width="2.0" stroke-dasharray="none" opacity="1.0" fill="#ffffff"/><g id="ProcessOnG1072" transform="matrix(1.0,0.0,0.0,1.0,10.0,25.375)"><text id="ProcessOnText1073" fill="#000000" font-weight="normal" font-style="normal" text-decoration="blink" font-family="微软雅黑" text-anchor="middle" font-size="13" x="88.5" y="13.325">CommentServer.jar</text></g></g><g id="ProcessOnG1074"><path id="ProcessOnPath1075" d="M569.7239990234375 219.515625L247.03125 264.515625" stroke="#323232" stroke-width="2.0" stroke-dasharray="none" fill="none"/></g><g id="ProcessOnG1076"><path id="ProcessOnPath1077" d="M569.7239990234375 219.515625L569.7239990234375 271.0659637451172" stroke="#323232" stroke-width="2.0" stroke-dasharray="none" fill="none"/></g><g id="ProcessOnG1078"><path id="ProcessOnPath1079" d="M569.7239990234375 219.515625L955.03125 254.515625" stroke="#323232" stroke-width="2.0" stroke-dasharray="none" fill="none"/></g><g id="ProcessOnG1080"><path id="ProcessOnPath1081" d="M222.1336669921875 394.515625L215.6336669921875 462.515625" stroke="#323232" stroke-width="2.0" stroke-dasharray="none" fill="none"/></g><g id="ProcessOnG1082"><path id="ProcessOnPath1083" d="M943.1336669921875 377.515625L672.9426879882812 500.5659637451172" stroke="#323232" stroke-width="2.0" stroke-dasharray="none" fill="none"/></g><g id="ProcessOnG1084"><path id="ProcessOnPath1085" d="M943.1336669921875 377.515625L1038.53125 462.515625" stroke="#323232" stroke-width="2.0" stroke-dasharray="none" fill="none"/></g><g id="ProcessOnG1086"><path id="ProcessOnPath1087" d="M1038.53125 576.4652862548828L1038.53125 626.1319274902344" stroke="#323232" stroke-width="2.0" stroke-dasharray="none" fill="none"/></g></g></g></svg>