<svg xmlns="http://www.w3.org/2000/svg" xmlns:xlink="http://www.w3.org/1999/xlink" id="processonSvg1000" viewBox="232.0 53.0 1460.6666641235352 1385.6666870117188" width="1460.6666641235352" height="1385.6666870117188"><defs id="ProcessOnDefs1001"><marker id="ProcessOnMarker1107" markerUnits="userSpaceOnUse" orient="auto" markerWidth="16.23606797749979" markerHeight="10.550836550532098" viewBox="-1.0 -1.3763819204711736 16.23606797749979 10.550836550532098" refX="-1.0" refY="3.8990363547948754"><path id="ProcessOnPath1108" d="M12.0 3.8990363547948754L0.0 7.798072709589751V0.0Z" stroke="#323232" stroke-width="2.0" fill="#323232" transform="matrix(1.0,0.0,0.0,1.0,0.0,0.0)"/></marker><marker id="ProcessOnMarker1114" markerUnits="userSpaceOnUse" orient="auto" markerWidth="16.23606797749979" markerHeight="10.550836550532098" viewBox="-1.0 -1.3763819204711736 16.23606797749979 10.550836550532098" refX="-1.0" refY="3.8990363547948754"><path id="ProcessOnPath1115" d="M12.0 3.8990363547948754L0.0 7.798072709589751V0.0Z" stroke="#323232" stroke-width="2.0" fill="#323232" transform="matrix(1.0,0.0,0.0,1.0,0.0,0.0)"/></marker><marker id="ProcessOnMarker1121" markerUnits="userSpaceOnUse" orient="auto" markerWidth="16.23606797749979" markerHeight="10.550836550532098" viewBox="-1.0 -1.3763819204711736 16.23606797749979 10.550836550532098" refX="-1.0" refY="3.8990363547948754"><path id="ProcessOnPath1122" d="M12.0 3.8990363547948754L0.0 7.798072709589751V0.0Z" stroke="#323232" stroke-width="2.0" fill="#323232" transform="matrix(1.0,0.0,0.0,1.0,0.0,0.0)"/></marker><marker id="ProcessOnMarker1128" markerUnits="userSpaceOnUse" orient="auto" markerWidth="16.23606797749979" markerHeight="10.550836550532098" viewBox="-1.0 -1.3763819204711736 16.23606797749979 10.550836550532098" refX="-1.0" refY="3.8990363547948754"><path id="ProcessOnPath1129" d="M12.0 3.8990363547948754L0.0 7.798072709589751V0.0Z" stroke="#323232" stroke-width="2.0" fill="#323232" transform="matrix(1.0,0.0,0.0,1.0,0.0,0.0)"/></marker><marker id="ProcessOnMarker1135" markerUnits="userSpaceOnUse" orient="auto" markerWidth="16.23606797749979" markerHeight="10.550836550532098" viewBox="-1.0 -1.3763819204711736 16.23606797749979 10.550836550532098" refX="-1.0" refY="3.8990363547948754"><path id="ProcessOnPath1136" d="M12.0 3.8990363547948754L0.0 7.798072709589751V0.0Z" stroke="#323232" stroke-width="2.0" fill="#323232" transform="matrix(1.0,0.0,0.0,1.0,0.0,0.0)"/></marker><marker id="ProcessOnMarker1142" markerUnits="userSpaceOnUse" orient="auto" markerWidth="16.23606797749979" markerHeight="10.550836550532098" viewBox="-1.0 -1.3763819204711736 16.23606797749979 10.550836550532098" refX="-1.0" refY="3.8990363547948754"><path id="ProcessOnPath1143" d="M12.0 3.8990363547948754L0.0 7.798072709589751V0.0Z" stroke="#323232" stroke-width="2.0" fill="#323232" transform="matrix(1.0,0.0,0.0,1.0,0.0,0.0)"/></marker><marker id="ProcessOnMarker1149" markerUnits="userSpaceOnUse" orient="auto" markerWidth="16.23606797749979" markerHeight="10.550836550532098" viewBox="-1.0 -1.3763819204711736 16.23606797749979 10.550836550532098" refX="-1.0" refY="3.8990363547948754"><path id="ProcessOnPath1150" d="M12.0 3.8990363547948754L0.0 7.798072709589751V0.0Z" stroke="#323232" stroke-width="2.0" fill="#323232" transform="matrix(1.0,0.0,0.0,1.0,0.0,0.0)"/></marker><marker id="ProcessOnMarker1156" markerUnits="userSpaceOnUse" orient="auto" markerWidth="16.23606797749979" markerHeight="10.550836550532098" viewBox="-1.0 -1.3763819204711736 16.23606797749979 10.550836550532098" refX="-1.0" refY="3.8990363547948754"><path id="ProcessOnPath1157" d="M12.0 3.8990363547948754L0.0 7.798072709589751V0.0Z" stroke="#323232" stroke-width="2.0" fill="#323232" transform="matrix(1.0,0.0,0.0,1.0,0.0,0.0)"/></marker><marker id="ProcessOnMarker1163" markerUnits="userSpaceOnUse" orient="auto" markerWidth="16.23606797749979" markerHeight="10.550836550532098" viewBox="-1.0 -1.3763819204711736 16.23606797749979 10.550836550532098" refX="-1.0" refY="3.8990363547948754"><path id="ProcessOnPath1164" d="M12.0 3.8990363547948754L0.0 7.798072709589751V0.0Z" stroke="#323232" stroke-width="2.0" fill="#323232" transform="matrix(1.0,0.0,0.0,1.0,0.0,0.0)"/></marker><marker id="ProcessOnMarker1170" markerUnits="userSpaceOnUse" orient="auto" markerWidth="16.23606797749979" markerHeight="10.550836550532098" viewBox="-1.0 -1.3763819204711736 16.23606797749979 10.550836550532098" refX="-1.0" refY="3.8990363547948754"><path id="ProcessOnPath1171" d="M12.0 3.8990363547948754L0.0 7.798072709589751V0.0Z" stroke="#323232" stroke-width="2.0" fill="#323232" transform="matrix(1.0,0.0,0.0,1.0,0.0,0.0)"/></marker><marker id="ProcessOnMarker1177" markerUnits="userSpaceOnUse" orient="auto" markerWidth="16.23606797749979" markerHeight="10.550836550532098" viewBox="-1.0 -1.3763819204711736 16.23606797749979 10.550836550532098" refX="-1.0" refY="3.8990363547948754"><path id="ProcessOnPath1178" d="M12.0 3.8990363547948754L0.0 7.798072709589751V0.0Z" stroke="#323232" stroke-width="2.0" fill="#323232" transform="matrix(1.0,0.0,0.0,1.0,0.0,0.0)"/></marker><marker id="ProcessOnMarker1184" markerUnits="userSpaceOnUse" orient="auto" markerWidth="16.23606797749979" markerHeight="10.550836550532098" viewBox="-1.0 -1.3763819204711736 16.23606797749979 10.550836550532098" refX="-1.0" refY="3.8990363547948754"><path id="ProcessOnPath1185" d="M12.0 3.8990363547948754L0.0 7.798072709589751V0.0Z" stroke="#323232" stroke-width="2.0" fill="#323232" transform="matrix(1.0,0.0,0.0,1.0,0.0,0.0)"/></marker><marker id="ProcessOnMarker1191" markerUnits="userSpaceOnUse" orient="auto" markerWidth="16.23606797749979" markerHeight="10.550836550532098" viewBox="-1.0 -1.3763819204711736 16.23606797749979 10.550836550532098" refX="-1.0" refY="3.8990363547948754"><path id="ProcessOnPath1192" d="M12.0 3.8990363547948754L0.0 7.798072709589751V0.0Z" stroke="#323232" stroke-width="2.0" fill="#323232" transform="matrix(1.0,0.0,0.0,1.0,0.0,0.0)"/></marker><marker id="ProcessOnMarker1198" markerUnits="userSpaceOnUse" orient="auto" markerWidth="16.23606797749979" markerHeight="10.550836550532098" viewBox="-1.0 -1.3763819204711736 16.23606797749979 10.550836550532098" refX="-1.0" refY="3.8990363547948754"><path id="ProcessOnPath1199" d="M12.0 3.8990363547948754L0.0 7.798072709589751V0.0Z" stroke="#323232" stroke-width="2.0" fill="#323232" transform="matrix(1.0,0.0,0.0,1.0,0.0,0.0)"/></marker><marker id="ProcessOnMarker1205" markerUnits="userSpaceOnUse" orient="auto" markerWidth="16.23606797749979" markerHeight="10.550836550532098" viewBox="-1.0 -1.3763819204711736 16.23606797749979 10.550836550532098" refX="-1.0" refY="3.8990363547948754"><path id="ProcessOnPath1206" d="M12.0 3.8990363547948754L0.0 7.798072709589751V0.0Z" stroke="#323232" stroke-width="2.0" fill="#323232" transform="matrix(1.0,0.0,0.0,1.0,0.0,0.0)"/></marker><marker id="ProcessOnMarker1212" markerUnits="userSpaceOnUse" orient="auto" markerWidth="16.23606797749979" markerHeight="10.550836550532098" viewBox="-1.0 -1.3763819204711736 16.23606797749979 10.550836550532098" refX="-1.0" refY="3.8990363547948754"><path id="ProcessOnPath1213" d="M12.0 3.8990363547948754L0.0 7.798072709589751V0.0Z" stroke="#323232" stroke-width="2.0" fill="#323232" transform="matrix(1.0,0.0,0.0,1.0,0.0,0.0)"/></marker><marker id="ProcessOnMarker1219" markerUnits="userSpaceOnUse" orient="auto" markerWidth="16.23606797749979" markerHeight="10.550836550532098" viewBox="-1.0 -1.3763819204711736 16.23606797749979 10.550836550532098" refX="-1.0" refY="3.8990363547948754"><path id="ProcessOnPath1220" d="M12.0 3.8990363547948754L0.0 7.798072709589751V0.0Z" stroke="#323232" stroke-width="2.0" fill="#323232" transform="matrix(1.0,0.0,0.0,1.0,0.0,0.0)"/></marker><marker id="ProcessOnMarker1226" markerUnits="userSpaceOnUse" orient="auto" markerWidth="16.23606797749979" markerHeight="10.550836550532098" viewBox="-1.0 -1.3763819204711736 16.23606797749979 10.550836550532098" refX="-1.0" refY="3.8990363547948754"><path id="ProcessOnPath1227" d="M12.0 3.8990363547948754L0.0 7.798072709589751V0.0Z" stroke="#323232" stroke-width="2.0" fill="#323232" transform="matrix(1.0,0.0,0.0,1.0,0.0,0.0)"/></marker><marker id="ProcessOnMarker1233" markerUnits="userSpaceOnUse" orient="auto" markerWidth="16.23606797749979" markerHeight="10.550836550532098" viewBox="-1.0 -1.3763819204711736 16.23606797749979 10.550836550532098" refX="-1.0" refY="3.8990363547948754"><path id="ProcessOnPath1234" d="M12.0 3.8990363547948754L0.0 7.798072709589751V0.0Z" stroke="#323232" stroke-width="2.0" fill="#323232" transform="matrix(1.0,0.0,0.0,1.0,0.0,0.0)"/></marker></defs><g id="ProcessOnG1002"><path id="ProcessOnPath1003" d="M232.0 53.0H1692.6666641235352V1438.6666870117188H232.0V53.0Z" fill="#ffffff"/><g id="ProcessOnG1004"><g id="ProcessOnG1005" transform="matrix(1.0,0.0,0.0,1.0,478.3333282470703,73.0)" opacity="1.0"><path id="ProcessOnPath1006" d="M0.0 4.0Q0.0 0.0 4.0 0.0L1190.3333358764648 0.0Q1194.3333358764648 0.0 1194.3333358764648 4.0L1194.3333358764648 1341.6666870117188Q1194.3333358764648 1345.6666870117188 1190.3333358764648 1345.6666870117188L4.0 1345.6666870117188Q0.0 1345.6666870117188 0.0 1341.6666870117188Z" stroke="#323232" stroke-width="2.0" stroke-dasharray="none" fill="#ffffff"/></g><g id="ProcessOnG1007" transform="matrix(1.0,0.0,0.0,1.0,272.0,560.515625)" opacity="1.0"><path id="ProcessOnPath1008" d="M23.333333333333332 12.5C23.333333333333332 -4.166666666666666 46.666666666666664 -4.166666666666666 46.666666666666664 12.5C46.666666666666664 29.166666666666668 23.333333333333332 29.166666666666668 23.333333333333332 12.5M35.0 25.0L35.0 75.0M35.0 75.0L5.833333333333333 100.0M35.0 75.0L64.16666666666666 100.0M0.0 50.0L70.0 50.0" stroke="#323232" stroke-width="2.0" stroke-dasharray="none" fill="#ffffff"/><path id="ProcessOnPath1009" d="M0.0 0.0L70.0 0.0L70.0 100.0L0.0 100.0Z" stroke="#323232" stroke-width="0.0" stroke-dasharray="none" fill="none"/><g id="ProcessOnG1010" transform="matrix(1.0,0.0,0.0,1.0,-20.0,103.75)"><text id="ProcessOnText1011" fill="#323232" font-weight="normal" font-style="normal" text-decoration="blink" font-family="Arial,宋体" text-anchor="middle" font-size="18" x="55.0" y="18.45">用户</text></g></g><g id="ProcessOnG1012" transform="matrix(1.0,0.0,0.0,1.0,275.0,1213.3333740234375)" opacity="1.0"><path id="ProcessOnPath1013" d="M23.333333333333332 12.5C23.333333333333332 -4.166666666666666 46.666666666666664 -4.166666666666666 46.666666666666664 12.5C46.666666666666664 29.166666666666668 23.333333333333332 29.166666666666668 23.333333333333332 12.5M35.0 25.0L35.0 75.0M35.0 75.0L5.833333333333333 100.0M35.0 75.0L64.16666666666666 100.0M0.0 50.0L70.0 50.0" stroke="#323232" stroke-width="2.0" stroke-dasharray="none" fill="#ffffff"/><path id="ProcessOnPath1014" d="M0.0 0.0L70.0 0.0L70.0 100.0L0.0 100.0Z" stroke="#323232" stroke-width="0.0" stroke-dasharray="none" fill="none"/><g id="ProcessOnG1015" transform="matrix(1.0,0.0,0.0,1.0,-20.0,103.75)"><text id="ProcessOnText1016" fill="#323232" font-weight="normal" font-style="normal" text-decoration="blink" font-family="Arial,宋体" text-anchor="middle" font-size="18" x="55.0" y="18.45">开发维护人员</text></g></g><g id="ProcessOnG1017" transform="matrix(1.0,0.0,0.0,1.0,759.53125,285.515625)" opacity="1.0"><path id="ProcessOnPath1018" d="M0.0 35.0C0.0 -11.666666666666666 100.0 -11.666666666666666 100.0 35.0C100.0 81.66666666666667 0.0 81.66666666666667 0.0 35.0Z" stroke="#323232" stroke-width="2.0" stroke-dasharray="none" fill="#ffffff"/><g id="ProcessOnG1019" transform="matrix(1.0,0.0,0.0,1.0,10.0,23.75)"><text id="ProcessOnText1020" fill="#323232" font-weight="normal" font-style="normal" text-decoration="blink" font-family="Arial,宋体" text-anchor="middle" font-size="18" x="40.0" y="18.45">搜索</text></g></g><g id="ProcessOnG1021" transform="matrix(1.0,0.0,0.0,1.0,756.53125,408.515625)" opacity="1.0"><path id="ProcessOnPath1022" d="M0.0 35.0C0.0 -11.666666666666666 100.0 -11.666666666666666 100.0 35.0C100.0 81.66666666666667 0.0 81.66666666666667 0.0 35.0Z" stroke="#323232" stroke-width="2.0" stroke-dasharray="none" fill="#ffffff"/><g id="ProcessOnG1023" transform="matrix(1.0,0.0,0.0,1.0,10.0,23.75)"><text id="ProcessOnText1024" fill="#323232" font-weight="normal" font-style="normal" text-decoration="blink" font-family="Arial,宋体" text-anchor="middle" font-size="18" x="40.0" y="18.45">评论</text></g></g><g id="ProcessOnG1025" transform="matrix(1.0,0.0,0.0,1.0,951.53125,171.515625)" opacity="1.0"><path id="ProcessOnPath1026" d="M0.0 35.0C0.0 -11.666666666666666 100.0 -11.666666666666666 100.0 35.0C100.0 81.66666666666667 0.0 81.66666666666667 0.0 35.0Z" stroke="#323232" stroke-width="2.0" stroke-dasharray="none" fill="#ffffff"/><g id="ProcessOnG1027" transform="matrix(1.0,0.0,0.0,1.0,10.0,23.75)"><text id="ProcessOnText1028" fill="#323232" font-weight="normal" font-style="normal" text-decoration="blink" font-family="Arial,宋体" text-anchor="middle" font-size="18" x="40.0" y="18.45">爬取数据</text></g></g><g id="ProcessOnG1029" transform="matrix(1.0,0.0,0.0,1.0,799.53125,1027.515625)" opacity="1.0"><path id="ProcessOnPath1030" d="M0.0 34.0C0.0 -11.333333333333334 130.5 -11.333333333333334 130.5 34.0C130.5 79.33333333333333 0.0 79.33333333333333 0.0 34.0Z" stroke="#323232" stroke-width="2.0" stroke-dasharray="none" fill="#ffffff"/><g id="ProcessOnG1031" transform="matrix(1.0,0.0,0.0,1.0,10.0,22.75)"><text id="ProcessOnText1032" fill="#323232" font-weight="normal" font-style="normal" text-decoration="blink" font-family="Arial,宋体" text-anchor="middle" font-size="18" x="55.25" y="18.45">浏览器兼容</text></g></g><g id="ProcessOnG1033" transform="matrix(1.0,0.0,0.0,1.0,793.53125,612.515625)" opacity="1.0"><path id="ProcessOnPath1034" d="M0.0 38.0C0.0 -12.666666666666666 130.0 -12.666666666666666 130.0 38.0C130.0 88.66666666666667 0.0 88.66666666666667 0.0 38.0Z" stroke="#323232" stroke-width="2.0" stroke-dasharray="none" fill="#ffffff"/><g id="ProcessOnG1035" transform="matrix(1.0,0.0,0.0,1.0,10.0,26.75)"><text id="ProcessOnText1036" fill="#323232" font-weight="normal" font-style="normal" text-decoration="blink" font-family="Arial,宋体" text-anchor="middle" font-size="18" x="55.0" y="18.45">数据可靠性</text></g></g><g id="ProcessOnG1037" transform="matrix(1.0,0.0,0.0,1.0,799.53125,827.515625)" opacity="1.0"><path id="ProcessOnPath1038" d="M0.0 38.0C0.0 -12.666666666666666 130.0 -12.666666666666666 130.0 38.0C130.0 88.66666666666667 0.0 88.66666666666667 0.0 38.0Z" stroke="#323232" stroke-width="2.0" stroke-dasharray="none" fill="#ffffff"/><g id="ProcessOnG1039" transform="matrix(1.0,0.0,0.0,1.0,10.0,26.75)"><text id="ProcessOnText1040" fill="#323232" font-weight="normal" font-style="normal" text-decoration="blink" font-family="Arial,宋体" text-anchor="middle" font-size="18" x="55.0" y="18.45">服务可靠性</text></g></g><g id="ProcessOnG1041" transform="matrix(1.0,0.0,0.0,1.0,1397.53125,397.515625)" opacity="1.0"><path id="ProcessOnPath1042" d="M0.0 38.0C0.0 -12.666666666666666 156.0 -12.666666666666666 156.0 38.0C156.0 88.66666666666667 0.0 88.66666666666667 0.0 38.0Z" stroke="#323232" stroke-width="2.0" stroke-dasharray="none" fill="#ffffff"/><g id="ProcessOnG1043" transform="matrix(1.0,0.0,0.0,1.0,10.0,26.75)"><text id="ProcessOnText1044" fill="#323232" font-weight="normal" font-style="normal" text-decoration="blink" font-family="Arial,宋体" text-anchor="middle" font-size="18" x="68.0" y="18.45">电商网站兼容性</text></g></g><g id="ProcessOnG1045" transform="matrix(1.0,0.0,0.0,1.0,1383.53125,290.515625)" opacity="1.0"><path id="ProcessOnPath1046" d="M0.0 38.0C0.0 -12.666666666666666 208.8020782470703 -12.666666666666666 208.8020782470703 38.0C208.8020782470703 88.66666666666667 0.0 88.66666666666667 0.0 38.0Z" stroke="#323232" stroke-width="2.0" stroke-dasharray="none" fill="#ffffff"/><g id="ProcessOnG1047" transform="matrix(1.0,0.0,0.0,1.0,10.0,26.75)"><text id="ProcessOnText1048" fill="#323232" font-weight="normal" font-style="normal" text-decoration="blink" font-family="Arial,宋体" text-anchor="middle" font-size="18" x="94.40103912353516" y="18.45">更新数据时系统可用</text></g></g><g id="ProcessOnG1049" transform="matrix(1.0,0.0,0.0,1.0,1020.53125,311.515625)" opacity="1.0"><path id="ProcessOnPath1050" d="M0.0 38.0C0.0 -12.666666666666666 156.0 -12.666666666666666 156.0 38.0C156.0 88.66666666666667 0.0 88.66666666666667 0.0 38.0Z" stroke="#323232" stroke-width="2.0" stroke-dasharray="none" fill="#ffffff"/><g id="ProcessOnG1051" transform="matrix(1.0,0.0,0.0,1.0,10.0,26.75)"><text id="ProcessOnText1052" fill="#323232" font-weight="normal" font-style="normal" text-decoration="blink" font-family="Arial,宋体" text-anchor="middle" font-size="18" x="68.0" y="18.45">搜索易用</text></g></g><g id="ProcessOnG1053" transform="matrix(1.0,0.0,0.0,1.0,961.53125,405.515625)" opacity="1.0"><path id="ProcessOnPath1054" d="M0.0 38.0C0.0 -12.666666666666666 156.0 -12.666666666666666 156.0 38.0C156.0 88.66666666666667 0.0 88.66666666666667 0.0 38.0Z" stroke="#323232" stroke-width="2.0" stroke-dasharray="none" fill="#ffffff"/><g id="ProcessOnG1055" transform="matrix(1.0,0.0,0.0,1.0,10.0,26.75)"><text id="ProcessOnText1056" fill="#323232" font-weight="normal" font-style="normal" text-decoration="blink" font-family="Arial,宋体" text-anchor="middle" font-size="18" x="68.0" y="18.45">允许调整搜索结果</text></g></g><g id="ProcessOnG1057" transform="matrix(1.0,0.0,0.0,1.0,1371.3333282470703,110.515625)" opacity="1.0"><path id="ProcessOnPath1058" d="M0.0 38.0C0.0 -12.666666666666666 156.0 -12.666666666666666 156.0 38.0C156.0 88.66666666666667 0.0 88.66666666666667 0.0 38.0Z" stroke="#323232" stroke-width="2.0" stroke-dasharray="none" fill="#ffffff"/><g id="ProcessOnG1059" transform="matrix(1.0,0.0,0.0,1.0,10.0,26.75)"><text id="ProcessOnText1060" fill="#323232" font-weight="normal" font-style="normal" text-decoration="blink" font-family="Arial,宋体" text-anchor="middle" font-size="18" x="68.0" y="18.45">存储容量足够大</text></g></g><g id="ProcessOnG1061" transform="matrix(1.0,0.0,0.0,1.0,1391.53125,196.0)" opacity="1.0"><path id="ProcessOnPath1062" d="M0.0 38.0C0.0 -12.666666666666666 156.0 -12.666666666666666 156.0 38.0C156.0 88.66666666666667 0.0 88.66666666666667 0.0 38.0Z" stroke="#323232" stroke-width="2.0" stroke-dasharray="none" fill="#ffffff"/><g id="ProcessOnG1063" transform="matrix(1.0,0.0,0.0,1.0,10.0,26.75)"><text id="ProcessOnText1064" fill="#323232" font-weight="normal" font-style="normal" text-decoration="blink" font-family="Arial,宋体" text-anchor="middle" font-size="18" x="68.0" y="18.45">保证存取效率</text></g></g><g id="ProcessOnG1065" transform="matrix(1.0,0.0,0.0,1.0,790.53125,721.515625)" opacity="1.0"><path id="ProcessOnPath1066" d="M0.0 38.0C0.0 -12.666666666666666 156.0 -12.666666666666666 156.0 38.0C156.0 88.66666666666667 0.0 88.66666666666667 0.0 38.0Z" stroke="#323232" stroke-width="2.0" stroke-dasharray="none" fill="#ffffff"/><g id="ProcessOnG1067" transform="matrix(1.0,0.0,0.0,1.0,10.0,26.75)"><text id="ProcessOnText1068" fill="#323232" font-weight="normal" font-style="normal" text-decoration="blink" font-family="Arial,宋体" text-anchor="middle" font-size="18" x="68.0" y="18.45">高峰吞吐量</text></g></g><g id="ProcessOnG1069" transform="matrix(1.0,0.0,0.0,1.0,799.53125,927.515625)" opacity="1.0"><path id="ProcessOnPath1070" d="M0.0 38.0C0.0 -12.666666666666666 156.0 -12.666666666666666 156.0 38.0C156.0 88.66666666666667 0.0 88.66666666666667 0.0 38.0Z" stroke="#323232" stroke-width="2.0" stroke-dasharray="none" fill="#ffffff"/><g id="ProcessOnG1071" transform="matrix(1.0,0.0,0.0,1.0,10.0,26.75)"><text id="ProcessOnText1072" fill="#323232" font-weight="normal" font-style="normal" text-decoration="blink" font-family="Arial,宋体" text-anchor="middle" font-size="18" x="68.0" y="18.45">入侵检测</text></g></g><g id="ProcessOnG1073" transform="matrix(1.0,0.0,0.0,1.0,1107.53125,927.515625)" opacity="1.0"><path id="ProcessOnPath1074" d="M0.0 38.0C0.0 -12.666666666666666 156.0 -12.666666666666666 156.0 38.0C156.0 88.66666666666667 0.0 88.66666666666667 0.0 38.0Z" stroke="#323232" stroke-width="2.0" stroke-dasharray="none" fill="#ffffff"/><g id="ProcessOnG1075" transform="matrix(1.0,0.0,0.0,1.0,10.0,26.75)"><text id="ProcessOnText1076" fill="#323232" font-weight="normal" font-style="normal" text-decoration="blink" font-family="Arial,宋体" text-anchor="middle" font-size="18" x="68.0" y="18.45">IP屏蔽</text></g></g><g id="ProcessOnG1077" transform="matrix(1.0,0.0,0.0,1.0,1004.53125,558.515625)" opacity="1.0"><path id="ProcessOnPath1078" d="M0.0 38.0C0.0 -12.666666666666666 156.0 -12.666666666666666 156.0 38.0C156.0 88.66666666666667 0.0 88.66666666666667 0.0 38.0Z" stroke="#323232" stroke-width="2.0" stroke-dasharray="none" fill="#ffffff"/><g id="ProcessOnG1079" transform="matrix(1.0,0.0,0.0,1.0,10.0,26.75)"><text id="ProcessOnText1080" fill="#323232" font-weight="normal" font-style="normal" text-decoration="blink" font-family="Arial,宋体" text-anchor="middle" font-size="18" x="68.0" y="18.45">敏感词汇检测</text></g></g><g id="ProcessOnG1081" transform="matrix(1.0,0.0,0.0,1.0,1004.53125,660.515625)" opacity="1.0"><path id="ProcessOnPath1082" d="M0.0 38.0C0.0 -12.666666666666666 156.0 -12.666666666666666 156.0 38.0C156.0 88.66666666666667 0.0 88.66666666666667 0.0 38.0Z" stroke="#323232" stroke-width="2.0" stroke-dasharray="none" fill="#ffffff"/><g id="ProcessOnG1083" transform="matrix(1.0,0.0,0.0,1.0,10.0,26.75)"><text id="ProcessOnText1084" fill="#323232" font-weight="normal" font-style="normal" text-decoration="blink" font-family="Arial,宋体" text-anchor="middle" font-size="18" x="68.0" y="18.45">水军检测</text></g></g><g id="ProcessOnG1085" transform="matrix(1.0,0.0,0.0,1.0,1347.53125,648.515625)" opacity="1.0"><path id="ProcessOnPath1086" d="M0.0 38.0C0.0 -12.666666666666666 156.0 -12.666666666666666 156.0 38.0C156.0 88.66666666666667 0.0 88.66666666666667 0.0 38.0Z" stroke="#323232" stroke-width="2.0" stroke-dasharray="none" fill="#ffffff"/><g id="ProcessOnG1087" transform="matrix(1.0,0.0,0.0,1.0,10.0,26.75)"><text id="ProcessOnText1088" fill="#323232" font-weight="normal" font-style="normal" text-decoration="blink" font-family="Arial,宋体" text-anchor="middle" font-size="18" x="68.0" y="18.45">通知规则可拓展</text></g></g><g id="ProcessOnG1089" transform="matrix(1.0,0.0,0.0,1.0,508.03125,575.515625)" opacity="1.0"><path id="ProcessOnPath1090" d="M0.0 35.0C0.0 -11.666666666666666 100.0 -11.666666666666666 100.0 35.0C100.0 81.66666666666667 0.0 81.66666666666667 0.0 35.0Z" stroke="#323232" stroke-width="2.0" stroke-dasharray="none" fill="#ffffff"/><g id="ProcessOnG1091" transform="matrix(1.0,0.0,0.0,1.0,10.0,23.75)"><text id="ProcessOnText1092" fill="#323232" font-weight="normal" font-style="normal" text-decoration="blink" font-family="Arial,宋体" text-anchor="middle" font-size="18" x="40.0" y="18.45">使用网站</text></g></g><g id="ProcessOnG1093" transform="matrix(1.0,0.0,0.0,1.0,1324.53125,531.515625)" opacity="1.0"><path id="ProcessOnPath1094" d="M0.0 38.0C0.0 -12.666666666666666 156.0 -12.666666666666666 156.0 38.0C156.0 88.66666666666667 0.0 88.66666666666667 0.0 38.0Z" stroke="#323232" stroke-width="2.0" stroke-dasharray="none" fill="#ffffff"/><g id="ProcessOnG1095" transform="matrix(1.0,0.0,0.0,1.0,10.0,26.75)"><text id="ProcessOnText1096" fill="#323232" font-weight="normal" font-style="normal" text-decoration="blink" font-family="Arial,宋体" text-anchor="middle" font-size="18" x="68.0" y="18.45">通知商家</text></g></g><g id="ProcessOnG1097" transform="matrix(1.0,0.0,0.0,1.0,659.53125,1173.3333740234375)" opacity="1.0"><path id="ProcessOnPath1098" d="M0.0 38.0C0.0 -12.666666666666666 156.0 -12.666666666666666 156.0 38.0C156.0 88.66666666666667 0.0 88.66666666666667 0.0 38.0Z" stroke="#323232" stroke-width="2.0" stroke-dasharray="none" fill="#ffffff"/><g id="ProcessOnG1099" transform="matrix(1.0,0.0,0.0,1.0,10.0,26.75)"><text id="ProcessOnText1100" fill="#323232" font-weight="normal" font-style="normal" text-decoration="blink" font-family="Arial,宋体" text-anchor="middle" font-size="18" x="68.0" y="18.45">进入测试环境</text></g></g><g id="ProcessOnG1101" transform="matrix(1.0,0.0,0.0,1.0,659.53125,1313.3333740234375)" opacity="1.0"><path id="ProcessOnPath1102" d="M0.0 38.0C0.0 -12.666666666666666 156.0 -12.666666666666666 156.0 38.0C156.0 88.66666666666667 0.0 88.66666666666667 0.0 38.0Z" stroke="#323232" stroke-width="2.0" stroke-dasharray="none" fill="#ffffff"/><g id="ProcessOnG1103" transform="matrix(1.0,0.0,0.0,1.0,10.0,26.75)"><text id="ProcessOnText1104" fill="#323232" font-weight="normal" font-style="normal" text-decoration="blink" font-family="Arial,宋体" text-anchor="middle" font-size="18" x="68.0" y="18.45">有规律的错误码</text></g></g><g id="ProcessOnG1105"><path id="ProcessOnPath1106" d="M608.03125 610.515625L752.4764024295188 334.0199536827694" stroke="#323232" stroke-width="2.0" stroke-dasharray="10.0 4.0" fill="none" marker-end="url(#ProcessOnMarker1107)"/><g id="ProcessOnG1109" transform="matrix(1.0,0.0,0.0,1.0,680.2538262147593,461.01778934138474)"><path id="ProcessOnPath1110" d="M0 0H90.0V22.5H0Z" fill="#fff" transform="matrix(1.0,0.0,0.0,1.0,-45.0,0.0)"/><text id="ProcessOnText1111" fill="#323232" font-weight="normal" font-style="normal" text-decoration="blink" font-family="Arial,宋体" text-anchor="middle" font-size="18" x="0.0" y="18.45">《include》</text></g></g><g id="ProcessOnG1112"><path id="ProcessOnPath1113" d="M608.03125 610.515625L746.4068417007188 454.9013232220872" stroke="#323232" stroke-width="2.0" stroke-dasharray="10.0 4.0" fill="none" marker-end="url(#ProcessOnMarker1114)"/><g id="ProcessOnG1116" transform="matrix(1.0,0.0,0.0,1.0,677.2190458503594,521.4584741110436)"><path id="ProcessOnPath1117" d="M0 0H90.0V22.5H0Z" fill="#fff" transform="matrix(1.0,0.0,0.0,1.0,-45.0,0.0)"/><text id="ProcessOnText1118" fill="#323232" font-weight="normal" font-style="normal" text-decoration="blink" font-family="Arial,宋体" text-anchor="middle" font-size="18" x="0.0" y="18.45">《include》</text></g></g><g id="ProcessOnG1119"><path id="ProcessOnPath1120" d="M859.53125 320.515625L941.962705737624 218.37229941207463" stroke="#323232" stroke-width="2.0" stroke-dasharray="10.0 4.0" fill="none" marker-end="url(#ProcessOnMarker1121)"/><g id="ProcessOnG1123" transform="matrix(1.0,0.0,0.0,1.0,900.746977868812,258.1939622060373)"><path id="ProcessOnPath1124" d="M0 0H90.0V22.5H0Z" fill="#fff" transform="matrix(1.0,0.0,0.0,1.0,-45.0,0.0)"/><text id="ProcessOnText1125" fill="#323232" font-weight="normal" font-style="normal" text-decoration="blink" font-family="Arial,宋体" text-anchor="middle" font-size="18" x="0.0" y="18.45">《include》</text></g></g><g id="ProcessOnG1126"><path id="ProcessOnPath1127" d="M608.03125 610.515625L778.6375107107101 647.3040370130911" stroke="#323232" stroke-width="2.0" stroke-dasharray="10.0 4.0" fill="none" marker-end="url(#ProcessOnMarker1128)"/><g id="ProcessOnG1130" transform="matrix(1.0,0.0,0.0,1.0,693.334380355355,617.6598310065456)"><path id="ProcessOnPath1131" d="M0 0H90.0V22.5H0Z" fill="#fff" transform="matrix(1.0,0.0,0.0,1.0,-45.0,0.0)"/><text id="ProcessOnText1132" fill="#323232" font-weight="normal" font-style="normal" text-decoration="blink" font-family="Arial,宋体" text-anchor="middle" font-size="18" x="0.0" y="18.45">《include》</text></g></g><g id="ProcessOnG1133"><path id="ProcessOnPath1134" d="M608.03125 610.515625L778.729105852867 749.8799018332995" stroke="#323232" stroke-width="2.0" stroke-dasharray="10.0 4.0" fill="none" marker-end="url(#ProcessOnMarker1135)"/><g id="ProcessOnG1137" transform="matrix(1.0,0.0,0.0,1.0,693.3801779264335,668.9477634166498)"><path id="ProcessOnPath1138" d="M0 0H90.0V22.5H0Z" fill="#fff" transform="matrix(1.0,0.0,0.0,1.0,-45.0,0.0)"/><text id="ProcessOnText1139" fill="#323232" font-weight="normal" font-style="normal" text-decoration="blink" font-family="Arial,宋体" text-anchor="middle" font-size="18" x="0.0" y="18.45">《include》</text></g></g><g id="ProcessOnG1140"><path id="ProcessOnPath1141" d="M859.53125 320.515625L1005.5364908463414 346.81470564934097" stroke="#323232" stroke-width="2.0" stroke-dasharray="10.0 4.0" fill="none" marker-end="url(#ProcessOnMarker1142)"/><g id="ProcessOnG1144" transform="matrix(1.0,0.0,0.0,1.0,932.5338704231707,322.4151653246705)"><path id="ProcessOnPath1145" d="M0 0H90.0V22.5H0Z" fill="#fff" transform="matrix(1.0,0.0,0.0,1.0,-45.0,0.0)"/><text id="ProcessOnText1146" fill="#323232" font-weight="normal" font-style="normal" text-decoration="blink" font-family="Arial,宋体" text-anchor="middle" font-size="18" x="0.0" y="18.45">《include》</text></g></g><g id="ProcessOnG1147"><path id="ProcessOnPath1148" d="M608.03125 610.515625L790.3819667015096 853.3325062474408" stroke="#323232" stroke-width="2.0" stroke-dasharray="10.0 4.0" fill="none" marker-end="url(#ProcessOnMarker1149)"/><g id="ProcessOnG1151" transform="matrix(1.0,0.0,0.0,1.0,699.2066083507548,720.6740656237205)"><path id="ProcessOnPath1152" d="M0 0H90.0V22.5H0Z" fill="#fff" transform="matrix(1.0,0.0,0.0,1.0,-45.0,0.0)"/><text id="ProcessOnText1153" fill="#323232" font-weight="normal" font-style="normal" text-decoration="blink" font-family="Arial,宋体" text-anchor="middle" font-size="18" x="0.0" y="18.45">《include》</text></g></g><g id="ProcessOnG1154"><path id="ProcessOnPath1155" d="M1051.53125 206.515625L1356.3418176957985 151.23451793759378" stroke="#323232" stroke-width="2.0" stroke-dasharray="10.0 4.0" fill="none" marker-end="url(#ProcessOnMarker1156)"/><g id="ProcessOnG1158" transform="matrix(1.0,0.0,0.0,1.0,1203.9365338478992,167.62507146879688)"><path id="ProcessOnPath1159" d="M0 0H90.0V22.5H0Z" fill="#fff" transform="matrix(1.0,0.0,0.0,1.0,-45.0,0.0)"/><text id="ProcessOnText1160" fill="#323232" font-weight="normal" font-style="normal" text-decoration="blink" font-family="Arial,宋体" text-anchor="middle" font-size="18" x="0.0" y="18.45">《include》</text></g></g><g id="ProcessOnG1161"><path id="ProcessOnPath1162" d="M1051.53125 206.515625L1379.3381663991188 242.00087543930033" stroke="#323232" stroke-width="2.0" stroke-dasharray="10.0 4.0" fill="none" marker-end="url(#ProcessOnMarker1163)"/><g id="ProcessOnG1165" transform="matrix(1.0,0.0,0.0,1.0,1215.4347081995593,213.00825021965017)"><path id="ProcessOnPath1166" d="M0 0H90.0V22.5H0Z" fill="#fff" transform="matrix(1.0,0.0,0.0,1.0,-45.0,0.0)"/><text id="ProcessOnText1167" fill="#323232" font-weight="normal" font-style="normal" text-decoration="blink" font-family="Arial,宋体" text-anchor="middle" font-size="18" x="0.0" y="18.45">《include》</text></g></g><g id="ProcessOnG1168"><path id="ProcessOnPath1169" d="M1051.53125 206.515625L1369.23018289035 323.26041359223706" stroke="#323232" stroke-width="2.0" stroke-dasharray="10.0 4.0" fill="none" marker-end="url(#ProcessOnMarker1170)"/><g id="ProcessOnG1172" transform="matrix(1.0,0.0,0.0,1.0,1210.380716445175,253.6380192961185)"><path id="ProcessOnPath1173" d="M0 0H90.0V22.5H0Z" fill="#fff" transform="matrix(1.0,0.0,0.0,1.0,-45.0,0.0)"/><text id="ProcessOnText1174" fill="#323232" font-weight="normal" font-style="normal" text-decoration="blink" font-family="Arial,宋体" text-anchor="middle" font-size="18" x="0.0" y="18.45">《include》</text></g></g><g id="ProcessOnG1175"><path id="ProcessOnPath1176" d="M1051.53125 206.515625L1384.825899293298 427.106592306836" stroke="#323232" stroke-width="2.0" stroke-dasharray="10.0 4.0" fill="none" marker-end="url(#ProcessOnMarker1177)"/><g id="ProcessOnG1179" transform="matrix(1.0,0.0,0.0,1.0,1218.178574646649,305.561108653418)"><path id="ProcessOnPath1180" d="M0 0H90.0V22.5H0Z" fill="#fff" transform="matrix(1.0,0.0,0.0,1.0,-45.0,0.0)"/><text id="ProcessOnText1181" fill="#323232" font-weight="normal" font-style="normal" text-decoration="blink" font-family="Arial,宋体" text-anchor="middle" font-size="18" x="0.0" y="18.45">《include》</text></g></g><g id="ProcessOnG1182"><path id="ProcessOnPath1183" d="M859.53125 320.515625L951.8055212983813 431.7875403892246" stroke="#323232" stroke-width="2.0" stroke-dasharray="10.0 4.0" fill="none" marker-end="url(#ProcessOnMarker1184)"/><g id="ProcessOnG1186" transform="matrix(1.0,0.0,0.0,1.0,905.6683856491907,364.90158269461233)"><path id="ProcessOnPath1187" d="M0 0H90.0V22.5H0Z" fill="#fff" transform="matrix(1.0,0.0,0.0,1.0,-45.0,0.0)"/><text id="ProcessOnText1188" fill="#323232" font-weight="normal" font-style="normal" text-decoration="blink" font-family="Arial,宋体" text-anchor="middle" font-size="18" x="0.0" y="18.45">《include》</text></g></g><g id="ProcessOnG1189"><path id="ProcessOnPath1190" d="M955.53125 965.515625L1092.2951820225003 965.515625" stroke="#323232" stroke-width="2.0" stroke-dasharray="10.0 4.0" fill="none" marker-end="url(#ProcessOnMarker1191)"/><g id="ProcessOnG1193" transform="matrix(1.0,0.0,0.0,1.0,1023.9132160112501,954.265625)"><path id="ProcessOnPath1194" d="M0 0H90.0V22.5H0Z" fill="#fff" transform="matrix(1.0,0.0,0.0,1.0,-45.0,0.0)"/><text id="ProcessOnText1195" fill="#323232" font-weight="normal" font-style="normal" text-decoration="blink" font-family="Arial,宋体" text-anchor="middle" font-size="18" x="0.0" y="18.45">《include》</text></g></g><g id="ProcessOnG1196"><path id="ProcessOnPath1197" d="M856.53125 443.515625L993.9381466607174 585.5646465479039" stroke="#323232" stroke-width="2.0" stroke-dasharray="10.0 4.0" fill="none" marker-end="url(#ProcessOnMarker1198)"/><g id="ProcessOnG1200" transform="matrix(1.0,0.0,0.0,1.0,925.2346983303587,503.290135773952)"><path id="ProcessOnPath1201" d="M0 0H90.0V22.5H0Z" fill="#fff" transform="matrix(1.0,0.0,0.0,1.0,-45.0,0.0)"/><text id="ProcessOnText1202" fill="#323232" font-weight="normal" font-style="normal" text-decoration="blink" font-family="Arial,宋体" text-anchor="middle" font-size="18" x="0.0" y="18.45">《include》</text></g></g><g id="ProcessOnG1203"><path id="ProcessOnPath1204" d="M1160.53125 596.515625L1309.4975594581415 571.9906838087206" stroke="#323232" stroke-width="2.0" stroke-dasharray="10.0 4.0" fill="none" marker-end="url(#ProcessOnMarker1205)"/><g id="ProcessOnG1207" transform="matrix(1.0,0.0,0.0,1.0,1235.0144047290707,573.0031544043603)"><path id="ProcessOnPath1208" d="M0 0H90.0V22.5H0Z" fill="#fff" transform="matrix(1.0,0.0,0.0,1.0,-45.0,0.0)"/><text id="ProcessOnText1209" fill="#323232" font-weight="normal" font-style="normal" text-decoration="blink" font-family="Arial,宋体" text-anchor="middle" font-size="18" x="0.0" y="18.45">《include》</text></g></g><g id="ProcessOnG1210"><path id="ProcessOnPath1211" d="M608.03125 610.515625L792.2976985668731 952.1061693406788" stroke="#323232" stroke-width="2.0" stroke-dasharray="10.0 4.0" fill="none" marker-end="url(#ProcessOnMarker1212)"/><g id="ProcessOnG1214" transform="matrix(1.0,0.0,0.0,1.0,700.1644742834366,770.0608971703393)"><path id="ProcessOnPath1215" d="M0 0H90.0V22.5H0Z" fill="#fff" transform="matrix(1.0,0.0,0.0,1.0,-45.0,0.0)"/><text id="ProcessOnText1216" fill="#323232" font-weight="normal" font-style="normal" text-decoration="blink" font-family="Arial,宋体" text-anchor="middle" font-size="18" x="0.0" y="18.45">《include》</text></g></g><g id="ProcessOnG1217"><path id="ProcessOnPath1218" d="M856.53125 443.515625L996.8831725864824 685.3381943213041" stroke="#323232" stroke-width="2.0" stroke-dasharray="10.0 4.0" fill="none" marker-end="url(#ProcessOnMarker1219)"/><g id="ProcessOnG1221" transform="matrix(1.0,0.0,0.0,1.0,926.7072112932412,553.176909660652)"><path id="ProcessOnPath1222" d="M0 0H90.0V22.5H0Z" fill="#fff" transform="matrix(1.0,0.0,0.0,1.0,-45.0,0.0)"/><text id="ProcessOnText1223" fill="#323232" font-weight="normal" font-style="normal" text-decoration="blink" font-family="Arial,宋体" text-anchor="middle" font-size="18" x="0.0" y="18.45">《include》</text></g></g><g id="ProcessOnG1224"><path id="ProcessOnPath1225" d="M1160.53125 596.515625L1333.8024646745525 679.9081882123514" stroke="#323232" stroke-width="2.0" stroke-dasharray="10.0 4.0" fill="none" marker-end="url(#ProcessOnMarker1226)"/><g id="ProcessOnG1228" transform="matrix(1.0,0.0,0.0,1.0,1247.1668573372763,626.9619066061757)"><path id="ProcessOnPath1229" d="M0 0H90.0V22.5H0Z" fill="#fff" transform="matrix(1.0,0.0,0.0,1.0,-45.0,0.0)"/><text id="ProcessOnText1230" fill="#323232" font-weight="normal" font-style="normal" text-decoration="blink" font-family="Arial,宋体" text-anchor="middle" font-size="18" x="0.0" y="18.45">《include》</text></g></g><g id="ProcessOnG1231"><path id="ProcessOnPath1232" d="M608.03125 610.515625L793.5764141532002 1047.4914424051867" stroke="#323232" stroke-width="2.0" stroke-dasharray="10.0 4.0" fill="none" marker-end="url(#ProcessOnMarker1233)"/><g id="ProcessOnG1235" transform="matrix(1.0,0.0,0.0,1.0,700.8038320766001,817.7535337025934)"><path id="ProcessOnPath1236" d="M0 0H90.0V22.5H0Z" fill="#fff" transform="matrix(1.0,0.0,0.0,1.0,-45.0,0.0)"/><text id="ProcessOnText1237" fill="#323232" font-weight="normal" font-style="normal" text-decoration="blink" font-family="Arial,宋体" text-anchor="middle" font-size="18" x="0.0" y="18.45">《include》</text></g></g><g id="ProcessOnG1238"><path id="ProcessOnPath1239" d="M345.0 1263.3333740234375L659.53125 1211.3333740234375" stroke="#323232" stroke-width="2.0" stroke-dasharray="none" fill="none"/></g><g id="ProcessOnG1240"><path id="ProcessOnPath1241" d="M345.0 1263.3333740234375L659.53125 1351.3333740234375" stroke="#323232" stroke-width="2.0" stroke-dasharray="none" fill="none"/></g><g id="ProcessOnG1242"><path id="ProcessOnPath1243" d="M342.0 610.515625L508.03125 610.515625" stroke="#323232" stroke-width="2.0" stroke-dasharray="none" fill="none"/></g><g id="ProcessOnG1244" transform="matrix(1.0,0.0,0.0,1.0,896.78125,88.0)" opacity="1.0"><path id="ProcessOnPath1245" d="M0.0 0.0L160.0 0.0L160.0 40.0L0.0 40.0Z" stroke="#323232" stroke-width="0.0" stroke-dasharray="none" fill="none"/><g id="ProcessOnG1246" transform="matrix(1.0,0.0,0.0,1.0,0.0,8.75)"><text id="ProcessOnText1247" fill="#323232" font-weight="normal" font-style="normal" text-decoration="blink" font-family="Arial,宋体" text-anchor="middle" font-size="18" x="80.0" y="18.45">爱比价网</text></g></g></g></g></svg>