<svg xmlns="http://www.w3.org/2000/svg" xmlns:xlink="http://www.w3.org/1999/xlink" id="processonSvg1000" viewBox="104.03125 102.515625 1524.0 1292.5" width="1524.0" height="1292.5"><defs id="ProcessOnDefs1001"><marker id="ProcessOnMarker1135" markerUnits="userSpaceOnUse" orient="auto" markerWidth="14.289086868996552" markerHeight="19.055054660878554" viewBox="-0.5877852522924731 -0.8090169943749475 14.289086868996552 19.055054660878554" refX="12.0" refY="8.71851033606433"><path id="ProcessOnPath1136" d="M0 0L12.0 8.71851033606433L0 17.43702067212866" stroke="#323232" stroke-width="2.0" fill="none" transform="matrix(1.0,0.0,0.0,1.0,0.0,0.0)"/></marker><marker id="ProcessOnMarker1139" markerUnits="userSpaceOnUse" orient="auto" markerWidth="14.289086868996552" markerHeight="19.055054660878554" viewBox="-0.5877852522924731 -0.8090169943749475 14.289086868996552 19.055054660878554" refX="12.0" refY="8.71851033606433"><path id="ProcessOnPath1140" d="M0 0L12.0 8.71851033606433L0 17.43702067212866" stroke="#323232" stroke-width="2.0" fill="none" transform="matrix(1.0,0.0,0.0,1.0,0.0,0.0)"/></marker><marker id="ProcessOnMarker1143" markerUnits="userSpaceOnUse" orient="auto" markerWidth="14.289086868996552" markerHeight="19.055054660878554" viewBox="-0.5877852522924731 -0.8090169943749475 14.289086868996552 19.055054660878554" refX="12.0" refY="8.71851033606433"><path id="ProcessOnPath1144" d="M0 0L12.0 8.71851033606433L0 17.43702067212866" stroke="#323232" stroke-width="2.0" fill="none" transform="matrix(1.0,0.0,0.0,1.0,0.0,0.0)"/></marker><marker id="ProcessOnMarker1147" markerUnits="userSpaceOnUse" orient="auto" markerWidth="14.289086868996552" markerHeight="19.055054660878554" viewBox="-0.5877852522924731 -0.8090169943749475 14.289086868996552 19.055054660878554" refX="12.0" refY="8.71851033606433"><path id="ProcessOnPath1148" d="M0 0L12.0 8.71851033606433L0 17.43702067212866" stroke="#323232" stroke-width="2.0" fill="none" transform="matrix(1.0,0.0,0.0,1.0,0.0,0.0)"/></marker></defs><g id="ProcessOnG1002"><path id="ProcessOnPath1003" d="M104.03125 102.515625H1628.03125V1395.015625H104.03125V102.515625Z" fill="none"/><g id="ProcessOnG1004"><g id="ProcessOnG1005" transform="matrix(1.0,0.0,0.0,1.0,588.03125,122.515625)" opacity="1.0"><path id="ProcessOnPath1006" d="M0.0 4.0Q0.0 0.0 4.0 0.0L531.0 0.0Q535.0 0.0 535.0 4.0L535.0 154.0Q535.0 158.0 531.0 158.0L4.0 158.0Q0.0 158.0 0.0 154.0Z" stroke="#323232" stroke-width="2.0" stroke-dasharray="none" opacity="1.0" fill="#ffffff"/><path id="ProcessOnPath1007" d="M0.0 25.0L160.5 25.0L168.5 17.0L168.5 0.0" stroke="#323232" stroke-width="2.0" stroke-dasharray="none" opacity="1.0" fill="#ffffff"/><path id="ProcessOnPath1008" d="M0.0 0.0L535.0 0.0L535.0 158.0L0.0 158.0Z" stroke="#323232" stroke-width="0.0" stroke-dasharray="none" opacity="1.0" fill="none"/><g id="ProcessOnG1009" transform="matrix(1.0,0.0,0.0,1.0,10.0,30.0)"><text id="ProcessOnText1010" fill="#000000" font-weight="normal" font-style="normal" text-decoration="blink" font-family="微软雅黑" text-anchor="start" font-size="13" x="0.0" y="13.325">Gateway</text></g><g id="ProcessOnG1011" transform="matrix(1.0,0.0,0.0,1.0,10.0,0.0)"><text id="ProcessOnText1012" fill="#000000" font-weight="normal" font-style="normal" text-decoration="blink" font-family="微软雅黑" text-anchor="start" font-size="13" x="0.0" y="13.325">《subsystem》</text></g></g><g id="ProcessOnG1013" transform="matrix(1.0,0.0,0.0,1.0,783.03125,173.015625)" opacity="1.0"><path id="ProcessOnPath1014" d="M0.0 0.0L167.0 0.0L167.0 77.0L0.0 77.0Z" stroke="#323232" stroke-width="2.0" stroke-dasharray="none" opacity="1.0" fill="#ffffff"/><g id="ProcessOnG1015" transform="matrix(1.0,0.0,0.0,1.0,10.0,30.375)"><text id="ProcessOnText1016" fill="#000000" font-weight="normal" font-style="normal" text-decoration="blink" font-family="微软雅黑" text-anchor="middle" font-size="13" x="73.5" y="13.325">Gateway</text></g></g><g id="ProcessOnG1017" transform="matrix(1.0,0.0,0.0,1.0,124.03125,339.515625)" opacity="1.0"><path id="ProcessOnPath1018" d="M0.0 4.0Q0.0 0.0 4.0 0.0L670.0 0.0Q674.0 0.0 674.0 4.0L674.0 531.0Q674.0 535.0 670.0 535.0L4.0 535.0Q0.0 535.0 0.0 531.0Z" stroke="#323232" stroke-width="2.0" stroke-dasharray="none" opacity="1.0" fill="#ffffff"/><path id="ProcessOnPath1019" d="M0.0 25.0L202.2 25.0L210.2 17.0L210.2 0.0" stroke="#323232" stroke-width="2.0" stroke-dasharray="none" opacity="1.0" fill="#ffffff"/><path id="ProcessOnPath1020" d="M0.0 0.0L674.0 0.0L674.0 535.0L0.0 535.0Z" stroke="#323232" stroke-width="0.0" stroke-dasharray="none" opacity="1.0" fill="none"/><g id="ProcessOnG1021" transform="matrix(1.0,0.0,0.0,1.0,10.0,30.0)"><text id="ProcessOnText1022" fill="#000000" font-weight="normal" font-style="normal" text-decoration="blink" font-family="微软雅黑" text-anchor="start" font-size="13" x="0.0" y="13.325">Search</text></g><g id="ProcessOnG1023" transform="matrix(1.0,0.0,0.0,1.0,10.0,0.0)"><text id="ProcessOnText1024" fill="#000000" font-weight="normal" font-style="normal" text-decoration="blink" font-family="微软雅黑" text-anchor="start" font-size="13" x="0.0" y="13.325">《subsystem》</text></g></g><g id="ProcessOnG1025" transform="matrix(1.0,0.0,0.0,1.0,164.03125,417.015625)" opacity="1.0"><path id="ProcessOnPath1026" d="M0.0 0.0L167.0 0.0L167.0 77.0L0.0 77.0Z" stroke="#323232" stroke-width="2.0" stroke-dasharray="none" opacity="1.0" fill="#ffffff"/><g id="ProcessOnG1027" transform="matrix(1.0,0.0,0.0,1.0,10.0,30.375)"><text id="ProcessOnText1028" fill="#000000" font-weight="normal" font-style="normal" text-decoration="blink" font-family="微软雅黑" text-anchor="middle" font-size="13" x="73.5" y="13.325">SearchServer</text></g></g><g id="ProcessOnG1029" transform="matrix(1.0,0.0,0.0,1.0,343.03125,417.015625)" opacity="1.0"><path id="ProcessOnPath1030" d="M0.0 0.0L167.0 0.0L167.0 77.0L0.0 77.0Z" stroke="#323232" stroke-width="2.0" stroke-dasharray="none" opacity="1.0" fill="#ffffff"/><g id="ProcessOnG1031" transform="matrix(1.0,0.0,0.0,1.0,10.0,30.375)"><text id="ProcessOnText1032" fill="#000000" font-weight="normal" font-style="normal" text-decoration="blink" font-family="微软雅黑" text-anchor="middle" font-size="13" x="73.5" y="13.325">Ranker</text></g></g><g id="ProcessOnG1033" transform="matrix(1.0,0.0,0.0,1.0,548.03125,414.015625)" opacity="1.0"><path id="ProcessOnPath1034" d="M0.0 0.0L204.0 0.0L204.0 92.5L0.0 92.5Z" stroke="#323232" stroke-width="2.0" stroke-dasharray="none" opacity="1.0" fill="#ffffff"/><g id="ProcessOnG1035" transform="matrix(1.0,0.0,0.0,1.0,10.0,38.125)"><text id="ProcessOnText1036" fill="#000000" font-weight="normal" font-style="normal" text-decoration="blink" font-family="微软雅黑" text-anchor="middle" font-size="13" x="92.0" y="13.325">SearchResultPages</text></g></g><g id="ProcessOnG1037" transform="matrix(1.0,0.0,0.0,1.0,164.03125,523.015625)" opacity="1.0"><path id="ProcessOnPath1038" d="M0.0 0.0L167.0 0.0L167.0 77.0L0.0 77.0Z" stroke="#323232" stroke-width="2.0" stroke-dasharray="none" opacity="1.0" fill="#ffffff"/><g id="ProcessOnG1039" transform="matrix(1.0,0.0,0.0,1.0,10.0,30.375)"><text id="ProcessOnText1040" fill="#000000" font-weight="normal" font-style="normal" text-decoration="blink" font-family="微软雅黑" text-anchor="middle" font-size="13" x="73.5" y="13.325">CacheService</text></g></g><g id="ProcessOnG1041" transform="matrix(1.0,0.0,0.0,1.0,364.03125,530.015625)" opacity="1.0"><path id="ProcessOnPath1042" d="M0.0 0.0L167.0 0.0L167.0 77.0L0.0 77.0Z" stroke="#323232" stroke-width="2.0" stroke-dasharray="none" opacity="1.0" fill="#ffffff"/><g id="ProcessOnG1043" transform="matrix(1.0,0.0,0.0,1.0,10.0,30.375)"><text id="ProcessOnText1044" fill="#000000" font-weight="normal" font-style="normal" text-decoration="blink" font-family="微软雅黑" text-anchor="middle" font-size="13" x="73.5" y="13.325">KeyCompare</text></g></g><g id="ProcessOnG1045" transform="matrix(1.0,0.0,0.0,1.0,575.03125,533.015625)" opacity="1.0"><path id="ProcessOnPath1046" d="M0.0 0.0L167.0 0.0L167.0 77.0L0.0 77.0Z" stroke="#323232" stroke-width="2.0" stroke-dasharray="none" opacity="1.0" fill="#ffffff"/><g id="ProcessOnG1047" transform="matrix(1.0,0.0,0.0,1.0,10.0,30.375)"><text id="ProcessOnText1048" fill="#000000" font-weight="normal" font-style="normal" text-decoration="blink" font-family="微软雅黑" text-anchor="middle" font-size="13" x="73.5" y="13.325">CacheDB</text></g></g><g id="ProcessOnG1049" transform="matrix(1.0,0.0,0.0,1.0,161.03125,634.015625)" opacity="1.0"><path id="ProcessOnPath1050" d="M0.0 0.0L167.0 0.0L167.0 77.0L0.0 77.0Z" stroke="#323232" stroke-width="2.0" stroke-dasharray="none" opacity="1.0" fill="#ffffff"/><g id="ProcessOnG1051" transform="matrix(1.0,0.0,0.0,1.0,10.0,30.375)"><text id="ProcessOnText1052" fill="#000000" font-weight="normal" font-style="normal" text-decoration="blink" font-family="微软雅黑" text-anchor="middle" font-size="13" x="73.5" y="13.325">GoodsInfoServer</text></g></g><g id="ProcessOnG1053" transform="matrix(1.0,0.0,0.0,1.0,364.03125,637.015625)" opacity="1.0"><path id="ProcessOnPath1054" d="M0.0 0.0L227.0 0.0L227.0 80.5L0.0 80.5Z" stroke="#323232" stroke-width="2.0" stroke-dasharray="none" opacity="1.0" fill="#ffffff"/><g id="ProcessOnG1055" transform="matrix(1.0,0.0,0.0,1.0,10.0,32.125)"><text id="ProcessOnText1056" fill="#000000" font-weight="normal" font-style="normal" text-decoration="blink" font-family="微软雅黑" text-anchor="middle" font-size="13" x="103.5" y="13.325">SearchEngineAdapter</text></g></g><g id="ProcessOnG1057" transform="matrix(1.0,0.0,0.0,1.0,161.03125,749.015625)" opacity="1.0"><path id="ProcessOnPath1058" d="M0.0 0.0L204.0 0.0L204.0 92.5L0.0 92.5Z" stroke="#323232" stroke-width="2.0" stroke-dasharray="none" opacity="1.0" fill="#ffffff"/><g id="ProcessOnG1059" transform="matrix(1.0,0.0,0.0,1.0,10.0,38.125)"><text id="ProcessOnText1060" fill="#000000" font-weight="normal" font-style="normal" text-decoration="blink" font-family="微软雅黑" text-anchor="middle" font-size="13" x="92.0" y="13.325">SearchFilterService</text></g></g><g id="ProcessOnG1061" transform="matrix(1.0,0.0,0.0,1.0,395.03125,756.765625)" opacity="1.0"><path id="ProcessOnPath1062" d="M0.0 0.0L224.0 0.0L224.0 77.0L0.0 77.0Z" stroke="#323232" stroke-width="2.0" stroke-dasharray="none" opacity="1.0" fill="#ffffff"/><g id="ProcessOnG1063" transform="matrix(1.0,0.0,0.0,1.0,10.0,30.375)"><text id="ProcessOnText1064" fill="#000000" font-weight="normal" font-style="normal" text-decoration="blink" font-family="微软雅黑" text-anchor="middle" font-size="13" x="102.0" y="13.325">SearchResultFilter</text></g></g><g id="ProcessOnG1065" transform="matrix(1.0,0.0,0.0,1.0,820.03125,806.015625)" opacity="1.0"><path id="ProcessOnPath1066" d="M0.0 4.0Q0.0 0.0 4.0 0.0L547.0 0.0Q551.0 0.0 551.0 4.0L551.0 565.0Q551.0 569.0 547.0 569.0L4.0 569.0Q0.0 569.0 0.0 565.0Z" stroke="#323232" stroke-width="2.0" stroke-dasharray="none" opacity="1.0" fill="#ffffff"/><path id="ProcessOnPath1067" d="M0.0 25.0L165.29999999999998 25.0L173.29999999999998 17.0L173.29999999999998 0.0" stroke="#323232" stroke-width="2.0" stroke-dasharray="none" opacity="1.0" fill="#ffffff"/><path id="ProcessOnPath1068" d="M0.0 0.0L551.0 0.0L551.0 569.0L0.0 569.0Z" stroke="#323232" stroke-width="0.0" stroke-dasharray="none" opacity="1.0" fill="none"/><g id="ProcessOnG1069" transform="matrix(1.0,0.0,0.0,1.0,10.0,30.0)"><text id="ProcessOnText1070" fill="#000000" font-weight="normal" font-style="normal" text-decoration="blink" font-family="微软雅黑" text-anchor="start" font-size="13" x="0.0" y="13.325">Comment</text></g><g id="ProcessOnG1071" transform="matrix(1.0,0.0,0.0,1.0,10.0,0.0)"><text id="ProcessOnText1072" fill="#000000" font-weight="normal" font-style="normal" text-decoration="blink" font-family="微软雅黑" text-anchor="start" font-size="13" x="0.0" y="13.325">《subsystem》</text></g></g><g id="ProcessOnG1073" transform="matrix(1.0,0.0,0.0,1.0,856.03125,897.515625)" opacity="1.0"><path id="ProcessOnPath1074" d="M0.0 0.0L188.0 0.0L188.0 74.5L0.0 74.5Z" stroke="#323232" stroke-width="2.0" stroke-dasharray="none" opacity="1.0" fill="#ffffff"/><g id="ProcessOnG1075" transform="matrix(1.0,0.0,0.0,1.0,10.0,29.125)"><text id="ProcessOnText1076" fill="#000000" font-weight="normal" font-style="normal" text-decoration="blink" font-family="微软雅黑" text-anchor="middle" font-size="13" x="84.0" y="13.325">CommentServer</text></g></g><g id="ProcessOnG1077" transform="matrix(1.0,0.0,0.0,1.0,1074.03125,894.515625)" opacity="1.0"><path id="ProcessOnPath1078" d="M0.0 0.0L259.0 0.0L259.0 80.5L0.0 80.5Z" stroke="#323232" stroke-width="2.0" stroke-dasharray="none" opacity="1.0" fill="#ffffff"/><g id="ProcessOnG1079" transform="matrix(1.0,0.0,0.0,1.0,10.0,32.125)"><text id="ProcessOnText1080" fill="#000000" font-weight="normal" font-style="normal" text-decoration="blink" font-family="微软雅黑" text-anchor="middle" font-size="13" x="119.5" y="13.325">CommentDataService</text></g></g><g id="ProcessOnG1081" transform="matrix(1.0,0.0,0.0,1.0,845.03125,1018.265625)" opacity="1.0"><path id="ProcessOnPath1082" d="M0.0 0.0L205.0 0.0L205.0 80.5L0.0 80.5Z" stroke="#323232" stroke-width="2.0" stroke-dasharray="none" opacity="1.0" fill="#ffffff"/><g id="ProcessOnG1083" transform="matrix(1.0,0.0,0.0,1.0,10.0,32.125)"><text id="ProcessOnText1084" fill="#000000" font-weight="normal" font-style="normal" text-decoration="blink" font-family="微软雅黑" text-anchor="middle" font-size="13" x="92.5" y="13.325">CommentPages</text></g></g><g id="ProcessOnG1085" transform="matrix(1.0,0.0,0.0,1.0,1084.03125,1018.265625)" opacity="1.0"><path id="ProcessOnPath1086" d="M0.0 0.0L205.0 0.0L205.0 80.5L0.0 80.5Z" stroke="#323232" stroke-width="2.0" stroke-dasharray="none" opacity="1.0" fill="#ffffff"/><g id="ProcessOnG1087" transform="matrix(1.0,0.0,0.0,1.0,10.0,32.125)"><text id="ProcessOnText1088" fill="#000000" font-weight="normal" font-style="normal" text-decoration="blink" font-family="微软雅黑" text-anchor="middle" font-size="13" x="92.5" y="13.325">CommentDB</text></g></g><g id="ProcessOnG1089" transform="matrix(1.0,0.0,0.0,1.0,847.53125,1127.765625)" opacity="1.0"><path id="ProcessOnPath1090" d="M0.0 0.0L259.5 0.0L259.5 84.25L0.0 84.25Z" stroke="#323232" stroke-width="2.0" stroke-dasharray="none" opacity="1.0" fill="#ffffff"/><g id="ProcessOnG1091" transform="matrix(1.0,0.0,0.0,1.0,10.0,34.0)"><text id="ProcessOnText1092" fill="#000000" font-weight="normal" font-style="normal" text-decoration="blink" font-family="微软雅黑" text-anchor="middle" font-size="13" x="119.75" y="13.325">CommentNotifierServer</text></g></g><g id="ProcessOnG1093" transform="matrix(1.0,0.0,0.0,1.0,1138.53125,1127.765625)" opacity="1.0"><path id="ProcessOnPath1094" d="M0.0 0.0L150.5 0.0L150.5 78.25L0.0 78.25Z" stroke="#323232" stroke-width="2.0" stroke-dasharray="none" opacity="1.0" fill="#ffffff"/><g id="ProcessOnG1095" transform="matrix(1.0,0.0,0.0,1.0,10.0,31.0)"><text id="ProcessOnText1096" fill="#000000" font-weight="normal" font-style="normal" text-decoration="blink" font-family="微软雅黑" text-anchor="middle" font-size="13" x="65.25" y="13.325">Notifier</text></g></g><g id="ProcessOnG1097" transform="matrix(1.0,0.0,0.0,1.0,1148.03125,473.015625)" opacity="1.0"><path id="ProcessOnPath1098" d="M0.0 4.0Q0.0 0.0 4.0 0.0L456.0 0.0Q460.0 0.0 460.0 4.0L460.0 231.0Q460.0 235.0 456.0 235.0L4.0 235.0Q0.0 235.0 0.0 231.0Z" stroke="#323232" stroke-width="2.0" stroke-dasharray="none" opacity="1.0" fill="#ffffff"/><path id="ProcessOnPath1099" d="M0.0 25.0L138.0 25.0L146.0 17.0L146.0 0.0" stroke="#323232" stroke-width="2.0" stroke-dasharray="none" opacity="1.0" fill="#ffffff"/><path id="ProcessOnPath1100" d="M0.0 0.0L460.0 0.0L460.0 235.0L0.0 235.0Z" stroke="#323232" stroke-width="0.0" stroke-dasharray="none" opacity="1.0" fill="none"/><g id="ProcessOnG1101" transform="matrix(1.0,0.0,0.0,1.0,10.0,30.0)"><text id="ProcessOnText1102" fill="#000000" font-weight="normal" font-style="normal" text-decoration="blink" font-family="微软雅黑" text-anchor="start" font-size="13" x="0.0" y="13.325">StaticContent</text></g><g id="ProcessOnG1103" transform="matrix(1.0,0.0,0.0,1.0,10.0,0.0)"><text id="ProcessOnText1104" fill="#000000" font-weight="normal" font-style="normal" text-decoration="blink" font-family="微软雅黑" text-anchor="start" font-size="13" x="0.0" y="13.325">《subsystem》</text></g></g><g id="ProcessOnG1105" transform="matrix(1.0,0.0,0.0,1.0,1184.03125,573.015625)" opacity="1.0"><path id="ProcessOnPath1106" d="M0.0 0.0L178.5 0.0L178.5 79.0L0.0 79.0Z" stroke="#323232" stroke-width="2.0" stroke-dasharray="none" opacity="1.0" fill="#ffffff"/><g id="ProcessOnG1107" transform="matrix(1.0,0.0,0.0,1.0,10.0,31.375)"><text id="ProcessOnText1108" fill="#000000" font-weight="normal" font-style="normal" text-decoration="blink" font-family="微软雅黑" text-anchor="middle" font-size="13" x="79.25" y="13.325">ContentServer</text></g></g><g id="ProcessOnG1109" transform="matrix(1.0,0.0,0.0,1.0,1401.03125,571.515625)" opacity="1.0"><path id="ProcessOnPath1110" d="M0.0 0.0L164.5 0.0L164.5 82.0L0.0 82.0Z" stroke="#323232" stroke-width="2.0" stroke-dasharray="none" opacity="1.0" fill="#ffffff"/><g id="ProcessOnG1111" transform="matrix(1.0,0.0,0.0,1.0,10.0,32.875)"><text id="ProcessOnText1112" fill="#000000" font-weight="normal" font-style="normal" text-decoration="blink" font-family="微软雅黑" text-anchor="middle" font-size="13" x="72.25" y="13.325">staticFiles</text></g></g><g id="ProcessOnG1113" transform="matrix(1.0,0.0,0.0,1.0,896.53125,1243.765625)" opacity="1.0"><path id="ProcessOnPath1114" d="M0.0 0.0L150.5 0.0L150.5 78.25L0.0 78.25Z" stroke="#323232" stroke-width="2.0" stroke-dasharray="none" opacity="1.0" fill="#ffffff"/><g id="ProcessOnG1115" transform="matrix(1.0,0.0,0.0,1.0,10.0,31.0)"><text id="ProcessOnText1116" fill="#000000" font-weight="normal" font-style="normal" text-decoration="blink" font-family="微软雅黑" text-anchor="middle" font-size="13" x="65.25" y="13.325">Message</text></g></g><g id="ProcessOnG1117" transform="matrix(1.0,0.0,0.0,1.0,1118.53125,1243.765625)" opacity="1.0"><path id="ProcessOnPath1118" d="M0.0 0.0L150.5 0.0L150.5 78.25L0.0 78.25Z" stroke="#323232" stroke-width="2.0" stroke-dasharray="none" opacity="1.0" fill="#ffffff"/><g id="ProcessOnG1119" transform="matrix(1.0,0.0,0.0,1.0,10.0,31.0)"><text id="ProcessOnText1120" fill="#000000" font-weight="normal" font-style="normal" text-decoration="blink" font-family="微软雅黑" text-anchor="middle" font-size="13" x="65.25" y="13.325">DBProxy</text></g></g><g id="ProcessOnG1121" transform="matrix(1.0,0.0,0.0,1.0,208.03125,953.640625)" opacity="1.0"><path id="ProcessOnPath1122" d="M0.0 4.0Q0.0 0.0 4.0 0.0L453.0 0.0Q457.0 0.0 457.0 4.0L457.0 205.75Q457.0 209.75 453.0 209.75L4.0 209.75Q0.0 209.75 0.0 205.75Z" stroke="#323232" stroke-width="2.0" stroke-dasharray="none" opacity="1.0" fill="#ffffff"/><path id="ProcessOnPath1123" d="M0.0 25.0L137.1 25.0L145.1 17.0L145.1 0.0" stroke="#323232" stroke-width="2.0" stroke-dasharray="none" opacity="1.0" fill="#ffffff"/><path id="ProcessOnPath1124" d="M0.0 0.0L457.0 0.0L457.0 209.75L0.0 209.75Z" stroke="#323232" stroke-width="0.0" stroke-dasharray="none" opacity="1.0" fill="none"/><g id="ProcessOnG1125" transform="matrix(1.0,0.0,0.0,1.0,10.0,30.0)"><text id="ProcessOnText1126" fill="#000000" font-weight="normal" font-style="normal" text-decoration="blink" font-family="微软雅黑" text-anchor="start" font-size="13" x="0.0" y="13.325">Monitor</text></g><g id="ProcessOnG1127" transform="matrix(1.0,0.0,0.0,1.0,10.0,0.0)"><text id="ProcessOnText1128" fill="#000000" font-weight="normal" font-style="normal" text-decoration="blink" font-family="微软雅黑" text-anchor="start" font-size="13" x="0.0" y="13.325">《subsystem》</text></g></g><g id="ProcessOnG1129" transform="matrix(1.0,0.0,0.0,1.0,359.03125,1029.640625)" opacity="1.0"><path id="ProcessOnPath1130" d="M0.0 0.0L178.5 0.0L178.5 79.0L0.0 79.0Z" stroke="#323232" stroke-width="2.0" stroke-dasharray="none" opacity="1.0" fill="#ffffff"/><g id="ProcessOnG1131" transform="matrix(1.0,0.0,0.0,1.0,10.0,31.375)"><text id="ProcessOnText1132" fill="#000000" font-weight="normal" font-style="normal" text-decoration="blink" font-family="微软雅黑" text-anchor="middle" font-size="13" x="79.25" y="13.325">Monitor</text></g></g><g id="ProcessOnG1133"><path id="ProcessOnPath1134" d="M461.03125 339.515625L842.03125 279.515625" stroke="#323232" stroke-width="2.0" stroke-dasharray="10.0 4.0" fill="none" marker-end="url(#ProcessOnMarker1135)"/></g><g id="ProcessOnG1137"><path id="ProcessOnPath1138" d="M1378.03125 473.015625L847.03125 279.515625" stroke="#323232" stroke-width="2.0" stroke-dasharray="10.0 4.0" fill="none" marker-end="url(#ProcessOnMarker1139)"/></g><g id="ProcessOnG1141"><path id="ProcessOnPath1142" d="M1095.53125 806.015625L863.03125 279.515625" stroke="#323232" stroke-width="2.0" stroke-dasharray="10.0 4.0" fill="none" marker-end="url(#ProcessOnMarker1143)"/></g><g id="ProcessOnG1145"><path id="ProcessOnPath1146" d="M436.53125 953.640625L439.03125 873.515625" stroke="#323232" stroke-width="2.0" stroke-dasharray="10.0 4.0" fill="none" marker-end="url(#ProcessOnMarker1147)"/></g></g></g></svg>