<svg xmlns="http://www.w3.org/2000/svg" xmlns:xlink="http://www.w3.org/1999/xlink" id="processonSvg1000" viewBox="74.911408483983 156.26255518198104 1820.295166015625 952.253069818019" width="1820.295166015625" height="952.253069818019"><defs id="ProcessOnDefs1001"><marker id="ProcessOnMarker1073" markerUnits="userSpaceOnUse" orient="auto" markerWidth="14.289086868996552" markerHeight="19.055054660878554" viewBox="-0.5877852522924731 -0.8090169943749475 14.289086868996552 19.055054660878554" refX="12.0" refY="8.71851033606433"><path id="ProcessOnPath1074" d="M0 0L12.0 8.71851033606433L0 17.43702067212866" stroke="#323232" stroke-width="2.0" fill="none" transform="matrix(1.0,0.0,0.0,1.0,0.0,0.0)"/></marker><marker id="ProcessOnMarker1098" markerUnits="userSpaceOnUse" orient="auto" markerWidth="14.289086868996552" markerHeight="19.055054660878554" viewBox="-0.5877852522924731 -0.8090169943749475 14.289086868996552 19.055054660878554" refX="12.0" refY="8.71851033606433"><path id="ProcessOnPath1099" d="M0 0L12.0 8.71851033606433L0 17.43702067212866" stroke="#323232" stroke-width="2.0" fill="none" transform="matrix(1.0,0.0,0.0,1.0,0.0,0.0)"/></marker><marker id="ProcessOnMarker1123" markerUnits="userSpaceOnUse" orient="auto" markerWidth="14.289086868996552" markerHeight="19.055054660878554" viewBox="-0.5877852522924731 -0.8090169943749475 14.289086868996552 19.055054660878554" refX="12.0" refY="8.71851033606433"><path id="ProcessOnPath1124" d="M0 0L12.0 8.71851033606433L0 17.43702067212866" stroke="#323232" stroke-width="2.0" fill="none" transform="matrix(1.0,0.0,0.0,1.0,0.0,0.0)"/></marker><marker id="ProcessOnMarker1142" markerUnits="userSpaceOnUse" orient="auto" markerWidth="14.289086868996552" markerHeight="19.055054660878554" viewBox="-0.5877852522924731 -0.8090169943749475 14.289086868996552 19.055054660878554" refX="12.0" refY="8.71851033606433"><path id="ProcessOnPath1143" d="M0 0L12.0 8.71851033606433L0 17.43702067212866" stroke="#323232" stroke-width="2.0" fill="none" transform="matrix(1.0,0.0,0.0,1.0,0.0,0.0)"/></marker><marker id="ProcessOnMarker1159" markerUnits="userSpaceOnUse" orient="auto" markerWidth="14.289086868996552" markerHeight="19.055054660878554" viewBox="-0.5877852522924731 -0.8090169943749475 14.289086868996552 19.055054660878554" refX="12.0" refY="8.71851033606433"><path id="ProcessOnPath1160" d="M0 0L12.0 8.71851033606433L0 17.43702067212866" stroke="#323232" stroke-width="2.0" fill="none" transform="matrix(1.0,0.0,0.0,1.0,0.0,0.0)"/></marker><marker id="ProcessOnMarker1175" markerUnits="userSpaceOnUse" orient="auto" markerWidth="14.289086868996552" markerHeight="19.055054660878554" viewBox="-0.5877852522924731 -0.8090169943749475 14.289086868996552 19.055054660878554" refX="12.0" refY="8.71851033606433"><path id="ProcessOnPath1176" d="M0 0L12.0 8.71851033606433L0 17.43702067212866" stroke="#323232" stroke-width="2.0" fill="none" transform="matrix(1.0,0.0,0.0,1.0,0.0,0.0)"/></marker><marker id="ProcessOnMarker1182" markerUnits="userSpaceOnUse" orient="auto" markerWidth="14.289086868996552" markerHeight="19.055054660878554" viewBox="-0.5877852522924731 -0.8090169943749475 14.289086868996552 19.055054660878554" refX="12.0" refY="8.71851033606433"><path id="ProcessOnPath1183" d="M0 0L12.0 8.71851033606433L0 17.43702067212866" stroke="#323232" stroke-width="2.0" fill="none" transform="matrix(1.0,0.0,0.0,1.0,0.0,0.0)"/></marker><marker id="ProcessOnMarker1189" markerUnits="userSpaceOnUse" orient="auto" markerWidth="14.289086868996552" markerHeight="19.055054660878554" viewBox="-0.5877852522924731 -0.8090169943749475 14.289086868996552 19.055054660878554" refX="12.0" refY="8.71851033606433"><path id="ProcessOnPath1190" d="M0 0L12.0 8.71851033606433L0 17.43702067212866" stroke="#323232" stroke-width="2.0" fill="none" transform="matrix(1.0,0.0,0.0,1.0,0.0,0.0)"/></marker><marker id="ProcessOnMarker1215" markerUnits="userSpaceOnUse" orient="auto" markerWidth="14.289086868996552" markerHeight="19.055054660878554" viewBox="-0.5877852522924731 -0.8090169943749475 14.289086868996552 19.055054660878554" refX="12.0" refY="8.71851033606433"><path id="ProcessOnPath1216" d="M0 0L12.0 8.71851033606433L0 17.43702067212866" stroke="#323232" stroke-width="2.0" fill="none" transform="matrix(1.0,0.0,0.0,1.0,0.0,0.0)"/></marker><marker id="ProcessOnMarker1222" markerUnits="userSpaceOnUse" orient="auto" markerWidth="14.289086868996552" markerHeight="19.055054660878554" viewBox="-0.5877852522924731 -0.8090169943749475 14.289086868996552 19.055054660878554" refX="12.0" refY="8.71851033606433"><path id="ProcessOnPath1223" d="M0 0L12.0 8.71851033606433L0 17.43702067212866" stroke="#323232" stroke-width="2.0" fill="none" transform="matrix(1.0,0.0,0.0,1.0,0.0,0.0)"/></marker></defs><g id="ProcessOnG1002"><path id="ProcessOnPath1003" d="M74.911408483983 156.26255518198104H1895.206574499608V1108.515625H74.911408483983V156.26255518198104Z" fill="none"/><g id="ProcessOnG1004"><g id="ProcessOnG1005" transform="matrix(1.0,0.0,0.0,1.0,778.501740515233,176.26255518198104)" opacity="1.0"><path id="ProcessOnPath1006" d="M0.0 18.105517917209202L204.26236979166666 18.105517917209202L204.26236979166666 162.9496612548828L0.0 162.9496612548828L0.0 18.105517917209202Z" stroke="#323232" stroke-width="2.0" stroke-dasharray="none" opacity="1.0" fill="#ffffff"/><path id="ProcessOnPath1007" d="M0.0 18.105517917209202L25.532796223958332 0.0L229.795166015625 0.0L229.795166015625 144.84414333767361L204.26236979166666 162.9496612548828L204.26236979166666 18.105517917209202L0.0 18.105517917209202ZM204.26236979166666 18.105517917209202L229.795166015625 0.0" stroke="#323232" stroke-width="2.0" stroke-dasharray="none" opacity="1.0" fill="#e6e6e6"/><path id="ProcessOnPath1008" d="M0.0 0.0L229.795166015625 0.0L229.795166015625 162.9496612548828L0.0 162.9496612548828Z" stroke="#323232" stroke-width="0.0" stroke-dasharray="none" opacity="1.0" fill="none"/></g><g id="ProcessOnG1009" transform="matrix(1.0,0.0,0.0,1.0,420.911408483983,383.26255518198104)" opacity="1.0"><path id="ProcessOnPath1010" d="M0.0 14.549962361653645L222.04014756944443 14.549962361653645L222.04014756944443 130.9496612548828L0.0 130.9496612548828L0.0 14.549962361653645Z" stroke="#323232" stroke-width="2.0" stroke-dasharray="none" opacity="1.0" fill="#ffffff"/><path id="ProcessOnPath1011" d="M0.0 14.549962361653645L27.755018446180554 0.0L249.795166015625 0.0L249.795166015625 116.39969889322916L222.04014756944443 130.9496612548828L222.04014756944443 14.549962361653645L0.0 14.549962361653645ZM222.04014756944443 14.549962361653645L249.795166015625 0.0" stroke="#323232" stroke-width="2.0" stroke-dasharray="none" opacity="1.0" fill="#e6e6e6"/><path id="ProcessOnPath1012" d="M0.0 0.0L249.795166015625 0.0L249.795166015625 130.9496612548828L0.0 130.9496612548828Z" stroke="#323232" stroke-width="0.0" stroke-dasharray="none" opacity="1.0" fill="none"/></g><g id="ProcessOnG1013" transform="matrix(1.0,0.0,0.0,1.0,325.911408483983,759.0455370545396)" opacity="1.0"><path id="ProcessOnPath1014" d="M0.0 15.99440680609809L228.26236979166666 15.99440680609809L228.26236979166666 143.9496612548828L0.0 143.9496612548828L0.0 15.99440680609809Z" stroke="#323232" stroke-width="2.0" stroke-dasharray="none" opacity="1.0" fill="#ffffff"/><path id="ProcessOnPath1015" d="M0.0 15.99440680609809L28.532796223958332 0.0L256.795166015625 0.0L256.795166015625 127.95525444878471L228.26236979166666 143.9496612548828L228.26236979166666 15.99440680609809L0.0 15.99440680609809ZM228.26236979166666 15.99440680609809L256.795166015625 0.0" stroke="#323232" stroke-width="2.0" stroke-dasharray="none" opacity="1.0" fill="#e6e6e6"/><path id="ProcessOnPath1016" d="M0.0 0.0L256.795166015625 0.0L256.795166015625 143.9496612548828L0.0 143.9496612548828Z" stroke="#323232" stroke-width="0.0" stroke-dasharray="none" opacity="1.0" fill="none"/></g><g id="ProcessOnG1017" transform="matrix(1.0,0.0,0.0,1.0,762.501740515233,390.76255518198104)" opacity="1.0"><path id="ProcessOnPath1018" d="M0.0 15.1055179172092L232.7068142361111 15.1055179172092L232.7068142361111 135.9496612548828L0.0 135.9496612548828L0.0 15.1055179172092Z" stroke="#323232" stroke-width="2.0" stroke-dasharray="none" opacity="1.0" fill="#ffffff"/><path id="ProcessOnPath1019" d="M0.0 15.1055179172092L29.088351779513886 0.0L261.795166015625 0.0L261.795166015625 120.8441433376736L232.7068142361111 135.9496612548828L232.7068142361111 15.1055179172092L0.0 15.1055179172092ZM232.7068142361111 15.1055179172092L261.795166015625 0.0" stroke="#323232" stroke-width="2.0" stroke-dasharray="none" opacity="1.0" fill="#e6e6e6"/><path id="ProcessOnPath1020" d="M0.0 0.0L261.795166015625 0.0L261.795166015625 135.9496612548828L0.0 135.9496612548828Z" stroke="#323232" stroke-width="0.0" stroke-dasharray="none" opacity="1.0" fill="none"/></g><g id="ProcessOnG1021" transform="matrix(1.0,0.0,0.0,1.0,1133.911408483983,373.26255518198104)" opacity="1.0"><path id="ProcessOnPath1022" d="M0.0 13.772184583875868L236.26236979166666 13.772184583875868L236.26236979166666 123.94966125488281L0.0 123.94966125488281L0.0 13.772184583875868Z" stroke="#323232" stroke-width="2.0" stroke-dasharray="none" opacity="1.0" fill="#ffffff"/><path id="ProcessOnPath1023" d="M0.0 13.772184583875868L29.532796223958332 0.0L265.795166015625 0.0L265.795166015625 110.17747667100694L236.26236979166666 123.94966125488281L236.26236979166666 13.772184583875868L0.0 13.772184583875868ZM236.26236979166666 13.772184583875868L265.795166015625 0.0" stroke="#323232" stroke-width="2.0" stroke-dasharray="none" opacity="1.0" fill="#e6e6e6"/><path id="ProcessOnPath1024" d="M0.0 0.0L265.795166015625 0.0L265.795166015625 123.94966125488281L0.0 123.94966125488281Z" stroke="#323232" stroke-width="0.0" stroke-dasharray="none" opacity="1.0" fill="none"/></g><g id="ProcessOnG1025" transform="matrix(1.0,0.0,0.0,1.0,1158.911408483983,579.2122164368639)" opacity="1.0"><path id="ProcessOnPath1026" d="M0.0 12.478156507015127L208.995414680904 12.478156507015127L208.995414680904 112.30340856313614L0.0 112.30340856313614L0.0 12.478156507015127Z" stroke="#323232" stroke-width="2.0" stroke-dasharray="none" opacity="1.0" fill="#ffffff"/><path id="ProcessOnPath1027" d="M0.0 12.478156507015127L26.124426835113 0.0L235.119841516017 0.0L235.119841516017 99.82525205612102L208.995414680904 112.30340856313614L208.995414680904 12.478156507015127L0.0 12.478156507015127ZM208.995414680904 12.478156507015127L235.119841516017 0.0" stroke="#323232" stroke-width="2.0" stroke-dasharray="none" opacity="1.0" fill="#e6e6e6"/><path id="ProcessOnPath1028" d="M0.0 0.0L235.119841516017 0.0L235.119841516017 112.30340856313614L0.0 112.30340856313614Z" stroke="#323232" stroke-width="0.0" stroke-dasharray="none" opacity="1.0" fill="none"/></g><g id="ProcessOnG1029" transform="matrix(1.0,0.0,0.0,1.0,1024.296906530858,768.8285189270982)" opacity="1.0"><path id="ProcessOnPath1030" d="M0.0 14.487077501085068L200.67903645833331 14.487077501085068L200.67903645833331 130.38369750976562L0.0 130.38369750976562L0.0 14.487077501085068Z" stroke="#323232" stroke-width="2.0" stroke-dasharray="none" opacity="1.0" fill="#ffffff"/><path id="ProcessOnPath1031" d="M0.0 14.487077501085068L25.084879557291664 0.0L225.763916015625 0.0L225.763916015625 115.89662000868054L200.67903645833331 130.38369750976562L200.67903645833331 14.487077501085068L0.0 14.487077501085068ZM200.67903645833331 14.487077501085068L225.763916015625 0.0" stroke="#323232" stroke-width="2.0" stroke-dasharray="none" opacity="1.0" fill="#e6e6e6"/><path id="ProcessOnPath1032" d="M0.0 0.0L225.763916015625 0.0L225.763916015625 130.38369750976562L0.0 130.38369750976562Z" stroke="#323232" stroke-width="0.0" stroke-dasharray="none" opacity="1.0" fill="none"/></g><g id="ProcessOnG1033" transform="matrix(1.0,0.0,0.0,1.0,794.296906530858,230.21221643686386)" opacity="1.0"><path id="ProcessOnPath1034" d="M0.0 0.0L170.0 0.0L170.0 71.05033874511719L0.0 71.05033874511719Z" stroke="#323232" stroke-width="2.0" stroke-dasharray="none" opacity="1.0" fill="#ffffff"/><g id="ProcessOnG1035" transform="matrix(1.0,0.0,0.0,1.0,10.0,27.400169372558594)"><text id="ProcessOnText1036" fill="#000000" font-weight="normal" font-style="normal" text-decoration="blink" font-family="微软雅黑" text-anchor="middle" font-size="13" x="75.0" y="13.325">Gateway.jar</text></g></g><g id="ProcessOnG1037" transform="matrix(1.0,0.0,0.0,1.0,445.911408483983,423.21221643686386)" opacity="1.0"><path id="ProcessOnPath1038" d="M0.0 0.0L170.0 0.0L170.0 71.05033874511719L0.0 71.05033874511719Z" stroke="#323232" stroke-width="2.0" stroke-dasharray="none" opacity="1.0" fill="#ffffff"/><g id="ProcessOnG1039" transform="matrix(1.0,0.0,0.0,1.0,10.0,27.400169372558594)"><text id="ProcessOnText1040" fill="#000000" font-weight="normal" font-style="normal" text-decoration="blink" font-family="微软雅黑" text-anchor="middle" font-size="13" x="75.0" y="13.325">SearchServer.jar</text></g></g><g id="ProcessOnG1041" transform="matrix(1.0,0.0,0.0,1.0,778.296906530858,426.76255518198104)" opacity="1.0"><path id="ProcessOnPath1042" d="M0.0 0.0L201.0 0.0L201.0 77.94966125488281L0.0 77.94966125488281Z" stroke="#323232" stroke-width="2.0" stroke-dasharray="none" opacity="1.0" fill="#ffffff"/><g id="ProcessOnG1043" transform="matrix(1.0,0.0,0.0,1.0,10.0,30.849830627441406)"><text id="ProcessOnText1044" fill="#000000" font-weight="normal" font-style="normal" text-decoration="blink" font-family="微软雅黑" text-anchor="middle" font-size="13" x="90.5" y="13.325">StaticContentServer</text></g></g><g id="ProcessOnG1045" transform="matrix(1.0,0.0,0.0,1.0,339.3089914917955,804.262555181981)" opacity="1.0"><path id="ProcessOnPath1046" d="M0.0 0.0L201.0 0.0L201.0 76.7326431274414L0.0 76.7326431274414Z" stroke="#323232" stroke-width="2.0" stroke-dasharray="none" opacity="1.0" fill="#ffffff"/><g id="ProcessOnG1047" transform="matrix(1.0,0.0,0.0,1.0,10.0,30.241321563720703)"><text id="ProcessOnText1048" fill="#000000" font-weight="normal" font-style="normal" text-decoration="blink" font-family="微软雅黑" text-anchor="middle" font-size="13" x="90.5" y="13.325">SearchEngine</text></g></g><g id="ProcessOnG1049" transform="matrix(1.0,0.0,0.0,1.0,1196.9778564850317,606.7084720636409)" opacity="1.0"><path id="ProcessOnPath1050" d="M0.0 0.0L139.46223290694692 0.0L139.46223290694692 68.98869652482334L0.0 68.98869652482334Z" stroke="#323232" stroke-width="2.0" stroke-dasharray="none" opacity="1.0" fill="#ffffff"/><g id="ProcessOnG1051" transform="matrix(1.0,0.0,0.0,1.0,10.0,26.36934826241167)"><text id="ProcessOnText1052" fill="#000000" font-weight="normal" font-style="normal" text-decoration="blink" font-family="微软雅黑" text-anchor="middle" font-size="13" x="59.73111645347346" y="13.325">ClusterProxy</text></g></g><g id="ProcessOnG1053" transform="matrix(1.0,0.0,0.0,1.0,1051.092072546483,803.262555181981)" opacity="1.0"><path id="ProcessOnPath1054" d="M0.0 0.0L146.0 0.0L146.0 79.515625L0.0 79.515625Z" stroke="#323232" stroke-width="2.0" stroke-dasharray="none" opacity="1.0" fill="#ffffff"/><g id="ProcessOnG1055" transform="matrix(1.0,0.0,0.0,1.0,10.0,31.6328125)"><text id="ProcessOnText1056" fill="#000000" font-weight="normal" font-style="normal" text-decoration="blink" font-family="微软雅黑" text-anchor="middle" font-size="13" x="63.0" y="13.325">DB</text></g></g><g id="ProcessOnG1057" transform="matrix(1.0,0.0,0.0,1.0,1154.706574499608,406.21221643686386)" opacity="1.0"><path id="ProcessOnPath1058" d="M0.0 0.0L197.0 0.0L197.0 67.0L0.0 67.0Z" stroke="#323232" stroke-width="2.0" stroke-dasharray="none" opacity="1.0" fill="#ffffff"/><g id="ProcessOnG1059" transform="matrix(1.0,0.0,0.0,1.0,10.0,25.375)"><text id="ProcessOnText1060" fill="#000000" font-weight="normal" font-style="normal" text-decoration="blink" font-family="微软雅黑" text-anchor="middle" font-size="13" x="88.5" y="13.325">CommentServer.jar</text></g></g><g id="ProcessOnG1061"><path id="ProcessOnPath1062" d="M893.3993235230455 339.21221643686386L570.706574499608 384.21221643686386" stroke="#323232" stroke-width="2.0" stroke-dasharray="none" fill="none"/></g><g id="ProcessOnG1063"><path id="ProcessOnPath1064" d="M893.3993235230455 339.21221643686386L893.3993235230455 390.76255518198104" stroke="#323232" stroke-width="2.0" stroke-dasharray="none" fill="none"/></g><g id="ProcessOnG1065"><path id="ProcessOnPath1066" d="M893.3993235230455 339.21221643686386L1278.706574499608 374.21221643686386" stroke="#323232" stroke-width="2.0" stroke-dasharray="none" fill="none"/></g><g id="ProcessOnG1067"><path id="ProcessOnPath1068" d="M545.8089914917955 514.2122164368639L454.3089914917955 759.0455370545396" stroke="#323232" stroke-width="2.0" stroke-dasharray="none" fill="none"/></g><g id="ProcessOnG1069"><path id="ProcessOnPath1070" d="M1266.8089914917955 497.21221643686386L1276.4713292419915 579.2122164368639" stroke="#323232" stroke-width="2.0" stroke-dasharray="none" fill="none"/></g><g id="ProcessOnG1071"><path id="ProcessOnPath1072" d="M964.296906530858 265.73738580942245L1203.206574499608 265.73738580942245" stroke="#323232" stroke-width="2.0" stroke-dasharray="10.0 4.0" fill="none" marker-end="url(#ProcessOnMarker1073)"/><g id="ProcessOnG1075" transform="matrix(1.0,0.0,0.0,1.0,1083.751740515233,257.61238580942245)"><path id="ProcessOnPath1076" d="M0 0H53.0V16.25H0Z" fill="#fff" transform="matrix(1.0,0.0,0.0,1.0,-26.5,0.0)"/><text id="ProcessOnText1077" fill="#000000" font-weight="normal" font-style="normal" text-decoration="blink" font-family="微软雅黑" text-anchor="middle" font-size="13" x="0.0" y="13.325">manifest</text></g></g><g id="ProcessOnG1078" transform="matrix(1.0,0.0,0.0,1.0,1203.206574499608,216.73738580942245)" opacity="1.0"><path id="ProcessOnPath1079" d="M0.0 0.0L180.48046875 0.0L180.48046875 98.0L0.0 98.0Z" stroke="#323232" stroke-width="2.0" stroke-dasharray="none" opacity="1.0" fill="#ffffff"/><g id="ProcessOnG1080" transform="matrix(1.0,0.0,0.0,1.0,10.0,32.75)"><text id="ProcessOnText1081" fill="#000000" font-weight="normal" font-style="normal" text-decoration="blink" font-family="微软雅黑" text-anchor="middle" font-size="13" x="80.240234375" y="13.325">&lt;&lt;subsystem&gt;&gt;</text><text id="ProcessOnText1082" fill="#000000" font-weight="normal" font-style="normal" text-decoration="blink" font-family="微软雅黑" text-anchor="middle" font-size="13" x="80.240234375" y="29.575">Gateway</text></g></g><g id="ProcessOnG1083" transform="matrix(1.0,0.0,0.0,1.0,1344.706574499608,226.20049768686386)" opacity="1.0"><path id="ProcessOnPath1084" d="M2.1 0.0L21.0 0.0L21.0 22.0L2.1 22.0L2.1 17.6L0.0 17.6L0.0 13.2L2.1 13.2L2.1 8.8L0.0 8.8L0.0 4.4L2.1 4.4L2.1 0.0Z" stroke="#323232" stroke-width="2.0" stroke-dasharray="none" opacity="1.0" fill="#ffffff"/><path id="ProcessOnPath1085" d="M2.1 17.6L4.2 17.6L4.2 13.2L2.1 13.2M2.1 8.8L4.2 8.8L4.2 4.4L2.1 4.4" stroke="#323232" stroke-width="2.0" stroke-dasharray="none" opacity="1.0" fill="none"/><path id="ProcessOnPath1086" d="M2.1 0.0L21.0 0.0L21.0 22.0L2.1 22.0L2.1 17.6L0.0 17.6L0.0 13.2L2.1 13.2L2.1 8.8L0.0 8.8L0.0 4.4L2.1 4.4L2.1 0.0Z" stroke="#323232" stroke-width="0.0" stroke-dasharray="none" opacity="1.0" fill="none"/></g><g id="ProcessOnG1087" transform="matrix(1.0,0.0,0.0,1.0,111.816437780858,377.73738580942245)" opacity="1.0"><path id="ProcessOnPath1088" d="M0.0 0.0L180.48046875 0.0L180.48046875 98.0L0.0 98.0Z" stroke="#323232" stroke-width="2.0" stroke-dasharray="none" opacity="1.0" fill="#ffffff"/><g id="ProcessOnG1089" transform="matrix(1.0,0.0,0.0,1.0,10.0,32.75)"><text id="ProcessOnText1090" fill="#000000" font-weight="normal" font-style="normal" text-decoration="blink" font-family="微软雅黑" text-anchor="middle" font-size="13" x="80.240234375" y="13.325">&lt;&lt;subsystem&gt;&gt;</text><text id="ProcessOnText1091" fill="#000000" font-weight="normal" font-style="normal" text-decoration="blink" font-family="微软雅黑" text-anchor="middle" font-size="13" x="80.240234375" y="29.575">Search</text></g></g><g id="ProcessOnG1092" transform="matrix(1.0,0.0,0.0,1.0,253.316437780858,387.20049768686386)" opacity="1.0"><path id="ProcessOnPath1093" d="M2.1 0.0L21.0 0.0L21.0 22.0L2.1 22.0L2.1 17.6L0.0 17.6L0.0 13.2L2.1 13.2L2.1 8.8L0.0 8.8L0.0 4.4L2.1 4.4L2.1 0.0Z" stroke="#323232" stroke-width="2.0" stroke-dasharray="none" opacity="1.0" fill="#ffffff"/><path id="ProcessOnPath1094" d="M2.1 17.6L4.2 17.6L4.2 13.2L2.1 13.2M2.1 8.8L4.2 8.8L4.2 4.4L2.1 4.4" stroke="#323232" stroke-width="2.0" stroke-dasharray="none" opacity="1.0" fill="none"/><path id="ProcessOnPath1095" d="M2.1 0.0L21.0 0.0L21.0 22.0L2.1 22.0L2.1 17.6L0.0 17.6L0.0 13.2L2.1 13.2L2.1 8.8L0.0 8.8L0.0 4.4L2.1 4.4L2.1 0.0Z" stroke="#323232" stroke-width="0.0" stroke-dasharray="none" opacity="1.0" fill="none"/></g><g id="ProcessOnG1096"><path id="ProcessOnPath1097" d="M530.911408483983 494.26255518198104L292.296906530858 426.73738580942245" stroke="#323232" stroke-width="2.0" stroke-dasharray="10.0 4.0" fill="none" marker-end="url(#ProcessOnMarker1098)"/><g id="ProcessOnG1100" transform="matrix(1.0,0.0,0.0,1.0,411.6041575074205,452.37497049570175)"><path id="ProcessOnPath1101" d="M0 0H53.0V16.25H0Z" fill="#fff" transform="matrix(1.0,0.0,0.0,1.0,-26.5,0.0)"/><text id="ProcessOnText1102" fill="#000000" font-weight="normal" font-style="normal" text-decoration="blink" font-family="微软雅黑" text-anchor="middle" font-size="13" x="0.0" y="13.325">manifest</text></g></g><g id="ProcessOnG1103" transform="matrix(1.0,0.0,0.0,1.0,798.816437780858,609.262555181981)" opacity="1.0"><path id="ProcessOnPath1104" d="M0.0 0.0L180.48046875 0.0L180.48046875 98.0L0.0 98.0Z" stroke="#323232" stroke-width="2.0" stroke-dasharray="none" opacity="1.0" fill="#ffffff"/><g id="ProcessOnG1105" transform="matrix(1.0,0.0,0.0,1.0,10.0,32.75)"><text id="ProcessOnText1106" fill="#000000" font-weight="normal" font-style="normal" text-decoration="blink" font-family="微软雅黑" text-anchor="middle" font-size="13" x="80.240234375" y="13.325">&lt;&lt;subsystem&gt;&gt;</text><text id="ProcessOnText1107" fill="#000000" font-weight="normal" font-style="normal" text-decoration="blink" font-family="微软雅黑" text-anchor="middle" font-size="13" x="80.240234375" y="29.575">StaticContent</text></g></g><g id="ProcessOnG1108" transform="matrix(1.0,0.0,0.0,1.0,940.316437780858,618.7256670594224)" opacity="1.0"><path id="ProcessOnPath1109" d="M2.1 0.0L21.0 0.0L21.0 22.0L2.1 22.0L2.1 17.6L0.0 17.6L0.0 13.2L2.1 13.2L2.1 8.8L0.0 8.8L0.0 4.4L2.1 4.4L2.1 0.0Z" stroke="#323232" stroke-width="2.0" stroke-dasharray="none" opacity="1.0" fill="#ffffff"/><path id="ProcessOnPath1110" d="M2.1 17.6L4.2 17.6L4.2 13.2L2.1 13.2M2.1 8.8L4.2 8.8L4.2 4.4L2.1 4.4" stroke="#323232" stroke-width="2.0" stroke-dasharray="none" opacity="1.0" fill="none"/><path id="ProcessOnPath1111" d="M2.1 0.0L21.0 0.0L21.0 22.0L2.1 22.0L2.1 17.6L0.0 17.6L0.0 13.2L2.1 13.2L2.1 8.8L0.0 8.8L0.0 4.4L2.1 4.4L2.1 0.0Z" stroke="#323232" stroke-width="0.0" stroke-dasharray="none" opacity="1.0" fill="none"/></g><g id="ProcessOnG1112" transform="matrix(1.0,0.0,0.0,1.0,1694.726105749608,387.20049768686386)" opacity="1.0"><path id="ProcessOnPath1113" d="M0.0 0.0L180.48046875 0.0L180.48046875 98.0L0.0 98.0Z" stroke="#323232" stroke-width="2.0" stroke-dasharray="none" opacity="1.0" fill="#ffffff"/><g id="ProcessOnG1114" transform="matrix(1.0,0.0,0.0,1.0,10.0,32.75)"><text id="ProcessOnText1115" fill="#000000" font-weight="normal" font-style="normal" text-decoration="blink" font-family="微软雅黑" text-anchor="middle" font-size="13" x="80.240234375" y="13.325">&lt;&lt;subsystem&gt;&gt;</text><text id="ProcessOnText1116" fill="#000000" font-weight="normal" font-style="normal" text-decoration="blink" font-family="微软雅黑" text-anchor="middle" font-size="13" x="80.240234375" y="29.575">Gateway</text></g></g><g id="ProcessOnG1117" transform="matrix(1.0,0.0,0.0,1.0,1836.226105749608,396.66360956430526)" opacity="1.0"><path id="ProcessOnPath1118" d="M2.1 0.0L21.0 0.0L21.0 22.0L2.1 22.0L2.1 17.6L0.0 17.6L0.0 13.2L2.1 13.2L2.1 8.8L0.0 8.8L0.0 4.4L2.1 4.4L2.1 0.0Z" stroke="#323232" stroke-width="2.0" stroke-dasharray="none" opacity="1.0" fill="#ffffff"/><path id="ProcessOnPath1119" d="M2.1 17.6L4.2 17.6L4.2 13.2L2.1 13.2M2.1 8.8L4.2 8.8L4.2 4.4L2.1 4.4" stroke="#323232" stroke-width="2.0" stroke-dasharray="none" opacity="1.0" fill="none"/><path id="ProcessOnPath1120" d="M2.1 0.0L21.0 0.0L21.0 22.0L2.1 22.0L2.1 17.6L0.0 17.6L0.0 13.2L2.1 13.2L2.1 8.8L0.0 8.8L0.0 4.4L2.1 4.4L2.1 0.0Z" stroke="#323232" stroke-width="0.0" stroke-dasharray="none" opacity="1.0" fill="none"/></g><g id="ProcessOnG1121"><path id="ProcessOnPath1122" d="M1399.706574499608 435.23738580942245L1694.726105749608 436.20049768686386" stroke="#323232" stroke-width="2.0" stroke-dasharray="10.0 4.0" fill="none" marker-end="url(#ProcessOnMarker1123)"/><g id="ProcessOnG1125" transform="matrix(1.0,0.0,0.0,1.0,1547.216340124608,427.59394174814315)"><path id="ProcessOnPath1126" d="M0 0H53.0V16.25H0Z" fill="#fff" transform="matrix(1.0,0.0,0.0,1.0,-26.5,0.0)"/><text id="ProcessOnText1127" fill="#000000" font-weight="normal" font-style="normal" text-decoration="blink" font-family="微软雅黑" text-anchor="middle" font-size="13" x="0.0" y="13.325">manifest</text></g></g><g id="ProcessOnG1128" transform="matrix(1.0,0.0,0.0,1.0,1266.3246164917955,768.8285189270982)" opacity="1.0"><path id="ProcessOnPath1129" d="M0.0 14.487077501085068L200.67903645833331 14.487077501085068L200.67903645833331 130.38369750976562L0.0 130.38369750976562L0.0 14.487077501085068Z" stroke="#323232" stroke-width="2.0" stroke-dasharray="none" opacity="1.0" fill="#ffffff"/><path id="ProcessOnPath1130" d="M0.0 14.487077501085068L25.084879557291664 0.0L225.763916015625 0.0L225.763916015625 115.89662000868054L200.67903645833331 130.38369750976562L200.67903645833331 14.487077501085068L0.0 14.487077501085068ZM200.67903645833331 14.487077501085068L225.763916015625 0.0" stroke="#323232" stroke-width="2.0" stroke-dasharray="none" opacity="1.0" fill="#e6e6e6"/><path id="ProcessOnPath1131" d="M0.0 0.0L225.763916015625 0.0L225.763916015625 130.38369750976562L0.0 130.38369750976562Z" stroke="#323232" stroke-width="0.0" stroke-dasharray="none" opacity="1.0" fill="none"/></g><g id="ProcessOnG1132" transform="matrix(1.0,0.0,0.0,1.0,1293.1197825074205,803.262555181981)" opacity="1.0"><path id="ProcessOnPath1133" d="M0.0 0.0L146.0 0.0L146.0 79.515625L0.0 79.515625Z" stroke="#323232" stroke-width="2.0" stroke-dasharray="none" opacity="1.0" fill="#ffffff"/><g id="ProcessOnG1134" transform="matrix(1.0,0.0,0.0,1.0,10.0,31.6328125)"><text id="ProcessOnText1135" fill="#000000" font-weight="normal" font-style="normal" text-decoration="blink" font-family="微软雅黑" text-anchor="middle" font-size="13" x="63.0" y="13.325">DB</text></g></g><g id="ProcessOnG1136"><path id="ProcessOnPath1137" d="M1276.4713292419915 691.515625L1147.0035400390625 769.515625" stroke="#323232" stroke-width="2.0" stroke-dasharray="none" fill="none"/></g><g id="ProcessOnG1138"><path id="ProcessOnPath1139" d="M1276.4713292419915 691.515625L1379.206574499608 768.8285189270982" stroke="#323232" stroke-width="2.0" stroke-dasharray="none" fill="none"/></g><g id="ProcessOnG1140"><path id="ProcessOnPath1141" d="M893.3993235230455 526.7122164368639L889.056672155858 609.262555181981" stroke="#323232" stroke-width="2.0" stroke-dasharray="10.0 4.0" fill="none" marker-end="url(#ProcessOnMarker1142)"/><g id="ProcessOnG1144" transform="matrix(1.0,0.0,0.0,1.0,891.2279978394517,559.8623858094224)"><path id="ProcessOnPath1145" d="M0 0H53.0V16.25H0Z" fill="#fff" transform="matrix(1.0,0.0,0.0,1.0,-26.5,0.0)"/><text id="ProcessOnText1146" fill="#000000" font-weight="normal" font-style="normal" text-decoration="blink" font-family="微软雅黑" text-anchor="middle" font-size="13" x="0.0" y="13.325">manifest</text></g></g><g id="ProcessOnG1147" transform="matrix(1.0,0.0,0.0,1.0,94.911408483983,591.7122164368639)" opacity="1.0"><path id="ProcessOnPath1148" d="M0.0 15.99440680609809L228.26236979166666 15.99440680609809L228.26236979166666 143.9496612548828L0.0 143.9496612548828L0.0 15.99440680609809Z" stroke="#323232" stroke-width="2.0" stroke-dasharray="none" opacity="1.0" fill="#ffffff"/><path id="ProcessOnPath1149" d="M0.0 15.99440680609809L28.532796223958332 0.0L256.795166015625 0.0L256.795166015625 127.95525444878471L228.26236979166666 143.9496612548828L228.26236979166666 15.99440680609809L0.0 15.99440680609809ZM228.26236979166666 15.99440680609809L256.795166015625 0.0" stroke="#323232" stroke-width="2.0" stroke-dasharray="none" opacity="1.0" fill="#e6e6e6"/><path id="ProcessOnPath1150" d="M0.0 0.0L256.795166015625 0.0L256.795166015625 143.9496612548828L0.0 143.9496612548828Z" stroke="#323232" stroke-width="0.0" stroke-dasharray="none" opacity="1.0" fill="none"/></g><g id="ProcessOnG1151" transform="matrix(1.0,0.0,0.0,1.0,108.3089914917955,636.9292345643053)" opacity="1.0"><path id="ProcessOnPath1152" d="M0.0 0.0L201.0 0.0L201.0 76.7326431274414L0.0 76.7326431274414Z" stroke="#323232" stroke-width="2.0" stroke-dasharray="none" opacity="1.0" fill="#ffffff"/><g id="ProcessOnG1153" transform="matrix(1.0,0.0,0.0,1.0,10.0,30.241321563720703)"><text id="ProcessOnText1154" fill="#000000" font-weight="normal" font-style="normal" text-decoration="blink" font-family="微软雅黑" text-anchor="middle" font-size="13" x="90.5" y="13.325">CacheDB</text></g></g><g id="ProcessOnG1155"><path id="ProcessOnPath1156" d="M545.8089914917955 514.2122164368639L223.3089914917955 591.7122164368639" stroke="#323232" stroke-width="2.0" stroke-dasharray="none" fill="none"/></g><g id="ProcessOnG1157"><path id="ProcessOnPath1158" d="M223.3089914917955 591.7122164368639L202.056672155858 475.73738580942245" stroke="#323232" stroke-width="2.0" stroke-dasharray="10.0 4.0" fill="none" marker-end="url(#ProcessOnMarker1159)"/><g id="ProcessOnG1161" transform="matrix(1.0,0.0,0.0,1.0,212.68283182382675,525.5998011231432)"><path id="ProcessOnPath1162" d="M0 0H53.0V16.25H0Z" fill="#fff" transform="matrix(1.0,0.0,0.0,1.0,-26.5,0.0)"/><text id="ProcessOnText1163" fill="#000000" font-weight="normal" font-style="normal" text-decoration="blink" font-family="微软雅黑" text-anchor="middle" font-size="13" x="0.0" y="13.325">manifest</text></g></g><g id="ProcessOnG1164" transform="matrix(1.0,0.0,0.0,1.0,1622.726105749608,560.2004976868639)" opacity="1.0"><path id="ProcessOnPath1165" d="M0.0 0.0L180.48046875 0.0L180.48046875 98.0L0.0 98.0Z" stroke="#323232" stroke-width="2.0" stroke-dasharray="none" opacity="1.0" fill="#ffffff"/><g id="ProcessOnG1166" transform="matrix(1.0,0.0,0.0,1.0,10.0,32.75)"><text id="ProcessOnText1167" fill="#000000" font-weight="normal" font-style="normal" text-decoration="blink" font-family="微软雅黑" text-anchor="middle" font-size="13" x="80.240234375" y="13.325">&lt;&lt;subsystem&gt;&gt;</text><text id="ProcessOnText1168" fill="#000000" font-weight="normal" font-style="normal" text-decoration="blink" font-family="微软雅黑" text-anchor="middle" font-size="13" x="80.240234375" y="29.575">DBCluster</text></g></g><g id="ProcessOnG1169" transform="matrix(1.0,0.0,0.0,1.0,1764.226105749608,569.6636095643053)" opacity="1.0"><path id="ProcessOnPath1170" d="M2.1 0.0L21.0 0.0L21.0 22.0L2.1 22.0L2.1 17.6L0.0 17.6L0.0 13.2L2.1 13.2L2.1 8.8L0.0 8.8L0.0 4.4L2.1 4.4L2.1 0.0Z" stroke="#323232" stroke-width="2.0" stroke-dasharray="none" opacity="1.0" fill="#ffffff"/><path id="ProcessOnPath1171" d="M2.1 17.6L4.2 17.6L4.2 13.2L2.1 13.2M2.1 8.8L4.2 8.8L4.2 4.4L2.1 4.4" stroke="#323232" stroke-width="2.0" stroke-dasharray="none" opacity="1.0" fill="none"/><path id="ProcessOnPath1172" d="M2.1 0.0L21.0 0.0L21.0 22.0L2.1 22.0L2.1 17.6L0.0 17.6L0.0 13.2L2.1 13.2L2.1 8.8L0.0 8.8L0.0 4.4L2.1 4.4L2.1 0.0Z" stroke="#323232" stroke-width="0.0" stroke-dasharray="none" opacity="1.0" fill="none"/></g><g id="ProcessOnG1173"><path id="ProcessOnPath1174" d="M1394.03125 635.3639207184319L1622.726105749608 609.2004976868639" stroke="#323232" stroke-width="2.0" stroke-dasharray="10.0 4.0" fill="none" marker-end="url(#ProcessOnMarker1175)"/><g id="ProcessOnG1177" transform="matrix(1.0,0.0,0.0,1.0,1508.378677874804,614.1572092026479)"><path id="ProcessOnPath1178" d="M0 0H53.0V16.25H0Z" fill="#fff" transform="matrix(1.0,0.0,0.0,1.0,-26.5,0.0)"/><text id="ProcessOnText1179" fill="#000000" font-weight="normal" font-style="normal" text-decoration="blink" font-family="微软雅黑" text-anchor="middle" font-size="13" x="0.0" y="13.325">manifest</text></g></g><g id="ProcessOnG1180"><path id="ProcessOnPath1181" d="M1250.060822546483 834.020367681981L1622.726105749608 609.2004976868639" stroke="#323232" stroke-width="2.0" stroke-dasharray="10.0 4.0" fill="none" marker-end="url(#ProcessOnMarker1182)"/><g id="ProcessOnG1184" transform="matrix(1.0,0.0,0.0,1.0,1436.3934641480455,713.4854326844224)"><path id="ProcessOnPath1185" d="M0 0H53.0V16.25H0Z" fill="#fff" transform="matrix(1.0,0.0,0.0,1.0,-26.5,0.0)"/><text id="ProcessOnText1186" fill="#000000" font-weight="normal" font-style="normal" text-decoration="blink" font-family="微软雅黑" text-anchor="middle" font-size="13" x="0.0" y="13.325">manifest</text></g></g><g id="ProcessOnG1187"><path id="ProcessOnPath1188" d="M1492.0885325074205 834.020367681981L1622.726105749608 609.2004976868639" stroke="#323232" stroke-width="2.0" stroke-dasharray="10.0 4.0" fill="none" marker-end="url(#ProcessOnMarker1189)"/><g id="ProcessOnG1191" transform="matrix(1.0,0.0,0.0,1.0,1557.4073191285142,713.4854326844224)"><path id="ProcessOnPath1192" d="M0 0H53.0V16.25H0Z" fill="#fff" transform="matrix(1.0,0.0,0.0,1.0,-26.5,0.0)"/><text id="ProcessOnText1193" fill="#000000" font-weight="normal" font-style="normal" text-decoration="blink" font-family="微软雅黑" text-anchor="middle" font-size="13" x="0.0" y="13.325">manifest</text></g></g><g id="ProcessOnG1194" transform="matrix(1.0,0.0,0.0,1.0,613.03125,759.0455370545396)" opacity="1.0"><path id="ProcessOnPath1195" d="M0.0 15.574075486924912L219.55555555555554 15.574075486924912L219.55555555555554 140.16667938232422L0.0 140.16667938232422L0.0 15.574075486924912Z" stroke="#323232" stroke-width="2.0" stroke-dasharray="none" opacity="1.0" fill="#ffffff"/><path id="ProcessOnPath1196" d="M0.0 15.574075486924912L27.444444444444443 0.0L247.0 0.0L247.0 124.5926038953993L219.55555555555554 140.16667938232422L219.55555555555554 15.574075486924912L0.0 15.574075486924912ZM219.55555555555554 15.574075486924912L247.0 0.0" stroke="#323232" stroke-width="2.0" stroke-dasharray="none" opacity="1.0" fill="#e6e6e6"/><path id="ProcessOnPath1197" d="M0.0 0.0L247.0 0.0L247.0 140.16667938232422L0.0 140.16667938232422Z" stroke="#323232" stroke-width="0.0" stroke-dasharray="none" opacity="1.0" fill="none"/></g><g id="ProcessOnG1198" transform="matrix(1.0,0.0,0.0,1.0,625.9177971039604,803.0742567280904)" opacity="1.0"><path id="ProcessOnPath1199" d="M0.0 0.0L193.3330785400344 0.0L193.3330785400344 74.71611738188483L0.0 74.71611738188483Z" stroke="#323232" stroke-width="2.0" stroke-dasharray="none" opacity="1.0" fill="#ffffff"/><g id="ProcessOnG1200" transform="matrix(1.0,0.0,0.0,1.0,10.0,29.233058690942414)"><text id="ProcessOnText1201" fill="#000000" font-weight="normal" font-style="normal" text-decoration="blink" font-family="微软雅黑" text-anchor="middle" font-size="13" x="86.6665392700172" y="13.325">SearchEngine</text></g></g><g id="ProcessOnG1202"><path id="ProcessOnPath1203" d="M545.8089914917955 514.2122164368639L726.6455415271271 759.5032711385134" stroke="#323232" stroke-width="2.0" stroke-dasharray="none" fill="none"/></g><g id="ProcessOnG1204" transform="matrix(1.0,0.0,0.0,1.0,470.816437780858,995.7373858094224)" opacity="1.0"><path id="ProcessOnPath1205" d="M0.0 0.0L241.685302734375 0.0L241.685302734375 92.77823919057755L0.0 92.77823919057755Z" stroke="#323232" stroke-width="2.0" stroke-dasharray="none" opacity="1.0" fill="#ffffff"/><g id="ProcessOnG1206" transform="matrix(1.0,0.0,0.0,1.0,10.0,30.139119595288776)"><text id="ProcessOnText1207" fill="#000000" font-weight="normal" font-style="normal" text-decoration="blink" font-family="微软雅黑" text-anchor="middle" font-size="13" x="110.8426513671875" y="13.325">&lt;&lt;subsystem&gt;&gt;</text><text id="ProcessOnText1208" fill="#000000" font-weight="normal" font-style="normal" text-decoration="blink" font-family="微软雅黑" text-anchor="middle" font-size="13" x="110.8426513671875" y="29.575">SearchEngineCluster</text></g></g><g id="ProcessOnG1209" transform="matrix(1.0,0.0,0.0,1.0,660.3021509650669,1004.6962721079169)" opacity="1.0"><path id="ProcessOnPath1210" d="M2.8121554606843713 0.0L28.121554606843713 0.0L28.121554606843713 20.827767981558225L2.8121554606843713 20.827767981558225L2.8121554606843713 16.662214385246582L0.0 16.662214385246582L0.0 12.496660788934934L2.8121554606843713 12.496660788934934L2.8121554606843713 8.331107192623291L0.0 8.331107192623291L0.0 4.1655535963116455L2.8121554606843713 4.1655535963116455L2.8121554606843713 0.0Z" stroke="#323232" stroke-width="2.0" stroke-dasharray="none" opacity="1.0" fill="#ffffff"/><path id="ProcessOnPath1211" d="M2.8121554606843713 16.662214385246582L5.6243109213687426 16.662214385246582L5.6243109213687426 12.496660788934934L2.8121554606843713 12.496660788934934M2.8121554606843713 8.331107192623291L5.6243109213687426 8.331107192623291L5.6243109213687426 4.1655535963116455L2.8121554606843713 4.1655535963116455" stroke="#323232" stroke-width="2.0" stroke-dasharray="none" opacity="1.0" fill="none"/><path id="ProcessOnPath1212" d="M2.8121554606843713 0.0L28.121554606843713 0.0L28.121554606843713 20.827767981558225L2.8121554606843713 20.827767981558225L2.8121554606843713 16.662214385246582L0.0 16.662214385246582L0.0 12.496660788934934L2.8121554606843713 12.496660788934934L2.8121554606843713 8.331107192623291L0.0 8.331107192623291L0.0 4.1655535963116455L2.8121554606843713 4.1655535963116455L2.8121554606843713 0.0Z" stroke="#323232" stroke-width="0.0" stroke-dasharray="none" opacity="1.0" fill="none"/></g><g id="ProcessOnG1213"><path id="ProcessOnPath1214" d="M454.3089914917955 902.9951983094224L591.6590891480455 995.7373858094224" stroke="#323232" stroke-width="2.0" stroke-dasharray="10.0 4.0" fill="none" marker-end="url(#ProcessOnMarker1215)"/><g id="ProcessOnG1217" transform="matrix(1.0,0.0,0.0,1.0,522.9840403199205,941.2412920594224)"><path id="ProcessOnPath1218" d="M0 0H53.0V16.25H0Z" fill="#fff" transform="matrix(1.0,0.0,0.0,1.0,-26.5,0.0)"/><text id="ProcessOnText1219" fill="#000000" font-weight="normal" font-style="normal" text-decoration="blink" font-family="微软雅黑" text-anchor="middle" font-size="13" x="0.0" y="13.325">manifest</text></g></g><g id="ProcessOnG1220"><path id="ProcessOnPath1221" d="M736.53125 899.2122164368639L591.6590891480455 995.7373858094224" stroke="#323232" stroke-width="2.0" stroke-dasharray="10.0 4.0" fill="none" marker-end="url(#ProcessOnMarker1222)"/><g id="ProcessOnG1224" transform="matrix(1.0,0.0,0.0,1.0,664.0951695740227,939.3498011231432)"><path id="ProcessOnPath1225" d="M0 0H53.0V16.25H0Z" fill="#fff" transform="matrix(1.0,0.0,0.0,1.0,-26.5,0.0)"/><text id="ProcessOnText1226" fill="#000000" font-weight="normal" font-style="normal" text-decoration="blink" font-family="微软雅黑" text-anchor="middle" font-size="13" x="0.0" y="13.325">manifest</text></g></g></g></g></svg>