<svg xmlns="http://www.w3.org/2000/svg" xmlns:xlink="http://www.w3.org/1999/xlink" id="processonSvg1000" viewBox="388.49997049570175 190.99997049570175 1230.5312795042983 729.0" width="1230.5312795042983" height="729.0"><defs id="ProcessOnDefs1001"/><g id="ProcessOnG1002"><path id="ProcessOnPath1003" d="M388.49997049570175 190.99997049570175H1619.03125V919.9999704957017H388.49997049570175V190.99997049570175Z" fill="none"/><g id="ProcessOnG1004"><g id="ProcessOnG1005" transform="matrix(1.0,0.0,0.0,1.0,829.4999704957017,493.99997049570175)" opacity="1.0"><path id="ProcessOnPath1006" d="M0.0 4.0Q0.0 0.0 4.0 0.0L224.0 0.0Q228.0 0.0 228.0 4.0L228.0 72.0Q228.0 76.0 224.0 76.0L4.0 76.0Q0.0 76.0 0.0 72.0L0.0 4.0ZM20.0 0.0L20.0 76.0M208.0 0.0L208.0 76.0" stroke="#323232" stroke-width="2.0" stroke-dasharray="none" opacity="1.0" fill="#ffffff"/><g id="ProcessOnG1007" transform="matrix(1.0,0.0,0.0,1.0,20.0,21.75)"><text id="ProcessOnText1008" fill="#000000" font-weight="normal" font-style="normal" text-decoration="blink" font-family="微软雅黑" text-anchor="middle" font-size="13" x="94.0" y="13.325">《process》</text><text id="ProcessOnText1009" fill="#000000" font-weight="normal" font-style="normal" text-decoration="blink" font-family="微软雅黑" text-anchor="middle" font-size="13" x="94.0" y="29.575">Gateway</text></g></g><g id="ProcessOnG1010" transform="matrix(1.0,0.0,0.0,1.0,543.4999704957017,626.9999704957017)" opacity="1.0"><path id="ProcessOnPath1011" d="M0.0 4.0Q0.0 0.0 4.0 0.0L224.0 0.0Q228.0 0.0 228.0 4.0L228.0 72.0Q228.0 76.0 224.0 76.0L4.0 76.0Q0.0 76.0 0.0 72.0L0.0 4.0ZM20.0 0.0L20.0 76.0M208.0 0.0L208.0 76.0" stroke="#323232" stroke-width="2.0" stroke-dasharray="none" opacity="1.0" fill="#ffffff"/><g id="ProcessOnG1012" transform="matrix(1.0,0.0,0.0,1.0,20.0,21.75)"><text id="ProcessOnText1013" fill="#000000" font-weight="normal" font-style="normal" text-decoration="blink" font-family="微软雅黑" text-anchor="middle" font-size="13" x="94.0" y="13.325">《process》</text><text id="ProcessOnText1014" fill="#000000" font-weight="normal" font-style="normal" text-decoration="blink" font-family="微软雅黑" text-anchor="middle" font-size="13" x="94.0" y="29.575">SearchServer</text></g></g><g id="ProcessOnG1015" transform="matrix(1.0,0.0,0.0,1.0,408.49997049570175,741.9999704957017)" opacity="1.0"><path id="ProcessOnPath1016" d="M0.0 4.0Q0.0 0.0 4.0 0.0L224.0 0.0Q228.0 0.0 228.0 4.0L228.0 72.0Q228.0 76.0 224.0 76.0L4.0 76.0Q0.0 76.0 0.0 72.0L0.0 4.0ZM20.0 0.0L20.0 76.0M208.0 0.0L208.0 76.0" stroke="#323232" stroke-width="2.0" stroke-dasharray="none" opacity="1.0" fill="#ffffff"/><g id="ProcessOnG1017" transform="matrix(1.0,0.0,0.0,1.0,20.0,21.75)"><text id="ProcessOnText1018" fill="#000000" font-weight="normal" font-style="normal" text-decoration="blink" font-family="微软雅黑" text-anchor="middle" font-size="13" x="94.0" y="13.325">《process》</text><text id="ProcessOnText1019" fill="#000000" font-weight="normal" font-style="normal" text-decoration="blink" font-family="微软雅黑" text-anchor="middle" font-size="13" x="94.0" y="29.575">SearchCacheDB</text></g></g><g id="ProcessOnG1020" transform="matrix(1.0,0.0,0.0,1.0,683.9999704957017,734.9999704957017)" opacity="1.0"><path id="ProcessOnPath1021" d="M8.0 8.0Q8.0 0.0 16.0 0.0L214.53127950429825 0.0Q222.53127950429825 0.0 222.53127950429825 8.0L222.53127950429825 86.51565450429825Q222.53127950429825 94.51565450429825 214.53127950429825 94.51565450429825L214.53127950429825 94.51565450429825" stroke="#323232" stroke-width="2.0" stroke-dasharray="none" opacity="1.0" fill="#ffffff"/><path id="ProcessOnPath1022" d="M0.0 16.0Q0.0 8.0 8.0 8.0L206.53127950429825 8.0Q214.53127950429825 8.0 214.53127950429825 16.0L214.53127950429825 94.51565450429825Q214.53127950429825 102.51565450429825 206.53127950429825 102.51565450429825L8.0 102.51565450429825Q0.0 102.51565450429825 0.0 94.51565450429825L0.0 16.0Z" stroke="#323232" stroke-width="2.0" stroke-dasharray="none" opacity="1.0" fill="#ffffff"/><path id="ProcessOnPath1023" d="M0.0 4.0Q0.0 0.0 4.0 0.0L218.53127950429825 0.0Q222.53127950429825 0.0 222.53127950429825 4.0L222.53127950429825 98.51565450429825Q222.53127950429825 102.51565450429825 218.53127950429825 102.51565450429825L4.0 102.51565450429825Q0.0 102.51565450429825 0.0 98.51565450429825Z" stroke="#323232" stroke-width="0.0" stroke-dasharray="none" opacity="1.0" fill="none"/><g id="ProcessOnG1024" transform="matrix(1.0,0.0,0.0,1.0,16.0,39.00782725214913)"><text id="ProcessOnText1025" fill="#000000" font-weight="normal" font-style="normal" text-decoration="blink" font-family="微软雅黑" text-anchor="middle" font-size="13" x="91.26563975214913" y="13.325">《process》</text><text id="ProcessOnText1026" fill="#000000" font-weight="normal" font-style="normal" text-decoration="blink" font-family="微软雅黑" text-anchor="middle" font-size="13" x="91.26563975214913" y="29.575">SearchEngineCluster</text></g></g><g id="ProcessOnG1027" transform="matrix(1.0,0.0,0.0,1.0,1331.4999704957017,655.9999704957017)" opacity="1.0"><path id="ProcessOnPath1028" d="M0.0 4.0Q0.0 0.0 4.0 0.0L224.0 0.0Q228.0 0.0 228.0 4.0L228.0 72.0Q228.0 76.0 224.0 76.0L4.0 76.0Q0.0 76.0 0.0 72.0L0.0 4.0ZM20.0 0.0L20.0 76.0M208.0 0.0L208.0 76.0" stroke="#323232" stroke-width="2.0" stroke-dasharray="none" opacity="1.0" fill="#ffffff"/><g id="ProcessOnG1029" transform="matrix(1.0,0.0,0.0,1.0,20.0,21.75)"><text id="ProcessOnText1030" fill="#000000" font-weight="normal" font-style="normal" text-decoration="blink" font-family="微软雅黑" text-anchor="middle" font-size="13" x="94.0" y="13.325">《process》</text><text id="ProcessOnText1031" fill="#000000" font-weight="normal" font-style="normal" text-decoration="blink" font-family="微软雅黑" text-anchor="middle" font-size="13" x="94.0" y="29.575">CommentServer</text></g></g><g id="ProcessOnG1032" transform="matrix(1.0,0.0,0.0,1.0,939.4999704957017,674.9999704957017)" opacity="1.0"><path id="ProcessOnPath1033" d="M0.0 4.0Q0.0 0.0 4.0 0.0L224.0 0.0Q228.0 0.0 228.0 4.0L228.0 72.0Q228.0 76.0 224.0 76.0L4.0 76.0Q0.0 76.0 0.0 72.0L0.0 4.0ZM20.0 0.0L20.0 76.0M208.0 0.0L208.0 76.0" stroke="#323232" stroke-width="2.0" stroke-dasharray="none" opacity="1.0" fill="#ffffff"/><g id="ProcessOnG1034" transform="matrix(1.0,0.0,0.0,1.0,20.0,21.75)"><text id="ProcessOnText1035" fill="#000000" font-weight="normal" font-style="normal" text-decoration="blink" font-family="微软雅黑" text-anchor="middle" font-size="13" x="94.0" y="13.325">《process》</text><text id="ProcessOnText1036" fill="#000000" font-weight="normal" font-style="normal" text-decoration="blink" font-family="微软雅黑" text-anchor="middle" font-size="13" x="94.0" y="29.575">StaticContentServer</text></g></g><g id="ProcessOnG1037" transform="matrix(1.0,0.0,0.0,1.0,1327.4999704957017,509.99997049570175)" opacity="1.0"><path id="ProcessOnPath1038" d="M0.0 4.0Q0.0 0.0 4.0 0.0L224.0 0.0Q228.0 0.0 228.0 4.0L228.0 72.0Q228.0 76.0 224.0 76.0L4.0 76.0Q0.0 76.0 0.0 72.0L0.0 4.0ZM20.0 0.0L20.0 76.0M208.0 0.0L208.0 76.0" stroke="#323232" stroke-width="2.0" stroke-dasharray="none" opacity="1.0" fill="#ffffff"/><g id="ProcessOnG1039" transform="matrix(1.0,0.0,0.0,1.0,20.0,21.75)"><text id="ProcessOnText1040" fill="#000000" font-weight="normal" font-style="normal" text-decoration="blink" font-family="微软雅黑" text-anchor="middle" font-size="13" x="94.0" y="13.325">《process》</text><text id="ProcessOnText1041" fill="#000000" font-weight="normal" font-style="normal" text-decoration="blink" font-family="微软雅黑" text-anchor="middle" font-size="13" x="94.0" y="29.575">Monitor</text></g></g><g id="ProcessOnG1042" transform="matrix(1.0,0.0,0.0,1.0,829.4999704957017,355.99997049570175)" opacity="1.0"><path id="ProcessOnPath1043" d="M0.0 4.0Q0.0 0.0 4.0 0.0L224.0 0.0Q228.0 0.0 228.0 4.0L228.0 72.0Q228.0 76.0 224.0 76.0L4.0 76.0Q0.0 76.0 0.0 72.0L0.0 4.0ZM20.0 0.0L20.0 76.0M208.0 0.0L208.0 76.0" stroke="#323232" stroke-width="2.0" stroke-dasharray="none" opacity="1.0" fill="#ffffff"/><g id="ProcessOnG1044" transform="matrix(1.0,0.0,0.0,1.0,20.0,21.75)"><text id="ProcessOnText1045" fill="#000000" font-weight="normal" font-style="normal" text-decoration="blink" font-family="微软雅黑" text-anchor="middle" font-size="13" x="94.0" y="13.325">《process》</text><text id="ProcessOnText1046" fill="#000000" font-weight="normal" font-style="normal" text-decoration="blink" font-family="微软雅黑" text-anchor="middle" font-size="13" x="94.0" y="29.575">Firewall</text></g></g><g id="ProcessOnG1047"><path id="ProcessOnPath1048" d="M943.4999704957017 569.9999704957017L657.4999704957017 626.9999704957017" stroke="#323232" stroke-width="2.0" stroke-dasharray="none" fill="none"/></g><g id="ProcessOnG1049"><path id="ProcessOnPath1050" d="M943.4999704957017 569.9999704957017L1445.4999704957017 655.9999704957017" stroke="#323232" stroke-width="2.0" stroke-dasharray="none" fill="none"/></g><g id="ProcessOnG1051"><path id="ProcessOnPath1052" d="M657.4999704957017 702.9999704957017L522.4999704957017 741.9999704957017" stroke="#323232" stroke-width="2.0" stroke-dasharray="none" fill="none"/></g><g id="ProcessOnG1053"><path id="ProcessOnPath1054" d="M657.4999704957017 702.9999704957017L795.2656102478509 734.9999704957017" stroke="#323232" stroke-width="2.0" stroke-dasharray="none" fill="none"/></g><g id="ProcessOnG1055"><path id="ProcessOnPath1056" d="M943.4999704957017 569.9999704957017L1053.4999704957017 674.9999704957017" stroke="#323232" stroke-width="2.0" stroke-dasharray="none" fill="none"/></g><g id="ProcessOnG1057"><path id="ProcessOnPath1058" d="M943.4999704957017 431.99997049570175L943.4999704957017 493.99997049570175" stroke="#323232" stroke-width="2.0" stroke-dasharray="none" fill="none"/></g><g id="ProcessOnG1059"><path id="ProcessOnPath1060" d="M1445.4999704957017 731.9999704957017L1445.4999704957017 809.9999704957017" stroke="#323232" stroke-width="2.0" stroke-dasharray="none" fill="none"/></g><g id="ProcessOnG1061" transform="matrix(1.0,0.0,0.0,1.0,829.4999704957017,210.99997049570175)" opacity="1.0"><path id="ProcessOnPath1062" d="M0.0 4.0Q0.0 0.0 4.0 0.0L224.0 0.0Q228.0 0.0 228.0 4.0L228.0 72.0Q228.0 76.0 224.0 76.0L4.0 76.0Q0.0 76.0 0.0 72.0L0.0 4.0ZM20.0 0.0L20.0 76.0M208.0 0.0L208.0 76.0" stroke="#323232" stroke-width="2.0" stroke-dasharray="none" opacity="1.0" fill="#ffffff"/><g id="ProcessOnG1063" transform="matrix(1.0,0.0,0.0,1.0,20.0,21.75)"><text id="ProcessOnText1064" fill="#000000" font-weight="normal" font-style="normal" text-decoration="blink" font-family="微软雅黑" text-anchor="middle" font-size="13" x="94.0" y="13.325">《process》</text><text id="ProcessOnText1065" fill="#000000" font-weight="normal" font-style="normal" text-decoration="blink" font-family="微软雅黑" text-anchor="middle" font-size="13" x="94.0" y="29.575">Browser</text></g></g><g id="ProcessOnG1066"><path id="ProcessOnPath1067" d="M943.4999704957017 286.99997049570175L943.4999704957017 355.99997049570175" stroke="#323232" stroke-width="2.0" stroke-dasharray="none" fill="none"/></g><g id="ProcessOnG1068" transform="matrix(1.0,0.0,0.0,1.0,1342.9999704957017,809.9999704957017)" opacity="1.0"><path id="ProcessOnPath1069" d="M8.0 8.0Q8.0 0.0 16.0 0.0L197.0 0.0Q205.0 0.0 205.0 8.0L205.0 74.0Q205.0 82.0 197.0 82.0L197.0 82.0" stroke="#323232" stroke-width="2.0" stroke-dasharray="none" opacity="1.0" fill="#ffffff"/><path id="ProcessOnPath1070" d="M0.0 16.0Q0.0 8.0 8.0 8.0L189.0 8.0Q197.0 8.0 197.0 16.0L197.0 82.0Q197.0 90.0 189.0 90.0L8.0 90.0Q0.0 90.0 0.0 82.0L0.0 16.0Z" stroke="#323232" stroke-width="2.0" stroke-dasharray="none" opacity="1.0" fill="#ffffff"/><path id="ProcessOnPath1071" d="M0.0 4.0Q0.0 0.0 4.0 0.0L201.0 0.0Q205.0 0.0 205.0 4.0L205.0 86.0Q205.0 90.0 201.0 90.0L4.0 90.0Q0.0 90.0 0.0 86.0Z" stroke="#323232" stroke-width="0.0" stroke-dasharray="none" opacity="1.0" fill="none"/><g id="ProcessOnG1072" transform="matrix(1.0,0.0,0.0,1.0,16.0,32.75)"><text id="ProcessOnText1073" fill="#000000" font-weight="normal" font-style="normal" text-decoration="blink" font-family="微软雅黑" text-anchor="middle" font-size="13" x="82.5" y="13.325">《process》</text><text id="ProcessOnText1074" fill="#000000" font-weight="normal" font-style="normal" text-decoration="blink" font-family="微软雅黑" text-anchor="middle" font-size="13" x="82.5" y="29.575">DBCluster</text></g></g><g id="ProcessOnG1075"><path id="ProcessOnPath1076" d="M1441.4999704957017 585.9999704957017L718.03125 627.515625" stroke="#323232" stroke-width="2.0" stroke-dasharray="none" fill="none"/></g><g id="ProcessOnG1077"><path id="ProcessOnPath1078" d="M1441.4999704957017 585.9999704957017L1445.4999704957017 655.9999704957017" stroke="#323232" stroke-width="2.0" stroke-dasharray="none" fill="none"/></g><g id="ProcessOnG1079" transform="matrix(1.0,0.0,0.0,1.0,1316.9999704957017,294.4843159914035)" opacity="1.0"><path id="ProcessOnPath1080" d="M8.0 8.0Q8.0 0.0 16.0 0.0L99.03127950429825 0.0Q107.03127950429825 0.0 107.03127950429825 8.0L107.03127950429825 22.03130900859651Q107.03127950429825 30.03130900859651 99.03127950429825 30.03130900859651L99.03127950429825 30.03130900859651" stroke="#323232" stroke-width="2.0" stroke-dasharray="none" opacity="1.0" fill="#ffffff"/><path id="ProcessOnPath1081" d="M0.0 16.0Q0.0 8.0 8.0 8.0L91.03127950429825 8.0Q99.03127950429825 8.0 99.03127950429825 16.0L99.03127950429825 30.03130900859651Q99.03127950429825 38.03130900859651 91.03127950429825 38.03130900859651L8.0 38.03130900859651Q0.0 38.03130900859651 0.0 30.03130900859651L0.0 16.0Z" stroke="#323232" stroke-width="2.0" stroke-dasharray="none" opacity="1.0" fill="#ffffff"/><path id="ProcessOnPath1082" d="M0.0 4.0Q0.0 0.0 4.0 0.0L103.03127950429825 0.0Q107.03127950429825 0.0 107.03127950429825 4.0L107.03127950429825 34.03130900859651Q107.03127950429825 38.03130900859651 103.03127950429825 38.03130900859651L4.0 38.03130900859651Q0.0 38.03130900859651 0.0 34.03130900859651Z" stroke="#323232" stroke-width="0.0" stroke-dasharray="none" opacity="1.0" fill="none"/></g><g id="ProcessOnG1083" transform="matrix(1.0,0.0,0.0,1.0,1439.03125,293.49997049570175)" opacity="1.0"><path id="ProcessOnPath1084" d="M0.0 0.0L160.0 0.0L160.0 40.0L0.0 40.0Z" stroke="#323232" stroke-width="0.0" stroke-dasharray="none" opacity="1.0" fill="none"/><g id="ProcessOnG1085" transform="matrix(1.0,0.0,0.0,1.0,0.0,11.875)"><text id="ProcessOnText1086" fill="#000000" font-weight="normal" font-style="normal" text-decoration="blink" font-family="微软雅黑" text-anchor="middle" font-size="13" x="80.0" y="13.325">代表多个进程</text></g></g><g id="ProcessOnG1087" transform="matrix(1.0,0.0,0.0,1.0,1316.9999704957017,229.515625)" opacity="1.0"><path id="ProcessOnPath1088" d="M0.0 4.0Q0.0 0.0 4.0 0.0L103.03127950429825 0.0Q107.03127950429825 0.0 107.03127950429825 4.0L107.03127950429825 26.0Q107.03127950429825 30.0 103.03127950429825 30.0L4.0 30.0Q0.0 30.0 0.0 26.0L0.0 4.0ZM17.83854658404971 0.0L17.83854658404971 30.0M89.19273292024855 0.0L89.19273292024855 30.0" stroke="#323232" stroke-width="2.0" stroke-dasharray="none" opacity="1.0" fill="#ffffff"/></g><g id="ProcessOnG1089" transform="matrix(1.0,0.0,0.0,1.0,1439.03125,224.515625)" opacity="1.0"><path id="ProcessOnPath1090" d="M0.0 0.0L160.0 0.0L160.0 40.0L0.0 40.0Z" stroke="#323232" stroke-width="0.0" stroke-dasharray="none" opacity="1.0" fill="none"/><g id="ProcessOnG1091" transform="matrix(1.0,0.0,0.0,1.0,0.0,11.875)"><text id="ProcessOnText1092" fill="#000000" font-weight="normal" font-style="normal" text-decoration="blink" font-family="微软雅黑" text-anchor="middle" font-size="13" x="80.0" y="13.325">代表单个进程</text></g></g></g></g></svg>