<svg xmlns="http://www.w3.org/2000/svg" xmlns:xlink="http://www.w3.org/1999/xlink" id="processonSvg1000" viewBox="137.03125 131.515625 1915.5 1114.5" width="1915.5" height="1114.5"><defs id="ProcessOnDefs1001"><marker id="ProcessOnMarker1059" markerUnits="userSpaceOnUse" orient="auto" markerWidth="10.0" markerHeight="10.0" viewBox="-1.0 -1.0 10.0 10.0" refX="0.0" refY="4.0"><path id="ProcessOnPath1060" d="M0 4.0A4.0 4.0 0 0 1 4.0 0A4.0 4.0 0 1 1 0 4.0" stroke="#323232" stroke-width="2.0" fill="#fff"/></marker><marker id="ProcessOnMarker1063" markerUnits="userSpaceOnUse" orient="auto" markerWidth="10.0" markerHeight="10.0" viewBox="-1.0 -1.0 10.0 10.0" refX="0.0" refY="4.0"><path id="ProcessOnPath1064" d="M0 4.0A4.0 4.0 0 0 1 4.0 0A4.0 4.0 0 1 1 0 4.0" stroke="#323232" stroke-width="2.0" fill="#fff"/></marker><marker id="ProcessOnMarker1067" markerUnits="userSpaceOnUse" orient="auto" markerWidth="10.0" markerHeight="10.0" viewBox="-1.0 -1.0 10.0 10.0" refX="0.0" refY="4.0"><path id="ProcessOnPath1068" d="M0 4.0A4.0 4.0 0 0 1 4.0 0A4.0 4.0 0 1 1 0 4.0" stroke="#323232" stroke-width="2.0" fill="#fff"/></marker><marker id="ProcessOnMarker1071" markerUnits="userSpaceOnUse" orient="auto" markerWidth="10.0" markerHeight="10.0" viewBox="-1.0 -1.0 10.0 10.0" refX="0.0" refY="4.0"><path id="ProcessOnPath1072" d="M0 4.0A4.0 4.0 0 0 1 4.0 0A4.0 4.0 0 1 1 0 4.0" stroke="#323232" stroke-width="2.0" fill="#fff"/></marker><marker id="ProcessOnMarker1075" markerUnits="userSpaceOnUse" orient="auto" markerWidth="10.0" markerHeight="10.0" viewBox="-1.0 -1.0 10.0 10.0" refX="0.0" refY="4.0"><path id="ProcessOnPath1076" d="M0 4.0A4.0 4.0 0 0 1 4.0 0A4.0 4.0 0 1 1 0 4.0" stroke="#323232" stroke-width="2.0" fill="#fff"/></marker><marker id="ProcessOnMarker1083" markerUnits="userSpaceOnUse" orient="auto" markerWidth="10.0" markerHeight="10.0" viewBox="-1.0 -1.0 10.0 10.0" refX="0.0" refY="4.0"><path id="ProcessOnPath1084" d="M0 4.0A4.0 4.0 0 0 1 4.0 0A4.0 4.0 0 1 1 0 4.0" stroke="#323232" stroke-width="2.0" fill="#fff"/></marker><marker id="ProcessOnMarker1087" markerUnits="userSpaceOnUse" orient="auto" markerWidth="10.0" markerHeight="10.0" viewBox="-1.0 -1.0 10.0 10.0" refX="0.0" refY="4.0"><path id="ProcessOnPath1088" d="M0 4.0A4.0 4.0 0 0 1 4.0 0A4.0 4.0 0 1 1 0 4.0" stroke="#323232" stroke-width="2.0" fill="#fff"/></marker><marker id="ProcessOnMarker1091" markerUnits="userSpaceOnUse" orient="auto" markerWidth="10.0" markerHeight="10.0" viewBox="-1.0 -1.0 10.0 10.0" refX="0.0" refY="4.0"><path id="ProcessOnPath1092" d="M0 4.0A4.0 4.0 0 0 1 4.0 0A4.0 4.0 0 1 1 0 4.0" stroke="#323232" stroke-width="2.0" fill="#fff"/></marker><marker id="ProcessOnMarker1095" markerUnits="userSpaceOnUse" orient="auto" markerWidth="10.0" markerHeight="10.0" viewBox="-1.0 -1.0 10.0 10.0" refX="0.0" refY="4.0"><path id="ProcessOnPath1096" d="M0 4.0A4.0 4.0 0 0 1 4.0 0A4.0 4.0 0 1 1 0 4.0" stroke="#323232" stroke-width="2.0" fill="#fff"/></marker><marker id="ProcessOnMarker1099" markerUnits="userSpaceOnUse" orient="auto" markerWidth="10.0" markerHeight="10.0" viewBox="-1.0 -1.0 10.0 10.0" refX="0.0" refY="4.0"><path id="ProcessOnPath1100" d="M0 4.0A4.0 4.0 0 0 1 4.0 0A4.0 4.0 0 1 1 0 4.0" stroke="#323232" stroke-width="2.0" fill="#fff"/></marker><marker id="ProcessOnMarker1103" markerUnits="userSpaceOnUse" orient="auto" markerWidth="10.0" markerHeight="10.0" viewBox="-1.0 -1.0 10.0 10.0" refX="0.0" refY="4.0"><path id="ProcessOnPath1104" d="M0 4.0A4.0 4.0 0 0 1 4.0 0A4.0 4.0 0 1 1 0 4.0" stroke="#323232" stroke-width="2.0" fill="#fff"/></marker><marker id="ProcessOnMarker1107" markerUnits="userSpaceOnUse" orient="auto" markerWidth="10.0" markerHeight="10.0" viewBox="-1.0 -1.0 10.0 10.0" refX="0.0" refY="4.0"><path id="ProcessOnPath1108" d="M0 4.0A4.0 4.0 0 0 1 4.0 0A4.0 4.0 0 1 1 0 4.0" stroke="#323232" stroke-width="2.0" fill="#fff"/></marker><marker id="ProcessOnMarker1123" markerUnits="userSpaceOnUse" orient="auto" markerWidth="10.0" markerHeight="10.0" viewBox="-1.0 -1.0 10.0 10.0" refX="0.0" refY="4.0"><path id="ProcessOnPath1124" d="M0 4.0A4.0 4.0 0 0 1 4.0 0A4.0 4.0 0 1 1 0 4.0" stroke="#323232" stroke-width="2.0" fill="#fff"/></marker><marker id="ProcessOnMarker1127" markerUnits="userSpaceOnUse" orient="auto" markerWidth="10.0" markerHeight="10.0" viewBox="-1.0 -1.0 10.0 10.0" refX="0.0" refY="4.0"><path id="ProcessOnPath1128" d="M0 4.0A4.0 4.0 0 0 1 4.0 0A4.0 4.0 0 1 1 0 4.0" stroke="#323232" stroke-width="2.0" fill="#fff"/></marker><marker id="ProcessOnMarker1131" markerUnits="userSpaceOnUse" orient="auto" markerWidth="10.0" markerHeight="10.0" viewBox="-1.0 -1.0 10.0 10.0" refX="0.0" refY="4.0"><path id="ProcessOnPath1132" d="M0 4.0A4.0 4.0 0 0 1 4.0 0A4.0 4.0 0 1 1 0 4.0" stroke="#323232" stroke-width="2.0" fill="#fff"/></marker><marker id="ProcessOnMarker1139" markerUnits="userSpaceOnUse" orient="auto" markerWidth="10.0" markerHeight="10.0" viewBox="-1.0 -1.0 10.0 10.0" refX="0.0" refY="4.0"><path id="ProcessOnPath1140" d="M0 4.0A4.0 4.0 0 0 1 4.0 0A4.0 4.0 0 1 1 0 4.0" stroke="#323232" stroke-width="2.0" fill="#fff"/></marker><marker id="ProcessOnMarker1147" markerUnits="userSpaceOnUse" orient="auto" markerWidth="10.0" markerHeight="10.0" viewBox="-1.0 -1.0 10.0 10.0" refX="0.0" refY="4.0"><path id="ProcessOnPath1148" d="M0 4.0A4.0 4.0 0 0 1 4.0 0A4.0 4.0 0 1 1 0 4.0" stroke="#323232" stroke-width="2.0" fill="#fff"/></marker><marker id="ProcessOnMarker1159" markerUnits="userSpaceOnUse" orient="auto" markerWidth="10.0" markerHeight="10.0" viewBox="-1.0 -1.0 10.0 10.0" refX="0.0" refY="4.0"><path id="ProcessOnPath1160" d="M0 4.0A4.0 4.0 0 0 1 4.0 0A4.0 4.0 0 1 1 0 4.0" stroke="#323232" stroke-width="2.0" fill="#fff"/></marker><marker id="ProcessOnMarker1167" markerUnits="userSpaceOnUse" orient="auto" markerWidth="10.0" markerHeight="10.0" viewBox="-1.0 -1.0 10.0 10.0" refX="0.0" refY="4.0"><path id="ProcessOnPath1168" d="M0 4.0A4.0 4.0 0 0 1 4.0 0A4.0 4.0 0 1 1 0 4.0" stroke="#323232" stroke-width="2.0" fill="#fff"/></marker><marker id="ProcessOnMarker1171" markerUnits="userSpaceOnUse" orient="auto" markerWidth="10.0" markerHeight="10.0" viewBox="-1.0 -1.0 10.0 10.0" refX="0.0" refY="4.0"><path id="ProcessOnPath1172" d="M0 4.0A4.0 4.0 0 0 1 4.0 0A4.0 4.0 0 1 1 0 4.0" stroke="#323232" stroke-width="2.0" fill="#fff"/></marker><marker id="ProcessOnMarker1179" markerUnits="userSpaceOnUse" orient="auto" markerWidth="10.0" markerHeight="10.0" viewBox="-1.0 -1.0 10.0 10.0" refX="0.0" refY="4.0"><path id="ProcessOnPath1180" d="M0 4.0A4.0 4.0 0 0 1 4.0 0A4.0 4.0 0 1 1 0 4.0" stroke="#323232" stroke-width="2.0" fill="#fff"/></marker><marker id="ProcessOnMarker1187" markerUnits="userSpaceOnUse" orient="auto" markerWidth="10.0" markerHeight="10.0" viewBox="-1.0 -1.0 10.0 10.0" refX="0.0" refY="4.0"><path id="ProcessOnPath1188" d="M0 4.0A4.0 4.0 0 0 1 4.0 0A4.0 4.0 0 1 1 0 4.0" stroke="#323232" stroke-width="2.0" fill="#fff"/></marker><marker id="ProcessOnMarker1191" markerUnits="userSpaceOnUse" orient="auto" markerWidth="10.0" markerHeight="10.0" viewBox="-1.0 -1.0 10.0 10.0" refX="0.0" refY="4.0"><path id="ProcessOnPath1192" d="M0 4.0A4.0 4.0 0 0 1 4.0 0A4.0 4.0 0 1 1 0 4.0" stroke="#323232" stroke-width="2.0" fill="#fff"/></marker><marker id="ProcessOnMarker1195" markerUnits="userSpaceOnUse" orient="auto" markerWidth="10.0" markerHeight="10.0" viewBox="-1.0 -1.0 10.0 10.0" refX="0.0" refY="4.0"><path id="ProcessOnPath1196" d="M0 4.0A4.0 4.0 0 0 1 4.0 0A4.0 4.0 0 1 1 0 4.0" stroke="#323232" stroke-width="2.0" fill="#fff"/></marker><marker id="ProcessOnMarker1207" markerUnits="userSpaceOnUse" orient="auto" markerWidth="10.0" markerHeight="10.0" viewBox="-1.0 -1.0 10.0 10.0" refX="0.0" refY="4.0"><path id="ProcessOnPath1208" d="M0 4.0A4.0 4.0 0 0 1 4.0 0A4.0 4.0 0 1 1 0 4.0" stroke="#323232" stroke-width="2.0" fill="#fff"/></marker><marker id="ProcessOnMarker1211" markerUnits="userSpaceOnUse" orient="auto" markerWidth="10.0" markerHeight="10.0" viewBox="-1.0 -1.0 10.0 10.0" refX="0.0" refY="4.0"><path id="ProcessOnPath1212" d="M0 4.0A4.0 4.0 0 0 1 4.0 0A4.0 4.0 0 1 1 0 4.0" stroke="#323232" stroke-width="2.0" fill="#fff"/></marker><marker id="ProcessOnMarker1215" markerUnits="userSpaceOnUse" orient="auto" markerWidth="10.0" markerHeight="10.0" viewBox="-1.0 -1.0 10.0 10.0" refX="0.0" refY="4.0"><path id="ProcessOnPath1216" d="M0 4.0A4.0 4.0 0 0 1 4.0 0A4.0 4.0 0 1 1 0 4.0" stroke="#323232" stroke-width="2.0" fill="#fff"/></marker><marker id="ProcessOnMarker1223" markerUnits="userSpaceOnUse" orient="auto" markerWidth="10.0" markerHeight="10.0" viewBox="-1.0 -1.0 10.0 10.0" refX="0.0" refY="4.0"><path id="ProcessOnPath1224" d="M0 4.0A4.0 4.0 0 0 1 4.0 0A4.0 4.0 0 1 1 0 4.0" stroke="#323232" stroke-width="2.0" fill="#fff"/></marker><marker id="ProcessOnMarker1231" markerUnits="userSpaceOnUse" orient="auto" markerWidth="10.0" markerHeight="10.0" viewBox="-1.0 -1.0 10.0 10.0" refX="0.0" refY="4.0"><path id="ProcessOnPath1232" d="M0 4.0A4.0 4.0 0 0 1 4.0 0A4.0 4.0 0 1 1 0 4.0" stroke="#323232" stroke-width="2.0" fill="#fff"/></marker></defs><g id="ProcessOnG1002"><path id="ProcessOnPath1003" d="M137.03125 131.515625H2052.53125V1246.015625H137.03125V131.515625Z" fill="none"/><g id="ProcessOnG1004"><g id="ProcessOnG1005" transform="matrix(1.0,0.0,0.0,1.0,1115.03125,292.515625)" opacity="1.0"><path id="ProcessOnPath1006" d="M0.0 0.0L167.0 0.0L167.0 77.0L0.0 77.0Z" stroke="#323232" stroke-width="2.0" stroke-dasharray="none" opacity="1.0" fill="#ffffff"/><g id="ProcessOnG1007" transform="matrix(1.0,0.0,0.0,1.0,10.0,30.375)"><text id="ProcessOnText1008" fill="#000000" font-weight="normal" font-style="normal" text-decoration="blink" font-family="微软雅黑" text-anchor="middle" font-size="13" x="73.5" y="13.325">WebServer</text></g></g><g id="ProcessOnG1009" transform="matrix(1.0,0.0,0.0,1.0,628.53125,474.015625)" opacity="1.0"><path id="ProcessOnPath1010" d="M0.0 0.0L167.0 0.0L167.0 77.0L0.0 77.0Z" stroke="#323232" stroke-width="2.0" stroke-dasharray="none" opacity="1.0" fill="#ffffff"/><g id="ProcessOnG1011" transform="matrix(1.0,0.0,0.0,1.0,10.0,30.375)"><text id="ProcessOnText1012" fill="#000000" font-weight="normal" font-style="normal" text-decoration="blink" font-family="微软雅黑" text-anchor="middle" font-size="13" x="73.5" y="13.325">SearchServer</text></g></g><g id="ProcessOnG1013" transform="matrix(1.0,0.0,0.0,1.0,979.53125,611.515625)" opacity="1.0"><path id="ProcessOnPath1014" d="M0.0 0.0L212.5 0.0L212.5 84.0L0.0 84.0Z" stroke="#323232" stroke-width="2.0" stroke-dasharray="none" opacity="1.0" fill="#ffffff"/><g id="ProcessOnG1015" transform="matrix(1.0,0.0,0.0,1.0,10.0,33.875)"><text id="ProcessOnText1016" fill="#000000" font-weight="normal" font-style="normal" text-decoration="blink" font-family="微软雅黑" text-anchor="middle" font-size="13" x="96.25" y="13.325">SearchResultPages</text></g></g><g id="ProcessOnG1017" transform="matrix(1.0,0.0,0.0,1.0,177.03125,656.015625)" opacity="1.0"><path id="ProcessOnPath1018" d="M0.0 0.0L167.0 0.0L167.0 77.0L0.0 77.0Z" stroke="#323232" stroke-width="2.0" stroke-dasharray="none" opacity="1.0" fill="#ffffff"/><g id="ProcessOnG1019" transform="matrix(1.0,0.0,0.0,1.0,10.0,30.375)"><text id="ProcessOnText1020" fill="#000000" font-weight="normal" font-style="normal" text-decoration="blink" font-family="微软雅黑" text-anchor="middle" font-size="13" x="73.5" y="13.325">CacheService</text></g></g><g id="ProcessOnG1021" transform="matrix(1.0,0.0,0.0,1.0,157.03125,915.015625)" opacity="1.0"><path id="ProcessOnPath1022" d="M0.0 0.0L167.0 0.0L167.0 77.0L0.0 77.0Z" stroke="#323232" stroke-width="2.0" stroke-dasharray="none" opacity="1.0" fill="#ffffff"/><g id="ProcessOnG1023" transform="matrix(1.0,0.0,0.0,1.0,10.0,30.375)"><text id="ProcessOnText1024" fill="#000000" font-weight="normal" font-style="normal" text-decoration="blink" font-family="微软雅黑" text-anchor="middle" font-size="13" x="73.5" y="13.325">CacheDB</text></g></g><g id="ProcessOnG1025" transform="matrix(1.0,0.0,0.0,1.0,1603.28125,661.015625)" opacity="1.0"><path id="ProcessOnPath1026" d="M0.0 0.0L188.0 0.0L188.0 74.5L0.0 74.5Z" stroke="#323232" stroke-width="2.0" stroke-dasharray="none" opacity="1.0" fill="#ffffff"/><g id="ProcessOnG1027" transform="matrix(1.0,0.0,0.0,1.0,10.0,29.125)"><text id="ProcessOnText1028" fill="#000000" font-weight="normal" font-style="normal" text-decoration="blink" font-family="微软雅黑" text-anchor="middle" font-size="13" x="84.0" y="13.325">CommentServer</text></g></g><g id="ProcessOnG1029" transform="matrix(1.0,0.0,0.0,1.0,1423.28125,850.265625)" opacity="1.0"><path id="ProcessOnPath1030" d="M0.0 0.0L259.0 0.0L259.0 80.5L0.0 80.5Z" stroke="#323232" stroke-width="2.0" stroke-dasharray="none" opacity="1.0" fill="#ffffff"/><g id="ProcessOnG1031" transform="matrix(1.0,0.0,0.0,1.0,10.0,32.125)"><text id="ProcessOnText1032" fill="#000000" font-weight="normal" font-style="normal" text-decoration="blink" font-family="微软雅黑" text-anchor="middle" font-size="13" x="119.5" y="13.325">CommentDataService</text></g></g><g id="ProcessOnG1033" transform="matrix(1.0,0.0,0.0,1.0,1221.53125,613.265625)" opacity="1.0"><path id="ProcessOnPath1034" d="M0.0 0.0L205.0 0.0L205.0 80.5L0.0 80.5Z" stroke="#323232" stroke-width="2.0" stroke-dasharray="none" opacity="1.0" fill="#ffffff"/><g id="ProcessOnG1035" transform="matrix(1.0,0.0,0.0,1.0,10.0,32.125)"><text id="ProcessOnText1036" fill="#000000" font-weight="normal" font-style="normal" text-decoration="blink" font-family="微软雅黑" text-anchor="middle" font-size="13" x="92.5" y="13.325">CommentPages</text></g></g><g id="ProcessOnG1037" transform="matrix(1.0,0.0,0.0,1.0,1716.53125,1122.890625)" opacity="1.0"><path id="ProcessOnPath1038" d="M0.0 0.0L259.5 0.0L259.5 84.25L0.0 84.25Z" stroke="#323232" stroke-width="2.0" stroke-dasharray="none" opacity="1.0" fill="#ffffff"/><g id="ProcessOnG1039" transform="matrix(1.0,0.0,0.0,1.0,10.0,34.0)"><text id="ProcessOnText1040" fill="#000000" font-weight="normal" font-style="normal" text-decoration="blink" font-family="微软雅黑" text-anchor="middle" font-size="13" x="119.75" y="13.325">CommentNotifyService</text></g></g><g id="ProcessOnG1041" transform="matrix(1.0,0.0,0.0,1.0,1351.03125,496.765625)" opacity="1.0"><path id="ProcessOnPath1042" d="M0.0 0.0L178.5 0.0L178.5 79.0L0.0 79.0Z" stroke="#323232" stroke-width="2.0" stroke-dasharray="none" opacity="1.0" fill="#ffffff"/><g id="ProcessOnG1043" transform="matrix(1.0,0.0,0.0,1.0,10.0,31.375)"><text id="ProcessOnText1044" fill="#000000" font-weight="normal" font-style="normal" text-decoration="blink" font-family="微软雅黑" text-anchor="middle" font-size="13" x="79.25" y="13.325">ContentServer</text></g></g><g id="ProcessOnG1045" transform="matrix(1.0,0.0,0.0,1.0,1568.03125,495.265625)" opacity="1.0"><path id="ProcessOnPath1046" d="M0.0 0.0L164.5 0.0L164.5 82.0L0.0 82.0Z" stroke="#323232" stroke-width="2.0" stroke-dasharray="none" opacity="1.0" fill="#ffffff"/><g id="ProcessOnG1047" transform="matrix(1.0,0.0,0.0,1.0,10.0,32.875)"><text id="ProcessOnText1048" fill="#000000" font-weight="normal" font-style="normal" text-decoration="blink" font-family="微软雅黑" text-anchor="middle" font-size="13" x="72.25" y="13.325">staticFiles</text></g></g><g id="ProcessOnG1049" transform="matrix(1.0,0.0,0.0,1.0,1477.53125,990.015625)" opacity="1.0"><path id="ProcessOnPath1050" d="M0.0 0.0L150.5 0.0L150.5 78.25L0.0 78.25Z" stroke="#323232" stroke-width="2.0" stroke-dasharray="none" opacity="1.0" fill="#ffffff"/><g id="ProcessOnG1051" transform="matrix(1.0,0.0,0.0,1.0,10.0,31.0)"><text id="ProcessOnText1052" fill="#000000" font-weight="normal" font-style="normal" text-decoration="blink" font-family="微软雅黑" text-anchor="middle" font-size="13" x="65.25" y="13.325">DBCluster</text></g></g><g id="ProcessOnG1053" transform="matrix(1.0,0.0,0.0,1.0,1435.03125,284.015625)" opacity="1.0"><path id="ProcessOnPath1054" d="M0.0 0.0L178.5 0.0L178.5 79.0L0.0 79.0Z" stroke="#323232" stroke-width="2.0" stroke-dasharray="none" opacity="1.0" fill="#ffffff"/><g id="ProcessOnG1055" transform="matrix(1.0,0.0,0.0,1.0,10.0,31.375)"><text id="ProcessOnText1056" fill="#000000" font-weight="normal" font-style="normal" text-decoration="blink" font-family="微软雅黑" text-anchor="middle" font-size="13" x="79.25" y="13.325">Register</text></g></g><g id="ProcessOnG1057"><path id="ProcessOnPath1058" d="M1282.03125 331.015625L1434.0662677670514 490.2560938460586" stroke="#323232" stroke-width="2.0" stroke-dasharray="none" fill="none" marker-end="url(#ProcessOnMarker1059)"/></g><g id="ProcessOnG1061"><path id="ProcessOnPath1062" d="M1529.53125 536.265625L1559.03125 536.265625" stroke="#323232" stroke-width="2.0" stroke-dasharray="none" fill="none" marker-end="url(#ProcessOnMarker1063)"/></g><g id="ProcessOnG1065"><path id="ProcessOnPath1066" d="M1115.03125 331.015625L720.5130997093312 471.0059363934631" stroke="#323232" stroke-width="2.0" stroke-dasharray="none" fill="none" marker-end="url(#ProcessOnMarker1067)"/></g><g id="ProcessOnG1069"><path id="ProcessOnPath1070" d="M712.03125 551.015625L269.29732224335277 653.9770035480575" stroke="#323232" stroke-width="2.0" stroke-dasharray="none" fill="none" marker-end="url(#ProcessOnMarker1071)"/></g><g id="ProcessOnG1073"><path id="ProcessOnPath1074" d="M260.53125 733.015625L241.5143429668197 906.0694790019409" stroke="#323232" stroke-width="2.0" stroke-dasharray="none" fill="none" marker-end="url(#ProcessOnMarker1075)"/></g><g id="ProcessOnG1077" transform="matrix(1.0,0.0,0.0,1.0,1752.28125,979.265625)" opacity="1.0"><path id="ProcessOnPath1078" d="M0.0 0.0L188.0 0.0L188.0 74.5L0.0 74.5Z" stroke="#323232" stroke-width="2.0" stroke-dasharray="none" opacity="1.0" fill="#ffffff"/><g id="ProcessOnG1079" transform="matrix(1.0,0.0,0.0,1.0,10.0,29.125)"><text id="ProcessOnText1080" fill="#000000" font-weight="normal" font-style="normal" text-decoration="blink" font-family="微软雅黑" text-anchor="middle" font-size="13" x="84.0" y="13.325">CommentFilter</text></g></g><g id="ProcessOnG1081"><path id="ProcessOnPath1082" d="M1697.28125 735.515625L1559.8292476274846 844.6686857075857" stroke="#323232" stroke-width="2.0" stroke-dasharray="none" fill="none" marker-end="url(#ProcessOnMarker1083)"/></g><g id="ProcessOnG1085"><path id="ProcessOnPath1086" d="M1697.28125 735.515625L1839.150748536154 844.774181758548" stroke="#323232" stroke-width="2.0" stroke-dasharray="none" fill="none" marker-end="url(#ProcessOnMarker1087)"/></g><g id="ProcessOnG1089"><path id="ProcessOnPath1090" d="M1552.78125 930.765625L1552.78125 981.015625" stroke="#323232" stroke-width="2.0" stroke-dasharray="none" fill="none" marker-end="url(#ProcessOnMarker1091)"/></g><g id="ProcessOnG1093"><path id="ProcessOnPath1094" d="M1846.28125 1053.765625L1846.28125 1113.890625" stroke="#323232" stroke-width="2.0" stroke-dasharray="none" fill="none" marker-end="url(#ProcessOnMarker1095)"/></g><g id="ProcessOnG1097"><path id="ProcessOnPath1098" d="M1198.53125 369.515625L1596.2953001785177 692.5914285730395" stroke="#323232" stroke-width="2.0" stroke-dasharray="none" fill="none" marker-end="url(#ProcessOnMarker1099)"/></g><g id="ProcessOnG1101"><path id="ProcessOnPath1102" d="M1524.28125 363.015625L720.9483704150141 472.79703421383005" stroke="#323232" stroke-width="2.0" stroke-dasharray="none" fill="none" marker-end="url(#ProcessOnMarker1103)"/></g><g id="ProcessOnG1105"><path id="ProcessOnPath1106" d="M1524.28125 363.015625L1463.5760944960891 488.8934363218485" stroke="#323232" stroke-width="2.0" stroke-dasharray="none" fill="none" marker-end="url(#ProcessOnMarker1107)"/></g><g id="ProcessOnG1109" transform="matrix(1.0,0.0,0.0,1.0,240.03125,1044.015625)" opacity="1.0"><path id="ProcessOnPath1110" d="M0.0 0.0L167.0 0.0L167.0 77.0L0.0 77.0Z" stroke="#323232" stroke-width="2.0" stroke-dasharray="none" opacity="1.0" fill="#ffffff"/><g id="ProcessOnG1111" transform="matrix(1.0,0.0,0.0,1.0,10.0,30.375)"><text id="ProcessOnText1112" fill="#000000" font-weight="normal" font-style="normal" text-decoration="blink" font-family="微软雅黑" text-anchor="middle" font-size="13" x="73.5" y="13.325">SortFilter</text></g></g><g id="ProcessOnG1113" transform="matrix(1.0,0.0,0.0,1.0,436.03125,1044.015625)" opacity="1.0"><path id="ProcessOnPath1114" d="M0.0 0.0L167.0 0.0L167.0 77.0L0.0 77.0Z" stroke="#323232" stroke-width="2.0" stroke-dasharray="none" opacity="1.0" fill="#ffffff"/><g id="ProcessOnG1115" transform="matrix(1.0,0.0,0.0,1.0,10.0,30.375)"><text id="ProcessOnText1116" fill="#000000" font-weight="normal" font-style="normal" text-decoration="blink" font-family="微软雅黑" text-anchor="middle" font-size="13" x="73.5" y="13.325">ShieldFilter</text></g></g><g id="ProcessOnG1117" transform="matrix(1.0,0.0,0.0,1.0,370.03125,897.015625)" opacity="1.0"><path id="ProcessOnPath1118" d="M0.0 0.0L167.0 0.0L167.0 77.0L0.0 77.0Z" stroke="#323232" stroke-width="2.0" stroke-dasharray="none" opacity="1.0" fill="#ffffff"/><g id="ProcessOnG1119" transform="matrix(1.0,0.0,0.0,1.0,10.0,30.375)"><text id="ProcessOnText1120" fill="#000000" font-weight="normal" font-style="normal" text-decoration="blink" font-family="微软雅黑" text-anchor="middle" font-size="13" x="73.5" y="13.325">GoodsPipe</text></g></g><g id="ProcessOnG1121"><path id="ProcessOnPath1122" d="M453.53125 974.015625L331.45548989929955 1039.7487265926848" stroke="#323232" stroke-width="2.0" stroke-dasharray="none" fill="none" marker-end="url(#ProcessOnMarker1123)"/></g><g id="ProcessOnG1125"><path id="ProcessOnPath1126" d="M453.53125 974.015625L513.357134181799 1037.4673203443322" stroke="#323232" stroke-width="2.0" stroke-dasharray="none" fill="none" marker-end="url(#ProcessOnMarker1127)"/></g><g id="ProcessOnG1129"><path id="ProcessOnPath1130" d="M712.03125 551.015625L458.9179043388869 889.8056350531726" stroke="#323232" stroke-width="2.0" stroke-dasharray="none" fill="none" marker-end="url(#ProcessOnMarker1131)"/></g><g id="ProcessOnG1133" transform="matrix(1.0,0.0,0.0,1.0,610.03125,897.015625)" opacity="1.0"><path id="ProcessOnPath1134" d="M0.0 0.0L210.5 0.0L210.5 93.0L0.0 93.0Z" stroke="#323232" stroke-width="2.0" stroke-dasharray="none" opacity="1.0" fill="#ffffff"/><g id="ProcessOnG1135" transform="matrix(1.0,0.0,0.0,1.0,10.0,38.375)"><text id="ProcessOnText1136" fill="#000000" font-weight="normal" font-style="normal" text-decoration="blink" font-family="微软雅黑" text-anchor="middle" font-size="13" x="95.25" y="13.325">SearchEngineCluster</text></g></g><g id="ProcessOnG1137"><path id="ProcessOnPath1138" d="M712.03125 551.015625L715.1967161568589 888.016022007125" stroke="#323232" stroke-width="2.0" stroke-dasharray="none" fill="none" marker-end="url(#ProcessOnMarker1139)"/></g><g id="ProcessOnG1141" transform="matrix(1.0,0.0,0.0,1.0,1678.78125,282.515625)" opacity="1.0"><path id="ProcessOnPath1142" d="M0.0 0.0L164.5 0.0L164.5 82.0L0.0 82.0Z" stroke="#323232" stroke-width="2.0" stroke-dasharray="none" opacity="1.0" fill="#ffffff"/><g id="ProcessOnG1143" transform="matrix(1.0,0.0,0.0,1.0,10.0,32.875)"><text id="ProcessOnText1144" fill="#000000" font-weight="normal" font-style="normal" text-decoration="blink" font-family="微软雅黑" text-anchor="middle" font-size="13" x="72.25" y="13.325">CNDService</text></g></g><g id="ProcessOnG1145"><path id="ProcessOnPath1146" d="M1761.03125 364.515625L1487.1769080505742 493.1883211287196" stroke="#323232" stroke-width="2.0" stroke-dasharray="none" fill="none" marker-end="url(#ProcessOnMarker1147)"/></g><g id="ProcessOnG1149" transform="matrix(1.0,0.0,0.0,1.0,906.03125,1024.015625)" opacity="1.0"><path id="ProcessOnPath1150" d="M0.0 0.0L216.5 0.0L216.5 77.0L0.0 77.0Z" stroke="#323232" stroke-width="2.0" stroke-dasharray="none" opacity="1.0" fill="#ffffff"/><g id="ProcessOnG1151" transform="matrix(1.0,0.0,0.0,1.0,10.0,30.375)"><text id="ProcessOnText1152" fill="#000000" font-weight="normal" font-style="normal" text-decoration="blink" font-family="微软雅黑" text-anchor="middle" font-size="13" x="98.25" y="13.325">OnlineGoodsService</text></g></g><g id="ProcessOnG1153" transform="matrix(1.0,0.0,0.0,1.0,906.03125,1149.015625)" opacity="1.0"><path id="ProcessOnPath1154" d="M0.0 0.0L216.5 0.0L216.5 77.0L0.0 77.0Z" stroke="#323232" stroke-width="2.0" stroke-dasharray="none" opacity="1.0" fill="#ffffff"/><g id="ProcessOnG1155" transform="matrix(1.0,0.0,0.0,1.0,10.0,30.375)"><text id="ProcessOnText1156" fill="#000000" font-weight="normal" font-style="normal" text-decoration="blink" font-family="微软雅黑" text-anchor="middle" font-size="13" x="98.25" y="13.325">CrawlerLib</text></g></g><g id="ProcessOnG1157"><path id="ProcessOnPath1158" d="M1014.28125 1101.015625L1014.28125 1140.015625" stroke="#323232" stroke-width="2.0" stroke-dasharray="none" fill="none" marker-end="url(#ProcessOnMarker1159)"/></g><g id="ProcessOnG1161" transform="matrix(1.0,0.0,0.0,1.0,771.03125,747.015625)" opacity="1.0"><path id="ProcessOnPath1162" d="M0.0 0.0L216.5 0.0L216.5 77.0L0.0 77.0Z" stroke="#323232" stroke-width="2.0" stroke-dasharray="none" opacity="1.0" fill="#ffffff"/><g id="ProcessOnG1163" transform="matrix(1.0,0.0,0.0,1.0,10.0,30.375)"><text id="ProcessOnText1164" fill="#000000" font-weight="normal" font-style="normal" text-decoration="blink" font-family="微软雅黑" text-anchor="middle" font-size="13" x="98.25" y="13.325">GoodsInfoUpdater</text></g></g><g id="ProcessOnG1165"><path id="ProcessOnPath1166" d="M879.28125 824.015625L1009.2459943049904 1016.5559869333192" stroke="#323232" stroke-width="2.0" stroke-dasharray="none" fill="none" marker-end="url(#ProcessOnMarker1167)"/></g><g id="ProcessOnG1169"><path id="ProcessOnPath1170" d="M879.28125 824.015625L745.0384347512169 892.9064897673896" stroke="#323232" stroke-width="2.0" stroke-dasharray="none" fill="none" marker-end="url(#ProcessOnMarker1171)"/></g><g id="ProcessOnG1173" transform="matrix(1.0,0.0,0.0,1.0,1752.28125,850.265625)" opacity="1.0"><path id="ProcessOnPath1174" d="M0.0 0.0L188.0 0.0L188.0 74.5L0.0 74.5Z" stroke="#323232" stroke-width="2.0" stroke-dasharray="none" opacity="1.0" fill="#ffffff"/><g id="ProcessOnG1175" transform="matrix(1.0,0.0,0.0,1.0,10.0,29.125)"><text id="ProcessOnText1176" fill="#000000" font-weight="normal" font-style="normal" text-decoration="blink" font-family="微软雅黑" text-anchor="middle" font-size="13" x="84.0" y="13.325">CommentPipe</text></g></g><g id="ProcessOnG1177"><path id="ProcessOnPath1178" d="M1846.28125 924.765625L1846.28125 970.265625" stroke="#323232" stroke-width="2.0" stroke-dasharray="none" fill="none" marker-end="url(#ProcessOnMarker1179)"/></g><g id="ProcessOnG1181" transform="matrix(1.0,0.0,0.0,1.0,1115.03125,151.515625)" opacity="1.0"><path id="ProcessOnPath1182" d="M0.0 0.0L167.0 0.0L167.0 77.0L0.0 77.0Z" stroke="#323232" stroke-width="2.0" stroke-dasharray="none" opacity="1.0" fill="#ffffff"/><g id="ProcessOnG1183" transform="matrix(1.0,0.0,0.0,1.0,10.0,30.375)"><text id="ProcessOnText1184" fill="#000000" font-weight="normal" font-style="normal" text-decoration="blink" font-family="微软雅黑" text-anchor="middle" font-size="13" x="73.5" y="13.325">Firewall</text></g></g><g id="ProcessOnG1185"><path id="ProcessOnPath1186" d="M1198.53125 228.515625L1198.53125 283.515625" stroke="#323232" stroke-width="2.0" stroke-dasharray="none" fill="none" marker-end="url(#ProcessOnMarker1187)"/></g><g id="ProcessOnG1189"><path id="ProcessOnPath1190" d="M1198.53125 369.515625L1089.5821433753697 603.3576099504263" stroke="#323232" stroke-width="2.0" stroke-dasharray="none" fill="none" marker-end="url(#ProcessOnMarker1191)"/></g><g id="ProcessOnG1193"><path id="ProcessOnPath1194" d="M1198.53125 369.515625L1319.9114096147362 605.2639429768283" stroke="#323232" stroke-width="2.0" stroke-dasharray="none" fill="none" marker-end="url(#ProcessOnMarker1195)"/></g><g id="ProcessOnG1197" transform="matrix(1.0,0.0,0.0,1.0,1040.53125,876.015625)" opacity="1.0"><path id="ProcessOnPath1198" d="M0.0 0.0L167.0 0.0L167.0 77.0L0.0 77.0Z" stroke="#323232" stroke-width="2.0" stroke-dasharray="none" opacity="1.0" fill="#ffffff"/><g id="ProcessOnG1199" transform="matrix(1.0,0.0,0.0,1.0,10.0,30.375)"><text id="ProcessOnText1200" fill="#000000" font-weight="normal" font-style="normal" text-decoration="blink" font-family="微软雅黑" text-anchor="middle" font-size="13" x="73.5" y="13.325">TestModeApsect</text></g></g><g id="ProcessOnG1201" transform="matrix(1.0,0.0,0.0,1.0,1865.53125,408.015625)" opacity="1.0"><path id="ProcessOnPath1202" d="M0.0 0.0L167.0 0.0L167.0 77.0L0.0 77.0Z" stroke="#323232" stroke-width="2.0" stroke-dasharray="none" opacity="1.0" fill="#ffffff"/><g id="ProcessOnG1203" transform="matrix(1.0,0.0,0.0,1.0,10.0,30.375)"><text id="ProcessOnText1204" fill="#000000" font-weight="normal" font-style="normal" text-decoration="blink" font-family="微软雅黑" text-anchor="middle" font-size="13" x="73.5" y="13.325">ErrorCode</text></g></g><g id="ProcessOnG1205"><path id="ProcessOnPath1206" d="M1198.53125 369.515625L1856.5906282962947 445.483499256094" stroke="#323232" stroke-width="2.0" stroke-dasharray="none" fill="none" marker-end="url(#ProcessOnMarker1207)"/></g><g id="ProcessOnG1209"><path id="ProcessOnPath1210" d="M795.53125 512.515625L1117.996879056761 869.3383226016214" stroke="#323232" stroke-width="2.0" stroke-dasharray="none" fill="none" marker-end="url(#ProcessOnMarker1211)"/></g><g id="ProcessOnG1213"><path id="ProcessOnPath1214" d="M1603.28125 698.265625L1160.900601172838 873.2059481357552" stroke="#323232" stroke-width="2.0" stroke-dasharray="none" fill="none" marker-end="url(#ProcessOnMarker1215)"/></g><g id="ProcessOnG1217" transform="matrix(1.0,0.0,0.0,1.0,654.03125,1064.015625)" opacity="1.0"><path id="ProcessOnPath1218" d="M0.0 0.0L178.5 0.0L178.5 79.0L0.0 79.0Z" stroke="#323232" stroke-width="2.0" stroke-dasharray="none" opacity="1.0" fill="#ffffff"/><g id="ProcessOnG1219" transform="matrix(1.0,0.0,0.0,1.0,10.0,31.375)"><text id="ProcessOnText1220" fill="#000000" font-weight="normal" font-style="normal" text-decoration="blink" font-family="微软雅黑" text-anchor="middle" font-size="13" x="79.25" y="13.325">SynonymsConfig</text></g></g><g id="ProcessOnG1221"><path id="ProcessOnPath1222" d="M715.28125 990.015625L740.096221123257 1055.5980486828935" stroke="#323232" stroke-width="2.0" stroke-dasharray="none" fill="none" marker-end="url(#ProcessOnMarker1223)"/></g><g id="ProcessOnG1225" transform="matrix(1.0,0.0,0.0,1.0,520.03125,364.515625)" opacity="1.0"><path id="ProcessOnPath1226" d="M0.0 0.0L167.0 0.0L167.0 77.0L0.0 77.0Z" stroke="#323232" stroke-width="2.0" stroke-dasharray="none" opacity="1.0" fill="#ffffff"/><g id="ProcessOnG1227" transform="matrix(1.0,0.0,0.0,1.0,10.0,30.375)"><text id="ProcessOnText1228" fill="#000000" font-weight="normal" font-style="normal" text-decoration="blink" font-family="微软雅黑" text-anchor="middle" font-size="13" x="73.5" y="13.325">LoadBalancer</text></g></g><g id="ProcessOnG1229"><path id="ProcessOnPath1230" d="M1115.03125 331.015625L612.5120094962591 363.92744231549426" stroke="#323232" stroke-width="2.0" stroke-dasharray="none" fill="none" marker-end="url(#ProcessOnMarker1231)"/></g></g></g></svg>