<svg xmlns="http://www.w3.org/2000/svg" xmlns:xlink="http://www.w3.org/1999/xlink" id="processonSvg1000" viewBox="127.03125 152.515625 1620.25 987.5" width="1620.25" height="987.5"><defs id="ProcessOnDefs1001"><marker id="ProcessOnMarker1059" markerUnits="userSpaceOnUse" orient="auto" markerWidth="10.0" markerHeight="10.0" viewBox="-1.0 -1.0 10.0 10.0" refX="0.0" refY="4.0"><path id="ProcessOnPath1060" d="M0 4.0A4.0 4.0 0 0 1 4.0 0A4.0 4.0 0 1 1 0 4.0" stroke="#323232" stroke-width="2.0" fill="#fff"/></marker><marker id="ProcessOnMarker1063" markerUnits="userSpaceOnUse" orient="auto" markerWidth="10.0" markerHeight="10.0" viewBox="-1.0 -1.0 10.0 10.0" refX="0.0" refY="4.0"><path id="ProcessOnPath1064" d="M0 4.0A4.0 4.0 0 0 1 4.0 0A4.0 4.0 0 1 1 0 4.0" stroke="#323232" stroke-width="2.0" fill="#fff"/></marker><marker id="ProcessOnMarker1067" markerUnits="userSpaceOnUse" orient="auto" markerWidth="10.0" markerHeight="10.0" viewBox="-1.0 -1.0 10.0 10.0" refX="0.0" refY="4.0"><path id="ProcessOnPath1068" d="M0 4.0A4.0 4.0 0 0 1 4.0 0A4.0 4.0 0 1 1 0 4.0" stroke="#323232" stroke-width="2.0" fill="#fff"/></marker><marker id="ProcessOnMarker1071" markerUnits="userSpaceOnUse" orient="auto" markerWidth="10.0" markerHeight="10.0" viewBox="-1.0 -1.0 10.0 10.0" refX="0.0" refY="4.0"><path id="ProcessOnPath1072" d="M0 4.0A4.0 4.0 0 0 1 4.0 0A4.0 4.0 0 1 1 0 4.0" stroke="#323232" stroke-width="2.0" fill="#fff"/></marker><marker id="ProcessOnMarker1075" markerUnits="userSpaceOnUse" orient="auto" markerWidth="10.0" markerHeight="10.0" viewBox="-1.0 -1.0 10.0 10.0" refX="0.0" refY="4.0"><path id="ProcessOnPath1076" d="M0 4.0A4.0 4.0 0 0 1 4.0 0A4.0 4.0 0 1 1 0 4.0" stroke="#323232" stroke-width="2.0" fill="#fff"/></marker><marker id="ProcessOnMarker1079" markerUnits="userSpaceOnUse" orient="auto" markerWidth="10.0" markerHeight="10.0" viewBox="-1.0 -1.0 10.0 10.0" refX="0.0" refY="4.0"><path id="ProcessOnPath1080" d="M0 4.0A4.0 4.0 0 0 1 4.0 0A4.0 4.0 0 1 1 0 4.0" stroke="#323232" stroke-width="2.0" fill="#fff"/></marker><marker id="ProcessOnMarker1087" markerUnits="userSpaceOnUse" orient="auto" markerWidth="10.0" markerHeight="10.0" viewBox="-1.0 -1.0 10.0 10.0" refX="0.0" refY="4.0"><path id="ProcessOnPath1088" d="M0 4.0A4.0 4.0 0 0 1 4.0 0A4.0 4.0 0 1 1 0 4.0" stroke="#323232" stroke-width="2.0" fill="#fff"/></marker><marker id="ProcessOnMarker1091" markerUnits="userSpaceOnUse" orient="auto" markerWidth="10.0" markerHeight="10.0" viewBox="-1.0 -1.0 10.0 10.0" refX="0.0" refY="4.0"><path id="ProcessOnPath1092" d="M0 4.0A4.0 4.0 0 0 1 4.0 0A4.0 4.0 0 1 1 0 4.0" stroke="#323232" stroke-width="2.0" fill="#fff"/></marker><marker id="ProcessOnMarker1095" markerUnits="userSpaceOnUse" orient="auto" markerWidth="10.0" markerHeight="10.0" viewBox="-1.0 -1.0 10.0 10.0" refX="0.0" refY="4.0"><path id="ProcessOnPath1096" d="M0 4.0A4.0 4.0 0 0 1 4.0 0A4.0 4.0 0 1 1 0 4.0" stroke="#323232" stroke-width="2.0" fill="#fff"/></marker><marker id="ProcessOnMarker1099" markerUnits="userSpaceOnUse" orient="auto" markerWidth="10.0" markerHeight="10.0" viewBox="-1.0 -1.0 10.0 10.0" refX="0.0" refY="4.0"><path id="ProcessOnPath1100" d="M0 4.0A4.0 4.0 0 0 1 4.0 0A4.0 4.0 0 1 1 0 4.0" stroke="#323232" stroke-width="2.0" fill="#fff"/></marker><marker id="ProcessOnMarker1103" markerUnits="userSpaceOnUse" orient="auto" markerWidth="10.0" markerHeight="10.0" viewBox="-1.0 -1.0 10.0 10.0" refX="0.0" refY="4.0"><path id="ProcessOnPath1104" d="M0 4.0A4.0 4.0 0 0 1 4.0 0A4.0 4.0 0 1 1 0 4.0" stroke="#323232" stroke-width="2.0" fill="#fff"/></marker><marker id="ProcessOnMarker1107" markerUnits="userSpaceOnUse" orient="auto" markerWidth="10.0" markerHeight="10.0" viewBox="-1.0 -1.0 10.0 10.0" refX="0.0" refY="4.0"><path id="ProcessOnPath1108" d="M0 4.0A4.0 4.0 0 0 1 4.0 0A4.0 4.0 0 1 1 0 4.0" stroke="#323232" stroke-width="2.0" fill="#fff"/></marker><marker id="ProcessOnMarker1111" markerUnits="userSpaceOnUse" orient="auto" markerWidth="10.0" markerHeight="10.0" viewBox="-1.0 -1.0 10.0 10.0" refX="0.0" refY="4.0"><path id="ProcessOnPath1112" d="M0 4.0A4.0 4.0 0 0 1 4.0 0A4.0 4.0 0 1 1 0 4.0" stroke="#323232" stroke-width="2.0" fill="#fff"/></marker><marker id="ProcessOnMarker1115" markerUnits="userSpaceOnUse" orient="auto" markerWidth="10.0" markerHeight="10.0" viewBox="-1.0 -1.0 10.0 10.0" refX="0.0" refY="4.0"><path id="ProcessOnPath1116" d="M0 4.0A4.0 4.0 0 0 1 4.0 0A4.0 4.0 0 1 1 0 4.0" stroke="#323232" stroke-width="2.0" fill="#fff"/></marker><marker id="ProcessOnMarker1131" markerUnits="userSpaceOnUse" orient="auto" markerWidth="10.0" markerHeight="10.0" viewBox="-1.0 -1.0 10.0 10.0" refX="0.0" refY="4.0"><path id="ProcessOnPath1132" d="M0 4.0A4.0 4.0 0 0 1 4.0 0A4.0 4.0 0 1 1 0 4.0" stroke="#323232" stroke-width="2.0" fill="#fff"/></marker><marker id="ProcessOnMarker1135" markerUnits="userSpaceOnUse" orient="auto" markerWidth="10.0" markerHeight="10.0" viewBox="-1.0 -1.0 10.0 10.0" refX="0.0" refY="4.0"><path id="ProcessOnPath1136" d="M0 4.0A4.0 4.0 0 0 1 4.0 0A4.0 4.0 0 1 1 0 4.0" stroke="#323232" stroke-width="2.0" fill="#fff"/></marker><marker id="ProcessOnMarker1139" markerUnits="userSpaceOnUse" orient="auto" markerWidth="10.0" markerHeight="10.0" viewBox="-1.0 -1.0 10.0 10.0" refX="0.0" refY="4.0"><path id="ProcessOnPath1140" d="M0 4.0A4.0 4.0 0 0 1 4.0 0A4.0 4.0 0 1 1 0 4.0" stroke="#323232" stroke-width="2.0" fill="#fff"/></marker><marker id="ProcessOnMarker1147" markerUnits="userSpaceOnUse" orient="auto" markerWidth="10.0" markerHeight="10.0" viewBox="-1.0 -1.0 10.0 10.0" refX="0.0" refY="4.0"><path id="ProcessOnPath1148" d="M0 4.0A4.0 4.0 0 0 1 4.0 0A4.0 4.0 0 1 1 0 4.0" stroke="#323232" stroke-width="2.0" fill="#fff"/></marker><marker id="ProcessOnMarker1155" markerUnits="userSpaceOnUse" orient="auto" markerWidth="10.0" markerHeight="10.0" viewBox="-1.0 -1.0 10.0 10.0" refX="0.0" refY="4.0"><path id="ProcessOnPath1156" d="M0 4.0A4.0 4.0 0 0 1 4.0 0A4.0 4.0 0 1 1 0 4.0" stroke="#323232" stroke-width="2.0" fill="#fff"/></marker><marker id="ProcessOnMarker1167" markerUnits="userSpaceOnUse" orient="auto" markerWidth="10.0" markerHeight="10.0" viewBox="-1.0 -1.0 10.0 10.0" refX="0.0" refY="4.0"><path id="ProcessOnPath1168" d="M0 4.0A4.0 4.0 0 0 1 4.0 0A4.0 4.0 0 1 1 0 4.0" stroke="#323232" stroke-width="2.0" fill="#fff"/></marker><marker id="ProcessOnMarker1175" markerUnits="userSpaceOnUse" orient="auto" markerWidth="10.0" markerHeight="10.0" viewBox="-1.0 -1.0 10.0 10.0" refX="0.0" refY="4.0"><path id="ProcessOnPath1176" d="M0 4.0A4.0 4.0 0 0 1 4.0 0A4.0 4.0 0 1 1 0 4.0" stroke="#323232" stroke-width="2.0" fill="#fff"/></marker><marker id="ProcessOnMarker1179" markerUnits="userSpaceOnUse" orient="auto" markerWidth="10.0" markerHeight="10.0" viewBox="-1.0 -1.0 10.0 10.0" refX="0.0" refY="4.0"><path id="ProcessOnPath1180" d="M0 4.0A4.0 4.0 0 0 1 4.0 0A4.0 4.0 0 1 1 0 4.0" stroke="#323232" stroke-width="2.0" fill="#fff"/></marker><marker id="ProcessOnMarker1187" markerUnits="userSpaceOnUse" orient="auto" markerWidth="10.0" markerHeight="10.0" viewBox="-1.0 -1.0 10.0 10.0" refX="0.0" refY="4.0"><path id="ProcessOnPath1188" d="M0 4.0A4.0 4.0 0 0 1 4.0 0A4.0 4.0 0 1 1 0 4.0" stroke="#323232" stroke-width="2.0" fill="#fff"/></marker></defs><g id="ProcessOnG1002"><path id="ProcessOnPath1003" d="M127.03125 152.515625H1747.28125V1140.015625H127.03125V152.515625Z" fill="none"/><g id="ProcessOnG1004"><g id="ProcessOnG1005" transform="matrix(1.0,0.0,0.0,1.0,975.03125,172.515625)" opacity="1.0"><path id="ProcessOnPath1006" d="M0.0 0.0L167.0 0.0L167.0 77.0L0.0 77.0Z" stroke="#323232" stroke-width="2.0" stroke-dasharray="none" opacity="1.0" fill="#ffffff"/><g id="ProcessOnG1007" transform="matrix(1.0,0.0,0.0,1.0,10.0,30.375)"><text id="ProcessOnText1008" fill="#000000" font-weight="normal" font-style="normal" text-decoration="blink" font-family="微软雅黑" text-anchor="middle" font-size="13" x="73.5" y="13.325">Gateway</text></g></g><g id="ProcessOnG1009" transform="matrix(1.0,0.0,0.0,1.0,488.53125,354.015625)" opacity="1.0"><path id="ProcessOnPath1010" d="M0.0 0.0L167.0 0.0L167.0 77.0L0.0 77.0Z" stroke="#323232" stroke-width="2.0" stroke-dasharray="none" opacity="1.0" fill="#ffffff"/><g id="ProcessOnG1011" transform="matrix(1.0,0.0,0.0,1.0,10.0,30.375)"><text id="ProcessOnText1012" fill="#000000" font-weight="normal" font-style="normal" text-decoration="blink" font-family="微软雅黑" text-anchor="middle" font-size="13" x="73.5" y="13.325">SearchServer</text></g></g><g id="ProcessOnG1013" transform="matrix(1.0,0.0,0.0,1.0,819.03125,354.015625)" opacity="1.0"><path id="ProcessOnPath1014" d="M0.0 0.0L204.0 0.0L204.0 92.5L0.0 92.5Z" stroke="#323232" stroke-width="2.0" stroke-dasharray="none" opacity="1.0" fill="#ffffff"/><g id="ProcessOnG1015" transform="matrix(1.0,0.0,0.0,1.0,10.0,38.125)"><text id="ProcessOnText1016" fill="#000000" font-weight="normal" font-style="normal" text-decoration="blink" font-family="微软雅黑" text-anchor="middle" font-size="13" x="92.0" y="13.325">SearchResultPages</text></g></g><g id="ProcessOnG1017" transform="matrix(1.0,0.0,0.0,1.0,167.03125,536.015625)" opacity="1.0"><path id="ProcessOnPath1018" d="M0.0 0.0L167.0 0.0L167.0 77.0L0.0 77.0Z" stroke="#323232" stroke-width="2.0" stroke-dasharray="none" opacity="1.0" fill="#ffffff"/><g id="ProcessOnG1019" transform="matrix(1.0,0.0,0.0,1.0,10.0,30.375)"><text id="ProcessOnText1020" fill="#000000" font-weight="normal" font-style="normal" text-decoration="blink" font-family="微软雅黑" text-anchor="middle" font-size="13" x="73.5" y="13.325">CacheService</text></g></g><g id="ProcessOnG1021" transform="matrix(1.0,0.0,0.0,1.0,147.03125,795.015625)" opacity="1.0"><path id="ProcessOnPath1022" d="M0.0 0.0L167.0 0.0L167.0 77.0L0.0 77.0Z" stroke="#323232" stroke-width="2.0" stroke-dasharray="none" opacity="1.0" fill="#ffffff"/><g id="ProcessOnG1023" transform="matrix(1.0,0.0,0.0,1.0,10.0,30.375)"><text id="ProcessOnText1024" fill="#000000" font-weight="normal" font-style="normal" text-decoration="blink" font-family="微软雅黑" text-anchor="middle" font-size="13" x="73.5" y="13.325">CacheDB</text></g></g><g id="ProcessOnG1025" transform="matrix(1.0,0.0,0.0,1.0,1220.28125,562.015625)" opacity="1.0"><path id="ProcessOnPath1026" d="M0.0 0.0L188.0 0.0L188.0 74.5L0.0 74.5Z" stroke="#323232" stroke-width="2.0" stroke-dasharray="none" opacity="1.0" fill="#ffffff"/><g id="ProcessOnG1027" transform="matrix(1.0,0.0,0.0,1.0,10.0,29.125)"><text id="ProcessOnText1028" fill="#000000" font-weight="normal" font-style="normal" text-decoration="blink" font-family="微软雅黑" text-anchor="middle" font-size="13" x="84.0" y="13.325">CommentServer</text></g></g><g id="ProcessOnG1029" transform="matrix(1.0,0.0,0.0,1.0,1093.28125,730.265625)" opacity="1.0"><path id="ProcessOnPath1030" d="M0.0 0.0L259.0 0.0L259.0 80.5L0.0 80.5Z" stroke="#323232" stroke-width="2.0" stroke-dasharray="none" opacity="1.0" fill="#ffffff"/><g id="ProcessOnG1031" transform="matrix(1.0,0.0,0.0,1.0,10.0,32.125)"><text id="ProcessOnText1032" fill="#000000" font-weight="normal" font-style="normal" text-decoration="blink" font-family="微软雅黑" text-anchor="middle" font-size="13" x="119.5" y="13.325">CommentDataService</text></g></g><g id="ProcessOnG1033" transform="matrix(1.0,0.0,0.0,1.0,1522.28125,559.015625)" opacity="1.0"><path id="ProcessOnPath1034" d="M0.0 0.0L205.0 0.0L205.0 80.5L0.0 80.5Z" stroke="#323232" stroke-width="2.0" stroke-dasharray="none" opacity="1.0" fill="#ffffff"/><g id="ProcessOnG1035" transform="matrix(1.0,0.0,0.0,1.0,10.0,32.125)"><text id="ProcessOnText1036" fill="#000000" font-weight="normal" font-style="normal" text-decoration="blink" font-family="微软雅黑" text-anchor="middle" font-size="13" x="92.5" y="13.325">CommentPages</text></g></g><g id="ProcessOnG1037" transform="matrix(1.0,0.0,0.0,1.0,1386.53125,1002.890625)" opacity="1.0"><path id="ProcessOnPath1038" d="M0.0 0.0L259.5 0.0L259.5 84.25L0.0 84.25Z" stroke="#323232" stroke-width="2.0" stroke-dasharray="none" opacity="1.0" fill="#ffffff"/><g id="ProcessOnG1039" transform="matrix(1.0,0.0,0.0,1.0,10.0,34.0)"><text id="ProcessOnText1040" fill="#000000" font-weight="normal" font-style="normal" text-decoration="blink" font-family="微软雅黑" text-anchor="middle" font-size="13" x="119.75" y="13.325">CommentNotifyService</text></g></g><g id="ProcessOnG1041" transform="matrix(1.0,0.0,0.0,1.0,1211.03125,376.765625)" opacity="1.0"><path id="ProcessOnPath1042" d="M0.0 0.0L178.5 0.0L178.5 79.0L0.0 79.0Z" stroke="#323232" stroke-width="2.0" stroke-dasharray="none" opacity="1.0" fill="#ffffff"/><g id="ProcessOnG1043" transform="matrix(1.0,0.0,0.0,1.0,10.0,31.375)"><text id="ProcessOnText1044" fill="#000000" font-weight="normal" font-style="normal" text-decoration="blink" font-family="微软雅黑" text-anchor="middle" font-size="13" x="79.25" y="13.325">ContentServer</text></g></g><g id="ProcessOnG1045" transform="matrix(1.0,0.0,0.0,1.0,1428.03125,375.265625)" opacity="1.0"><path id="ProcessOnPath1046" d="M0.0 0.0L164.5 0.0L164.5 82.0L0.0 82.0Z" stroke="#323232" stroke-width="2.0" stroke-dasharray="none" opacity="1.0" fill="#ffffff"/><g id="ProcessOnG1047" transform="matrix(1.0,0.0,0.0,1.0,10.0,32.875)"><text id="ProcessOnText1048" fill="#000000" font-weight="normal" font-style="normal" text-decoration="blink" font-family="微软雅黑" text-anchor="middle" font-size="13" x="72.25" y="13.325">staticFiles</text></g></g><g id="ProcessOnG1049" transform="matrix(1.0,0.0,0.0,1.0,1147.53125,870.015625)" opacity="1.0"><path id="ProcessOnPath1050" d="M0.0 0.0L150.5 0.0L150.5 78.25L0.0 78.25Z" stroke="#323232" stroke-width="2.0" stroke-dasharray="none" opacity="1.0" fill="#ffffff"/><g id="ProcessOnG1051" transform="matrix(1.0,0.0,0.0,1.0,10.0,31.0)"><text id="ProcessOnText1052" fill="#000000" font-weight="normal" font-style="normal" text-decoration="blink" font-family="微软雅黑" text-anchor="middle" font-size="13" x="65.25" y="13.325">DBCluster</text></g></g><g id="ProcessOnG1053" transform="matrix(1.0,0.0,0.0,1.0,1259.03125,206.015625)" opacity="1.0"><path id="ProcessOnPath1054" d="M0.0 0.0L178.5 0.0L178.5 79.0L0.0 79.0Z" stroke="#323232" stroke-width="2.0" stroke-dasharray="none" opacity="1.0" fill="#ffffff"/><g id="ProcessOnG1055" transform="matrix(1.0,0.0,0.0,1.0,10.0,31.375)"><text id="ProcessOnText1056" fill="#000000" font-weight="normal" font-style="normal" text-decoration="blink" font-family="微软雅黑" text-anchor="middle" font-size="13" x="79.25" y="13.325">Monitor</text></g></g><g id="ProcessOnG1057"><path id="ProcessOnPath1058" d="M1142.03125 211.015625L1294.0662677670514 370.2560938460586" stroke="#323232" stroke-width="2.0" stroke-dasharray="none" fill="none" marker-end="url(#ProcessOnMarker1059)"/></g><g id="ProcessOnG1061"><path id="ProcessOnPath1062" d="M1389.53125 416.265625L1419.03125 416.265625" stroke="#323232" stroke-width="2.0" stroke-dasharray="none" fill="none" marker-end="url(#ProcessOnMarker1063)"/></g><g id="ProcessOnG1065"><path id="ProcessOnPath1066" d="M975.03125 211.015625L580.5130997093312 351.0059363934631" stroke="#323232" stroke-width="2.0" stroke-dasharray="none" fill="none" marker-end="url(#ProcessOnMarker1067)"/></g><g id="ProcessOnG1069"><path id="ProcessOnPath1070" d="M655.53125 392.515625L810.0413436751121 399.83949794178665" stroke="#323232" stroke-width="2.0" stroke-dasharray="none" fill="none" marker-end="url(#ProcessOnMarker1071)"/></g><g id="ProcessOnG1073"><path id="ProcessOnPath1074" d="M572.03125 431.015625L259.08653885021454 533.2215182215474" stroke="#323232" stroke-width="2.0" stroke-dasharray="none" fill="none" marker-end="url(#ProcessOnMarker1075)"/></g><g id="ProcessOnG1077"><path id="ProcessOnPath1078" d="M250.53125 613.015625L231.5143429668197 786.0694790019409" stroke="#323232" stroke-width="2.0" stroke-dasharray="none" fill="none" marker-end="url(#ProcessOnMarker1079)"/></g><g id="ProcessOnG1081" transform="matrix(1.0,0.0,0.0,1.0,1422.28125,859.265625)" opacity="1.0"><path id="ProcessOnPath1082" d="M0.0 0.0L188.0 0.0L188.0 74.5L0.0 74.5Z" stroke="#323232" stroke-width="2.0" stroke-dasharray="none" opacity="1.0" fill="#ffffff"/><g id="ProcessOnG1083" transform="matrix(1.0,0.0,0.0,1.0,10.0,29.125)"><text id="ProcessOnText1084" fill="#000000" font-weight="normal" font-style="normal" text-decoration="blink" font-family="微软雅黑" text-anchor="middle" font-size="13" x="84.0" y="13.325">CommentFilter</text></g></g><g id="ProcessOnG1085"><path id="ProcessOnPath1086" d="M1314.28125 636.515625L1229.0674523067048 723.8248439480484" stroke="#323232" stroke-width="2.0" stroke-dasharray="none" fill="none" marker-end="url(#ProcessOnMarker1087)"/></g><g id="ProcessOnG1089"><path id="ProcessOnPath1090" d="M1314.28125 636.515625L1508.1176180835994 726.4768106823636" stroke="#323232" stroke-width="2.0" stroke-dasharray="none" fill="none" marker-end="url(#ProcessOnMarker1091)"/></g><g id="ProcessOnG1093"><path id="ProcessOnPath1094" d="M1408.28125 599.265625L1513.28125 599.265625" stroke="#323232" stroke-width="2.0" stroke-dasharray="none" fill="none" marker-end="url(#ProcessOnMarker1095)"/></g><g id="ProcessOnG1097"><path id="ProcessOnPath1098" d="M1222.78125 810.765625L1222.78125 861.015625" stroke="#323232" stroke-width="2.0" stroke-dasharray="none" fill="none" marker-end="url(#ProcessOnMarker1099)"/></g><g id="ProcessOnG1101"><path id="ProcessOnPath1102" d="M1516.28125 933.765625L1516.28125 993.890625" stroke="#323232" stroke-width="2.0" stroke-dasharray="none" fill="none" marker-end="url(#ProcessOnMarker1103)"/></g><g id="ProcessOnG1105"><path id="ProcessOnPath1106" d="M1058.53125 249.515625L1216.503432821349 591.0968982103045" stroke="#323232" stroke-width="2.0" stroke-dasharray="none" fill="none" marker-end="url(#ProcessOnMarker1107)"/></g><g id="ProcessOnG1109"><path id="ProcessOnPath1110" d="M1348.28125 285.015625L580.9959037662342 353.21876688744584" stroke="#323232" stroke-width="2.0" stroke-dasharray="none" fill="none" marker-end="url(#ProcessOnMarker1111)"/></g><g id="ProcessOnG1113"><path id="ProcessOnPath1114" d="M1348.28125 285.015625L1322.3400290959398 368.40621540026336" stroke="#323232" stroke-width="2.0" stroke-dasharray="none" fill="none" marker-end="url(#ProcessOnMarker1115)"/></g><g id="ProcessOnG1117" transform="matrix(1.0,0.0,0.0,1.0,230.03125,924.015625)" opacity="1.0"><path id="ProcessOnPath1118" d="M0.0 0.0L167.0 0.0L167.0 77.0L0.0 77.0Z" stroke="#323232" stroke-width="2.0" stroke-dasharray="none" opacity="1.0" fill="#ffffff"/><g id="ProcessOnG1119" transform="matrix(1.0,0.0,0.0,1.0,10.0,30.375)"><text id="ProcessOnText1120" fill="#000000" font-weight="normal" font-style="normal" text-decoration="blink" font-family="微软雅黑" text-anchor="middle" font-size="13" x="73.5" y="13.325">SortFilter</text></g></g><g id="ProcessOnG1121" transform="matrix(1.0,0.0,0.0,1.0,426.03125,924.015625)" opacity="1.0"><path id="ProcessOnPath1122" d="M0.0 0.0L167.0 0.0L167.0 77.0L0.0 77.0Z" stroke="#323232" stroke-width="2.0" stroke-dasharray="none" opacity="1.0" fill="#ffffff"/><g id="ProcessOnG1123" transform="matrix(1.0,0.0,0.0,1.0,10.0,30.375)"><text id="ProcessOnText1124" fill="#000000" font-weight="normal" font-style="normal" text-decoration="blink" font-family="微软雅黑" text-anchor="middle" font-size="13" x="73.5" y="13.325">ShieldFilter</text></g></g><g id="ProcessOnG1125" transform="matrix(1.0,0.0,0.0,1.0,360.03125,777.015625)" opacity="1.0"><path id="ProcessOnPath1126" d="M0.0 0.0L167.0 0.0L167.0 77.0L0.0 77.0Z" stroke="#323232" stroke-width="2.0" stroke-dasharray="none" opacity="1.0" fill="#ffffff"/><g id="ProcessOnG1127" transform="matrix(1.0,0.0,0.0,1.0,10.0,30.375)"><text id="ProcessOnText1128" fill="#000000" font-weight="normal" font-style="normal" text-decoration="blink" font-family="微软雅黑" text-anchor="middle" font-size="13" x="73.5" y="13.325">GoodsPipe</text></g></g><g id="ProcessOnG1129"><path id="ProcessOnPath1130" d="M443.53125 854.015625L321.45548989929955 919.7487265926849" stroke="#323232" stroke-width="2.0" stroke-dasharray="none" fill="none" marker-end="url(#ProcessOnMarker1131)"/></g><g id="ProcessOnG1133"><path id="ProcessOnPath1134" d="M443.53125 854.015625L503.357134181799 917.4673203443323" stroke="#323232" stroke-width="2.0" stroke-dasharray="none" fill="none" marker-end="url(#ProcessOnMarker1135)"/></g><g id="ProcessOnG1137"><path id="ProcessOnPath1138" d="M572.03125 431.015625L446.6646226496629 768.5786838577171" stroke="#323232" stroke-width="2.0" stroke-dasharray="none" fill="none" marker-end="url(#ProcessOnMarker1139)"/></g><g id="ProcessOnG1141" transform="matrix(1.0,0.0,0.0,1.0,574.03125,777.015625)" opacity="1.0"><path id="ProcessOnPath1142" d="M0.0 0.0L210.5 0.0L210.5 93.0L0.0 93.0Z" stroke="#323232" stroke-width="2.0" stroke-dasharray="none" opacity="1.0" fill="#ffffff"/><g id="ProcessOnG1143" transform="matrix(1.0,0.0,0.0,1.0,10.0,38.375)"><text id="ProcessOnText1144" fill="#000000" font-weight="normal" font-style="normal" text-decoration="blink" font-family="微软雅黑" text-anchor="middle" font-size="13" x="95.25" y="13.325">SearchEngineCluster</text></g></g><g id="ProcessOnG1145"><path id="ProcessOnPath1146" d="M572.03125 431.015625L676.6165877312385 768.4191387996133" stroke="#323232" stroke-width="2.0" stroke-dasharray="none" fill="none" marker-end="url(#ProcessOnMarker1147)"/></g><g id="ProcessOnG1149" transform="matrix(1.0,0.0,0.0,1.0,1535.78125,204.515625)" opacity="1.0"><path id="ProcessOnPath1150" d="M0.0 0.0L164.5 0.0L164.5 82.0L0.0 82.0Z" stroke="#323232" stroke-width="2.0" stroke-dasharray="none" opacity="1.0" fill="#ffffff"/><g id="ProcessOnG1151" transform="matrix(1.0,0.0,0.0,1.0,10.0,32.875)"><text id="ProcessOnText1152" fill="#000000" font-weight="normal" font-style="normal" text-decoration="blink" font-family="微软雅黑" text-anchor="middle" font-size="13" x="72.25" y="13.325">CNDService</text></g></g><g id="ProcessOnG1153"><path id="ProcessOnPath1154" d="M1618.03125 286.515625L1347.5921336802123 374.23870753383795" stroke="#323232" stroke-width="2.0" stroke-dasharray="none" fill="none" marker-end="url(#ProcessOnMarker1155)"/></g><g id="ProcessOnG1157" transform="matrix(1.0,0.0,0.0,1.0,766.03125,918.015625)" opacity="1.0"><path id="ProcessOnPath1158" d="M0.0 0.0L216.5 0.0L216.5 77.0L0.0 77.0Z" stroke="#323232" stroke-width="2.0" stroke-dasharray="none" opacity="1.0" fill="#ffffff"/><g id="ProcessOnG1159" transform="matrix(1.0,0.0,0.0,1.0,10.0,30.375)"><text id="ProcessOnText1160" fill="#000000" font-weight="normal" font-style="normal" text-decoration="blink" font-family="微软雅黑" text-anchor="middle" font-size="13" x="98.25" y="13.325">OnlineGoodsService</text></g></g><g id="ProcessOnG1161" transform="matrix(1.0,0.0,0.0,1.0,766.03125,1043.015625)" opacity="1.0"><path id="ProcessOnPath1162" d="M0.0 0.0L216.5 0.0L216.5 77.0L0.0 77.0Z" stroke="#323232" stroke-width="2.0" stroke-dasharray="none" opacity="1.0" fill="#ffffff"/><g id="ProcessOnG1163" transform="matrix(1.0,0.0,0.0,1.0,10.0,30.375)"><text id="ProcessOnText1164" fill="#000000" font-weight="normal" font-style="normal" text-decoration="blink" font-family="微软雅黑" text-anchor="middle" font-size="13" x="98.25" y="13.325">CrawlerLib</text></g></g><g id="ProcessOnG1165"><path id="ProcessOnPath1166" d="M874.28125 995.015625L874.28125 1034.015625" stroke="#323232" stroke-width="2.0" stroke-dasharray="none" fill="none" marker-end="url(#ProcessOnMarker1167)"/></g><g id="ProcessOnG1169" transform="matrix(1.0,0.0,0.0,1.0,761.03125,627.015625)" opacity="1.0"><path id="ProcessOnPath1170" d="M0.0 0.0L216.5 0.0L216.5 77.0L0.0 77.0Z" stroke="#323232" stroke-width="2.0" stroke-dasharray="none" opacity="1.0" fill="#ffffff"/><g id="ProcessOnG1171" transform="matrix(1.0,0.0,0.0,1.0,10.0,30.375)"><text id="ProcessOnText1172" fill="#000000" font-weight="normal" font-style="normal" text-decoration="blink" font-family="微软雅黑" text-anchor="middle" font-size="13" x="98.25" y="13.325">GoodsInfoUpdater</text></g></g><g id="ProcessOnG1173"><path id="ProcessOnPath1174" d="M869.28125 704.015625L874.0710269986241 909.0180805411105" stroke="#323232" stroke-width="2.0" stroke-dasharray="none" fill="none" marker-end="url(#ProcessOnMarker1175)"/></g><g id="ProcessOnG1177"><path id="ProcessOnPath1178" d="M869.28125 704.015625L709.2876086715909 773.4333713118804" stroke="#323232" stroke-width="2.0" stroke-dasharray="none" fill="none" marker-end="url(#ProcessOnMarker1179)"/></g><g id="ProcessOnG1181" transform="matrix(1.0,0.0,0.0,1.0,1422.28125,730.265625)" opacity="1.0"><path id="ProcessOnPath1182" d="M0.0 0.0L188.0 0.0L188.0 74.5L0.0 74.5Z" stroke="#323232" stroke-width="2.0" stroke-dasharray="none" opacity="1.0" fill="#ffffff"/><g id="ProcessOnG1183" transform="matrix(1.0,0.0,0.0,1.0,10.0,29.125)"><text id="ProcessOnText1184" fill="#000000" font-weight="normal" font-style="normal" text-decoration="blink" font-family="微软雅黑" text-anchor="middle" font-size="13" x="84.0" y="13.325">CommentPipe</text></g></g><g id="ProcessOnG1185"><path id="ProcessOnPath1186" d="M1516.28125 804.765625L1516.28125 850.265625" stroke="#323232" stroke-width="2.0" stroke-dasharray="none" fill="none" marker-end="url(#ProcessOnMarker1187)"/></g></g></g></svg>