<svg xmlns="http://www.w3.org/2000/svg" xmlns:xlink="http://www.w3.org/1999/xlink" id="processonSvg1000" viewBox="127.03125 183.015625 1749.5 940.125" width="1749.5" height="940.125"><defs id="ProcessOnDefs1001"><marker id="ProcessOnMarker1095" markerUnits="userSpaceOnUse" orient="auto" markerWidth="10.0" markerHeight="10.0" viewBox="-1.0 -1.0 10.0 10.0" refX="0.0" refY="4.0"><path id="ProcessOnPath1096" d="M0 4.0A4.0 4.0 0 0 1 4.0 0A4.0 4.0 0 1 1 0 4.0" stroke="#323232" stroke-width="2.0" fill="#fff"/></marker><marker id="ProcessOnMarker1099" markerUnits="userSpaceOnUse" orient="auto" markerWidth="10.0" markerHeight="10.0" viewBox="-1.0 -1.0 10.0 10.0" refX="0.0" refY="4.0"><path id="ProcessOnPath1100" d="M0 4.0A4.0 4.0 0 0 1 4.0 0A4.0 4.0 0 1 1 0 4.0" stroke="#323232" stroke-width="2.0" fill="#fff"/></marker><marker id="ProcessOnMarker1103" markerUnits="userSpaceOnUse" orient="auto" markerWidth="10.0" markerHeight="10.0" viewBox="-1.0 -1.0 10.0 10.0" refX="0.0" refY="4.0"><path id="ProcessOnPath1104" d="M0 4.0A4.0 4.0 0 0 1 4.0 0A4.0 4.0 0 1 1 0 4.0" stroke="#323232" stroke-width="2.0" fill="#fff"/></marker><marker id="ProcessOnMarker1107" markerUnits="userSpaceOnUse" orient="auto" markerWidth="10.0" markerHeight="10.0" viewBox="-1.0 -1.0 10.0 10.0" refX="0.0" refY="4.0"><path id="ProcessOnPath1108" d="M0 4.0A4.0 4.0 0 0 1 4.0 0A4.0 4.0 0 1 1 0 4.0" stroke="#323232" stroke-width="2.0" fill="#fff"/></marker><marker id="ProcessOnMarker1111" markerUnits="userSpaceOnUse" orient="auto" markerWidth="10.0" markerHeight="10.0" viewBox="-1.0 -1.0 10.0 10.0" refX="0.0" refY="4.0"><path id="ProcessOnPath1112" d="M0 4.0A4.0 4.0 0 0 1 4.0 0A4.0 4.0 0 1 1 0 4.0" stroke="#323232" stroke-width="2.0" fill="#fff"/></marker><marker id="ProcessOnMarker1115" markerUnits="userSpaceOnUse" orient="auto" markerWidth="10.0" markerHeight="10.0" viewBox="-1.0 -1.0 10.0 10.0" refX="0.0" refY="4.0"><path id="ProcessOnPath1116" d="M0 4.0A4.0 4.0 0 0 1 4.0 0A4.0 4.0 0 1 1 0 4.0" stroke="#323232" stroke-width="2.0" fill="#fff"/></marker><marker id="ProcessOnMarker1119" markerUnits="userSpaceOnUse" orient="auto" markerWidth="10.0" markerHeight="10.0" viewBox="-1.0 -1.0 10.0 10.0" refX="0.0" refY="4.0"><path id="ProcessOnPath1120" d="M0 4.0A4.0 4.0 0 0 1 4.0 0A4.0 4.0 0 1 1 0 4.0" stroke="#323232" stroke-width="2.0" fill="#fff"/></marker><marker id="ProcessOnMarker1123" markerUnits="userSpaceOnUse" orient="auto" markerWidth="10.0" markerHeight="10.0" viewBox="-1.0 -1.0 10.0 10.0" refX="0.0" refY="4.0"><path id="ProcessOnPath1124" d="M0 4.0A4.0 4.0 0 0 1 4.0 0A4.0 4.0 0 1 1 0 4.0" stroke="#323232" stroke-width="2.0" fill="#fff"/></marker><marker id="ProcessOnMarker1127" markerUnits="userSpaceOnUse" orient="auto" markerWidth="10.0" markerHeight="10.0" viewBox="-1.0 -1.0 10.0 10.0" refX="0.0" refY="4.0"><path id="ProcessOnPath1128" d="M0 4.0A4.0 4.0 0 0 1 4.0 0A4.0 4.0 0 1 1 0 4.0" stroke="#323232" stroke-width="2.0" fill="#fff"/></marker><marker id="ProcessOnMarker1131" markerUnits="userSpaceOnUse" orient="auto" markerWidth="10.0" markerHeight="10.0" viewBox="-1.0 -1.0 10.0 10.0" refX="0.0" refY="4.0"><path id="ProcessOnPath1132" d="M0 4.0A4.0 4.0 0 0 1 4.0 0A4.0 4.0 0 1 1 0 4.0" stroke="#323232" stroke-width="2.0" fill="#fff"/></marker><marker id="ProcessOnMarker1135" markerUnits="userSpaceOnUse" orient="auto" markerWidth="10.0" markerHeight="10.0" viewBox="-1.0 -1.0 10.0 10.0" refX="0.0" refY="4.0"><path id="ProcessOnPath1136" d="M0 4.0A4.0 4.0 0 0 1 4.0 0A4.0 4.0 0 1 1 0 4.0" stroke="#323232" stroke-width="2.0" fill="#fff"/></marker><marker id="ProcessOnMarker1139" markerUnits="userSpaceOnUse" orient="auto" markerWidth="10.0" markerHeight="10.0" viewBox="-1.0 -1.0 10.0 10.0" refX="0.0" refY="4.0"><path id="ProcessOnPath1140" d="M0 4.0A4.0 4.0 0 0 1 4.0 0A4.0 4.0 0 1 1 0 4.0" stroke="#323232" stroke-width="2.0" fill="#fff"/></marker><marker id="ProcessOnMarker1143" markerUnits="userSpaceOnUse" orient="auto" markerWidth="10.0" markerHeight="10.0" viewBox="-1.0 -1.0 10.0 10.0" refX="0.0" refY="4.0"><path id="ProcessOnPath1144" d="M0 4.0A4.0 4.0 0 0 1 4.0 0A4.0 4.0 0 1 1 0 4.0" stroke="#323232" stroke-width="2.0" fill="#fff"/></marker><marker id="ProcessOnMarker1147" markerUnits="userSpaceOnUse" orient="auto" markerWidth="10.0" markerHeight="10.0" viewBox="-1.0 -1.0 10.0 10.0" refX="0.0" refY="4.0"><path id="ProcessOnPath1148" d="M0 4.0A4.0 4.0 0 0 1 4.0 0A4.0 4.0 0 1 1 0 4.0" stroke="#323232" stroke-width="2.0" fill="#fff"/></marker><marker id="ProcessOnMarker1151" markerUnits="userSpaceOnUse" orient="auto" markerWidth="10.0" markerHeight="10.0" viewBox="-1.0 -1.0 10.0 10.0" refX="0.0" refY="4.0"><path id="ProcessOnPath1152" d="M0 4.0A4.0 4.0 0 0 1 4.0 0A4.0 4.0 0 1 1 0 4.0" stroke="#323232" stroke-width="2.0" fill="#fff"/></marker><marker id="ProcessOnMarker1155" markerUnits="userSpaceOnUse" orient="auto" markerWidth="10.0" markerHeight="10.0" viewBox="-1.0 -1.0 10.0 10.0" refX="0.0" refY="4.0"><path id="ProcessOnPath1156" d="M0 4.0A4.0 4.0 0 0 1 4.0 0A4.0 4.0 0 1 1 0 4.0" stroke="#323232" stroke-width="2.0" fill="#fff"/></marker><marker id="ProcessOnMarker1163" markerUnits="userSpaceOnUse" orient="auto" markerWidth="10.0" markerHeight="10.0" viewBox="-1.0 -1.0 10.0 10.0" refX="0.0" refY="4.0"><path id="ProcessOnPath1164" d="M0 4.0A4.0 4.0 0 0 1 4.0 0A4.0 4.0 0 1 1 0 4.0" stroke="#323232" stroke-width="2.0" fill="#fff"/></marker><marker id="ProcessOnMarker1167" markerUnits="userSpaceOnUse" orient="auto" markerWidth="10.0" markerHeight="10.0" viewBox="-1.0 -1.0 10.0 10.0" refX="0.0" refY="4.0"><path id="ProcessOnPath1168" d="M0 4.0A4.0 4.0 0 0 1 4.0 0A4.0 4.0 0 1 1 0 4.0" stroke="#323232" stroke-width="2.0" fill="#fff"/></marker><marker id="ProcessOnMarker1171" markerUnits="userSpaceOnUse" orient="auto" markerWidth="10.0" markerHeight="10.0" viewBox="-1.0 -1.0 10.0 10.0" refX="0.0" refY="4.0"><path id="ProcessOnPath1172" d="M0 4.0A4.0 4.0 0 0 1 4.0 0A4.0 4.0 0 1 1 0 4.0" stroke="#323232" stroke-width="2.0" fill="#fff"/></marker><marker id="ProcessOnMarker1175" markerUnits="userSpaceOnUse" orient="auto" markerWidth="10.0" markerHeight="10.0" viewBox="-1.0 -1.0 10.0 10.0" refX="0.0" refY="4.0"><path id="ProcessOnPath1176" d="M0 4.0A4.0 4.0 0 0 1 4.0 0A4.0 4.0 0 1 1 0 4.0" stroke="#323232" stroke-width="2.0" fill="#fff"/></marker><marker id="ProcessOnMarker1179" markerUnits="userSpaceOnUse" orient="auto" markerWidth="10.0" markerHeight="10.0" viewBox="-1.0 -1.0 10.0 10.0" refX="0.0" refY="4.0"><path id="ProcessOnPath1180" d="M0 4.0A4.0 4.0 0 0 1 4.0 0A4.0 4.0 0 1 1 0 4.0" stroke="#323232" stroke-width="2.0" fill="#fff"/></marker><marker id="ProcessOnMarker1183" markerUnits="userSpaceOnUse" orient="auto" markerWidth="10.0" markerHeight="10.0" viewBox="-1.0 -1.0 10.0 10.0" refX="0.0" refY="4.0"><path id="ProcessOnPath1184" d="M0 4.0A4.0 4.0 0 0 1 4.0 0A4.0 4.0 0 1 1 0 4.0" stroke="#323232" stroke-width="2.0" fill="#fff"/></marker></defs><g id="ProcessOnG1002"><path id="ProcessOnPath1003" d="M127.03125 183.015625H1876.53125V1123.140625H127.03125V183.015625Z" fill="none"/><g id="ProcessOnG1004"><g id="ProcessOnG1005" transform="matrix(1.0,0.0,0.0,1.0,975.03125,203.015625)" opacity="1.0"><path id="ProcessOnPath1006" d="M0.0 0.0L167.0 0.0L167.0 77.0L0.0 77.0Z" stroke="#323232" stroke-width="2.0" stroke-dasharray="none" opacity="1.0" fill="#ffffff"/><g id="ProcessOnG1007" transform="matrix(1.0,0.0,0.0,1.0,10.0,30.375)"><text id="ProcessOnText1008" fill="#000000" font-weight="normal" font-style="normal" text-decoration="blink" font-family="微软雅黑" text-anchor="middle" font-size="13" x="73.5" y="13.325">Gateway</text></g></g><g id="ProcessOnG1009" transform="matrix(1.0,0.0,0.0,1.0,488.53125,354.015625)" opacity="1.0"><path id="ProcessOnPath1010" d="M0.0 0.0L167.0 0.0L167.0 77.0L0.0 77.0Z" stroke="#323232" stroke-width="2.0" stroke-dasharray="none" opacity="1.0" fill="#ffffff"/><g id="ProcessOnG1011" transform="matrix(1.0,0.0,0.0,1.0,10.0,30.375)"><text id="ProcessOnText1012" fill="#000000" font-weight="normal" font-style="normal" text-decoration="blink" font-family="微软雅黑" text-anchor="middle" font-size="13" x="73.5" y="13.325">SearchServer</text></g></g><g id="ProcessOnG1013" transform="matrix(1.0,0.0,0.0,1.0,907.53125,572.765625)" opacity="1.0"><path id="ProcessOnPath1014" d="M0.0 0.0L167.0 0.0L167.0 77.0L0.0 77.0Z" stroke="#323232" stroke-width="2.0" stroke-dasharray="none" opacity="1.0" fill="#ffffff"/><g id="ProcessOnG1015" transform="matrix(1.0,0.0,0.0,1.0,10.0,30.375)"><text id="ProcessOnText1016" fill="#000000" font-weight="normal" font-style="normal" text-decoration="blink" font-family="微软雅黑" text-anchor="middle" font-size="13" x="73.5" y="13.325">Ranker</text></g></g><g id="ProcessOnG1017" transform="matrix(1.0,0.0,0.0,1.0,819.03125,354.015625)" opacity="1.0"><path id="ProcessOnPath1018" d="M0.0 0.0L204.0 0.0L204.0 92.5L0.0 92.5Z" stroke="#323232" stroke-width="2.0" stroke-dasharray="none" opacity="1.0" fill="#ffffff"/><g id="ProcessOnG1019" transform="matrix(1.0,0.0,0.0,1.0,10.0,38.125)"><text id="ProcessOnText1020" fill="#000000" font-weight="normal" font-style="normal" text-decoration="blink" font-family="微软雅黑" text-anchor="middle" font-size="13" x="92.0" y="13.325">SearchResultPages</text></g></g><g id="ProcessOnG1021" transform="matrix(1.0,0.0,0.0,1.0,167.03125,536.015625)" opacity="1.0"><path id="ProcessOnPath1022" d="M0.0 0.0L167.0 0.0L167.0 77.0L0.0 77.0Z" stroke="#323232" stroke-width="2.0" stroke-dasharray="none" opacity="1.0" fill="#ffffff"/><g id="ProcessOnG1023" transform="matrix(1.0,0.0,0.0,1.0,10.0,30.375)"><text id="ProcessOnText1024" fill="#000000" font-weight="normal" font-style="normal" text-decoration="blink" font-family="微软雅黑" text-anchor="middle" font-size="13" x="73.5" y="13.325">CacheService</text></g></g><g id="ProcessOnG1025" transform="matrix(1.0,0.0,0.0,1.0,334.03125,795.015625)" opacity="1.0"><path id="ProcessOnPath1026" d="M0.0 0.0L167.0 0.0L167.0 77.0L0.0 77.0Z" stroke="#323232" stroke-width="2.0" stroke-dasharray="none" opacity="1.0" fill="#ffffff"/><g id="ProcessOnG1027" transform="matrix(1.0,0.0,0.0,1.0,10.0,30.375)"><text id="ProcessOnText1028" fill="#000000" font-weight="normal" font-style="normal" text-decoration="blink" font-family="微软雅黑" text-anchor="middle" font-size="13" x="73.5" y="13.325">KeyCompare</text></g></g><g id="ProcessOnG1029" transform="matrix(1.0,0.0,0.0,1.0,147.03125,795.015625)" opacity="1.0"><path id="ProcessOnPath1030" d="M0.0 0.0L167.0 0.0L167.0 77.0L0.0 77.0Z" stroke="#323232" stroke-width="2.0" stroke-dasharray="none" opacity="1.0" fill="#ffffff"/><g id="ProcessOnG1031" transform="matrix(1.0,0.0,0.0,1.0,10.0,30.375)"><text id="ProcessOnText1032" fill="#000000" font-weight="normal" font-style="normal" text-decoration="blink" font-family="微软雅黑" text-anchor="middle" font-size="13" x="73.5" y="13.325">CacheDB</text></g></g><g id="ProcessOnG1033" transform="matrix(1.0,0.0,0.0,1.0,590.03125,804.015625)" opacity="1.0"><path id="ProcessOnPath1034" d="M0.0 0.0L167.0 0.0L167.0 77.0L0.0 77.0Z" stroke="#323232" stroke-width="2.0" stroke-dasharray="none" opacity="1.0" fill="#ffffff"/><g id="ProcessOnG1035" transform="matrix(1.0,0.0,0.0,1.0,10.0,30.375)"><text id="ProcessOnText1036" fill="#000000" font-weight="normal" font-style="normal" text-decoration="blink" font-family="微软雅黑" text-anchor="middle" font-size="13" x="73.5" y="13.325">GoodsInfoServer</text></g></g><g id="ProcessOnG1037" transform="matrix(1.0,0.0,0.0,1.0,391.03125,660.015625)" opacity="1.0"><path id="ProcessOnPath1038" d="M0.0 0.0L227.0 0.0L227.0 80.5L0.0 80.5Z" stroke="#323232" stroke-width="2.0" stroke-dasharray="none" opacity="1.0" fill="#ffffff"/><g id="ProcessOnG1039" transform="matrix(1.0,0.0,0.0,1.0,10.0,32.125)"><text id="ProcessOnText1040" fill="#000000" font-weight="normal" font-style="normal" text-decoration="blink" font-family="微软雅黑" text-anchor="middle" font-size="13" x="103.5" y="13.325">SearchEngineAdapter</text></g></g><g id="ProcessOnG1041" transform="matrix(1.0,0.0,0.0,1.0,635.03125,501.015625)" opacity="1.0"><path id="ProcessOnPath1042" d="M0.0 0.0L204.0 0.0L204.0 92.5L0.0 92.5Z" stroke="#323232" stroke-width="2.0" stroke-dasharray="none" opacity="1.0" fill="#ffffff"/><g id="ProcessOnG1043" transform="matrix(1.0,0.0,0.0,1.0,10.0,38.125)"><text id="ProcessOnText1044" fill="#000000" font-weight="normal" font-style="normal" text-decoration="blink" font-family="微软雅黑" text-anchor="middle" font-size="13" x="92.0" y="13.325">SearchFilterService</text></g></g><g id="ProcessOnG1045" transform="matrix(1.0,0.0,0.0,1.0,767.03125,694.765625)" opacity="1.0"><path id="ProcessOnPath1046" d="M0.0 0.0L224.0 0.0L224.0 77.0L0.0 77.0Z" stroke="#323232" stroke-width="2.0" stroke-dasharray="none" opacity="1.0" fill="#ffffff"/><g id="ProcessOnG1047" transform="matrix(1.0,0.0,0.0,1.0,10.0,30.375)"><text id="ProcessOnText1048" fill="#000000" font-weight="normal" font-style="normal" text-decoration="blink" font-family="微软雅黑" text-anchor="middle" font-size="13" x="102.0" y="13.325">SearchResultFilter</text></g></g><g id="ProcessOnG1049" transform="matrix(1.0,0.0,0.0,1.0,1220.28125,562.015625)" opacity="1.0"><path id="ProcessOnPath1050" d="M0.0 0.0L188.0 0.0L188.0 74.5L0.0 74.5Z" stroke="#323232" stroke-width="2.0" stroke-dasharray="none" opacity="1.0" fill="#ffffff"/><g id="ProcessOnG1051" transform="matrix(1.0,0.0,0.0,1.0,10.0,29.125)"><text id="ProcessOnText1052" fill="#000000" font-weight="normal" font-style="normal" text-decoration="blink" font-family="微软雅黑" text-anchor="middle" font-size="13" x="84.0" y="13.325">CommentServer</text></g></g><g id="ProcessOnG1053" transform="matrix(1.0,0.0,0.0,1.0,1093.28125,730.265625)" opacity="1.0"><path id="ProcessOnPath1054" d="M0.0 0.0L259.0 0.0L259.0 80.5L0.0 80.5Z" stroke="#323232" stroke-width="2.0" stroke-dasharray="none" opacity="1.0" fill="#ffffff"/><g id="ProcessOnG1055" transform="matrix(1.0,0.0,0.0,1.0,10.0,32.125)"><text id="ProcessOnText1056" fill="#000000" font-weight="normal" font-style="normal" text-decoration="blink" font-family="微软雅黑" text-anchor="middle" font-size="13" x="119.5" y="13.325">CommentDataService</text></g></g><g id="ProcessOnG1057" transform="matrix(1.0,0.0,0.0,1.0,1522.28125,559.015625)" opacity="1.0"><path id="ProcessOnPath1058" d="M0.0 0.0L205.0 0.0L205.0 80.5L0.0 80.5Z" stroke="#323232" stroke-width="2.0" stroke-dasharray="none" opacity="1.0" fill="#ffffff"/><g id="ProcessOnG1059" transform="matrix(1.0,0.0,0.0,1.0,10.0,32.125)"><text id="ProcessOnText1060" fill="#000000" font-weight="normal" font-style="normal" text-decoration="blink" font-family="微软雅黑" text-anchor="middle" font-size="13" x="92.5" y="13.325">CommentPages</text></g></g><g id="ProcessOnG1061" transform="matrix(1.0,0.0,0.0,1.0,1120.28125,1020.765625)" opacity="1.0"><path id="ProcessOnPath1062" d="M0.0 0.0L205.0 0.0L205.0 80.5L0.0 80.5Z" stroke="#323232" stroke-width="2.0" stroke-dasharray="none" opacity="1.0" fill="#ffffff"/><g id="ProcessOnG1063" transform="matrix(1.0,0.0,0.0,1.0,10.0,32.125)"><text id="ProcessOnText1064" fill="#000000" font-weight="normal" font-style="normal" text-decoration="blink" font-family="微软雅黑" text-anchor="middle" font-size="13" x="92.5" y="13.325">CommentDB</text></g></g><g id="ProcessOnG1065" transform="matrix(1.0,0.0,0.0,1.0,1393.03125,1018.890625)" opacity="1.0"><path id="ProcessOnPath1066" d="M0.0 0.0L259.5 0.0L259.5 84.25L0.0 84.25Z" stroke="#323232" stroke-width="2.0" stroke-dasharray="none" opacity="1.0" fill="#ffffff"/><g id="ProcessOnG1067" transform="matrix(1.0,0.0,0.0,1.0,10.0,34.0)"><text id="ProcessOnText1068" fill="#000000" font-weight="normal" font-style="normal" text-decoration="blink" font-family="微软雅黑" text-anchor="middle" font-size="13" x="119.75" y="13.325">CommentNotifierServer</text></g></g><g id="ProcessOnG1069" transform="matrix(1.0,0.0,0.0,1.0,1706.03125,1021.890625)" opacity="1.0"><path id="ProcessOnPath1070" d="M0.0 0.0L150.5 0.0L150.5 78.25L0.0 78.25Z" stroke="#323232" stroke-width="2.0" stroke-dasharray="none" opacity="1.0" fill="#ffffff"/><g id="ProcessOnG1071" transform="matrix(1.0,0.0,0.0,1.0,10.0,31.0)"><text id="ProcessOnText1072" fill="#000000" font-weight="normal" font-style="normal" text-decoration="blink" font-family="微软雅黑" text-anchor="middle" font-size="13" x="65.25" y="13.325">Notifier</text></g></g><g id="ProcessOnG1073" transform="matrix(1.0,0.0,0.0,1.0,1211.03125,376.765625)" opacity="1.0"><path id="ProcessOnPath1074" d="M0.0 0.0L178.5 0.0L178.5 79.0L0.0 79.0Z" stroke="#323232" stroke-width="2.0" stroke-dasharray="none" opacity="1.0" fill="#ffffff"/><g id="ProcessOnG1075" transform="matrix(1.0,0.0,0.0,1.0,10.0,31.375)"><text id="ProcessOnText1076" fill="#000000" font-weight="normal" font-style="normal" text-decoration="blink" font-family="微软雅黑" text-anchor="middle" font-size="13" x="79.25" y="13.325">ContentServer</text></g></g><g id="ProcessOnG1077" transform="matrix(1.0,0.0,0.0,1.0,1428.03125,375.265625)" opacity="1.0"><path id="ProcessOnPath1078" d="M0.0 0.0L164.5 0.0L164.5 82.0L0.0 82.0Z" stroke="#323232" stroke-width="2.0" stroke-dasharray="none" opacity="1.0" fill="#ffffff"/><g id="ProcessOnG1079" transform="matrix(1.0,0.0,0.0,1.0,10.0,32.875)"><text id="ProcessOnText1080" fill="#000000" font-weight="normal" font-style="normal" text-decoration="blink" font-family="微软雅黑" text-anchor="middle" font-size="13" x="72.25" y="13.325">staticFiles</text></g></g><g id="ProcessOnG1081" transform="matrix(1.0,0.0,0.0,1.0,1447.53125,869.265625)" opacity="1.0"><path id="ProcessOnPath1082" d="M0.0 0.0L150.5 0.0L150.5 78.25L0.0 78.25Z" stroke="#323232" stroke-width="2.0" stroke-dasharray="none" opacity="1.0" fill="#ffffff"/><g id="ProcessOnG1083" transform="matrix(1.0,0.0,0.0,1.0,10.0,31.0)"><text id="ProcessOnText1084" fill="#000000" font-weight="normal" font-style="normal" text-decoration="blink" font-family="微软雅黑" text-anchor="middle" font-size="13" x="65.25" y="13.325">Message</text></g></g><g id="ProcessOnG1085" transform="matrix(1.0,0.0,0.0,1.0,1147.53125,869.265625)" opacity="1.0"><path id="ProcessOnPath1086" d="M0.0 0.0L150.5 0.0L150.5 78.25L0.0 78.25Z" stroke="#323232" stroke-width="2.0" stroke-dasharray="none" opacity="1.0" fill="#ffffff"/><g id="ProcessOnG1087" transform="matrix(1.0,0.0,0.0,1.0,10.0,31.0)"><text id="ProcessOnText1088" fill="#000000" font-weight="normal" font-style="normal" text-decoration="blink" font-family="微软雅黑" text-anchor="middle" font-size="13" x="65.25" y="13.325">DBProxy</text></g></g><g id="ProcessOnG1089" transform="matrix(1.0,0.0,0.0,1.0,200.53125,353.015625)" opacity="1.0"><path id="ProcessOnPath1090" d="M0.0 0.0L178.5 0.0L178.5 79.0L0.0 79.0Z" stroke="#323232" stroke-width="2.0" stroke-dasharray="none" opacity="1.0" fill="#ffffff"/><g id="ProcessOnG1091" transform="matrix(1.0,0.0,0.0,1.0,10.0,31.375)"><text id="ProcessOnText1092" fill="#000000" font-weight="normal" font-style="normal" text-decoration="blink" font-family="微软雅黑" text-anchor="middle" font-size="13" x="79.25" y="13.325">Monitor</text></g></g><g id="ProcessOnG1093"><path id="ProcessOnPath1094" d="M1142.03125 241.515625L1293.4395552161 370.9182997581518" stroke="#323232" stroke-width="2.0" stroke-dasharray="none" fill="none" marker-end="url(#ProcessOnMarker1095)"/></g><g id="ProcessOnG1097"><path id="ProcessOnPath1098" d="M1389.53125 416.265625L1419.03125 416.265625" stroke="#323232" stroke-width="2.0" stroke-dasharray="none" fill="none" marker-end="url(#ProcessOnMarker1099)"/></g><g id="ProcessOnG1101"><path id="ProcessOnPath1102" d="M975.03125 241.515625L580.6998224131531 351.5957381600999" stroke="#323232" stroke-width="2.0" stroke-dasharray="none" fill="none" marker-end="url(#ProcessOnMarker1103)"/></g><g id="ProcessOnG1105"><path id="ProcessOnPath1106" d="M655.53125 392.515625L810.0413436751121 399.83949794178665" stroke="#323232" stroke-width="2.0" stroke-dasharray="none" fill="none" marker-end="url(#ProcessOnMarker1107)"/></g><g id="ProcessOnG1109"><path id="ProcessOnPath1110" d="M572.03125 431.015625L259.08653885021454 533.2215182215474" stroke="#323232" stroke-width="2.0" stroke-dasharray="none" fill="none" marker-end="url(#ProcessOnMarker1111)"/></g><g id="ProcessOnG1113"><path id="ProcessOnPath1114" d="M250.53125 613.015625L231.5143429668197 786.0694790019409" stroke="#323232" stroke-width="2.0" stroke-dasharray="none" fill="none" marker-end="url(#ProcessOnMarker1115)"/></g><g id="ProcessOnG1117"><path id="ProcessOnPath1118" d="M572.03125 431.015625L630.7430571946948 539.3528882759248" stroke="#323232" stroke-width="2.0" stroke-dasharray="none" fill="none" marker-end="url(#ProcessOnMarker1119)"/></g><g id="ProcessOnG1121"><path id="ProcessOnPath1122" d="M839.03125 547.265625L900.9549460215907 605.1213409909752" stroke="#323232" stroke-width="2.0" stroke-dasharray="none" fill="none" marker-end="url(#ProcessOnMarker1123)"/></g><g id="ProcessOnG1125"><path id="ProcessOnPath1126" d="M572.03125 431.015625L507.07584887648005 651.3828377005343" stroke="#323232" stroke-width="2.0" stroke-dasharray="none" fill="none" marker-end="url(#ProcessOnMarker1127)"/></g><g id="ProcessOnG1129"><path id="ProcessOnPath1130" d="M737.03125 593.515625L871.7032927426944 689.5405850542099" stroke="#323232" stroke-width="2.0" stroke-dasharray="none" fill="none" marker-end="url(#ProcessOnMarker1131)"/></g><g id="ProcessOnG1133"><path id="ProcessOnPath1134" d="M250.53125 613.015625L411.44642922670556 788.3842634386851" stroke="#323232" stroke-width="2.0" stroke-dasharray="none" fill="none" marker-end="url(#ProcessOnMarker1135)"/></g><g id="ProcessOnG1137"><path id="ProcessOnPath1138" d="M504.53125 740.515625L665.1063378666447 800.8500515061062" stroke="#323232" stroke-width="2.0" stroke-dasharray="none" fill="none" marker-end="url(#ProcessOnMarker1139)"/></g><g id="ProcessOnG1141"><path id="ProcessOnPath1142" d="M379.03125 392.515625L479.53125 392.515625" stroke="#323232" stroke-width="2.0" stroke-dasharray="none" fill="none" marker-end="url(#ProcessOnMarker1143)"/></g><g id="ProcessOnG1145"><path id="ProcessOnPath1146" d="M1222.78125 947.515625L1222.78125 1011.765625" stroke="#323232" stroke-width="2.0" stroke-dasharray="none" fill="none" marker-end="url(#ProcessOnMarker1147)"/></g><g id="ProcessOnG1149"><path id="ProcessOnPath1150" d="M1522.78125 947.515625L1522.78125 1009.890625" stroke="#323232" stroke-width="2.0" stroke-dasharray="none" fill="none" marker-end="url(#ProcessOnMarker1151)"/></g><g id="ProcessOnG1153"><path id="ProcessOnPath1154" d="M1652.53125 1061.015625L1697.03125 1061.015625" stroke="#323232" stroke-width="2.0" stroke-dasharray="none" fill="none" marker-end="url(#ProcessOnMarker1155)"/></g><g id="ProcessOnG1157" transform="matrix(1.0,0.0,0.0,1.0,1428.28125,736.265625)" opacity="1.0"><path id="ProcessOnPath1158" d="M0.0 0.0L188.0 0.0L188.0 74.5L0.0 74.5Z" stroke="#323232" stroke-width="2.0" stroke-dasharray="none" opacity="1.0" fill="#ffffff"/><g id="ProcessOnG1159" transform="matrix(1.0,0.0,0.0,1.0,10.0,29.125)"><text id="ProcessOnText1160" fill="#000000" font-weight="normal" font-style="normal" text-decoration="blink" font-family="微软雅黑" text-anchor="middle" font-size="13" x="84.0" y="13.325">CommentFilter</text></g></g><g id="ProcessOnG1161"><path id="ProcessOnPath1162" d="M1314.28125 636.515625L1229.0674523067048 723.8248439480484" stroke="#323232" stroke-width="2.0" stroke-dasharray="none" fill="none" marker-end="url(#ProcessOnMarker1163)"/></g><g id="ProcessOnG1165"><path id="ProcessOnPath1166" d="M1314.28125 636.515625L1514.166173154501 732.3738994454878" stroke="#323232" stroke-width="2.0" stroke-dasharray="none" fill="none" marker-end="url(#ProcessOnMarker1167)"/></g><g id="ProcessOnG1169"><path id="ProcessOnPath1170" d="M1408.28125 599.265625L1513.28125 599.265625" stroke="#323232" stroke-width="2.0" stroke-dasharray="none" fill="none" marker-end="url(#ProcessOnMarker1171)"/></g><g id="ProcessOnG1173"><path id="ProcessOnPath1174" d="M1222.78125 810.765625L1222.78125 860.265625" stroke="#323232" stroke-width="2.0" stroke-dasharray="none" fill="none" marker-end="url(#ProcessOnMarker1175)"/></g><g id="ProcessOnG1177"><path id="ProcessOnPath1178" d="M1522.28125 810.765625L1522.7043297325904 860.2659537130884" stroke="#323232" stroke-width="2.0" stroke-dasharray="none" fill="none" marker-end="url(#ProcessOnMarker1179)"/></g><g id="ProcessOnG1181"><path id="ProcessOnPath1182" d="M1058.53125 280.015625L1216.2136335634636 591.2372692203139" stroke="#323232" stroke-width="2.0" stroke-dasharray="none" fill="none" marker-end="url(#ProcessOnMarker1183)"/></g></g></g></svg>