<svg xmlns="http://www.w3.org/2000/svg" xmlns:xlink="http://www.w3.org/1999/xlink" id="processonSvg1000" viewBox="7.01171875 80.50390625 1229.0 1070.0" width="1229.0" height="1070.0"><defs id="ProcessOnDefs1001"/><g id="ProcessOnG1002"><path id="ProcessOnPath1003" d="M7.01171875 80.50390625H1236.01171875V1150.50390625H7.01171875V80.50390625Z" fill="none"/><g id="ProcessOnG1004"><g id="ProcessOnG1005" transform="matrix(1.0,0.0,0.0,1.0,448.01171875,383.50390625)" opacity="1.0"><path id="ProcessOnPath1006" d="M0.0 4.0Q0.0 0.0 4.0 0.0L224.0 0.0Q228.0 0.0 228.0 4.0L228.0 72.0Q228.0 76.0 224.0 76.0L4.0 76.0Q0.0 76.0 0.0 72.0L0.0 4.0ZM20.0 0.0L20.0 76.0M208.0 0.0L208.0 76.0" stroke="#323232" stroke-width="2.0" stroke-dasharray="none" opacity="1.0" fill="#ffffff"/><g id="ProcessOnG1007" transform="matrix(1.0,0.0,0.0,1.0,20.0,21.75)"><text id="ProcessOnText1008" fill="#000000" font-weight="normal" font-style="normal" text-decoration="blink" font-family="微软雅黑" text-anchor="middle" font-size="13" x="94.0" y="13.325">《process》</text><text id="ProcessOnText1009" fill="#000000" font-weight="normal" font-style="normal" text-decoration="blink" font-family="微软雅黑" text-anchor="middle" font-size="13" x="94.0" y="29.575">Gateway</text></g></g><g id="ProcessOnG1010" transform="matrix(1.0,0.0,0.0,1.0,162.01171875,516.50390625)" opacity="1.0"><path id="ProcessOnPath1011" d="M0.0 4.0Q0.0 0.0 4.0 0.0L224.0 0.0Q228.0 0.0 228.0 4.0L228.0 72.0Q228.0 76.0 224.0 76.0L4.0 76.0Q0.0 76.0 0.0 72.0L0.0 4.0ZM20.0 0.0L20.0 76.0M208.0 0.0L208.0 76.0" stroke="#323232" stroke-width="2.0" stroke-dasharray="none" opacity="1.0" fill="#ffffff"/><g id="ProcessOnG1012" transform="matrix(1.0,0.0,0.0,1.0,20.0,21.75)"><text id="ProcessOnText1013" fill="#000000" font-weight="normal" font-style="normal" text-decoration="blink" font-family="微软雅黑" text-anchor="middle" font-size="13" x="94.0" y="13.325">《process》</text><text id="ProcessOnText1014" fill="#000000" font-weight="normal" font-style="normal" text-decoration="blink" font-family="微软雅黑" text-anchor="middle" font-size="13" x="94.0" y="29.575">SearchServer</text></g></g><g id="ProcessOnG1015" transform="matrix(1.0,0.0,0.0,1.0,27.01171875,631.50390625)" opacity="1.0"><path id="ProcessOnPath1016" d="M0.0 4.0Q0.0 0.0 4.0 0.0L224.0 0.0Q228.0 0.0 228.0 4.0L228.0 72.0Q228.0 76.0 224.0 76.0L4.0 76.0Q0.0 76.0 0.0 72.0L0.0 4.0ZM20.0 0.0L20.0 76.0M208.0 0.0L208.0 76.0" stroke="#323232" stroke-width="2.0" stroke-dasharray="none" opacity="1.0" fill="#ffffff"/><g id="ProcessOnG1017" transform="matrix(1.0,0.0,0.0,1.0,20.0,21.75)"><text id="ProcessOnText1018" fill="#000000" font-weight="normal" font-style="normal" text-decoration="blink" font-family="微软雅黑" text-anchor="middle" font-size="13" x="94.0" y="13.325">《process》</text><text id="ProcessOnText1019" fill="#000000" font-weight="normal" font-style="normal" text-decoration="blink" font-family="微软雅黑" text-anchor="middle" font-size="13" x="94.0" y="29.575">SearchCacheDB</text></g></g><g id="ProcessOnG1020" transform="matrix(1.0,0.0,0.0,1.0,302.51171875,624.50390625)" opacity="1.0"><path id="ProcessOnPath1021" d="M8.0 8.0Q8.0 0.0 16.0 0.0L197.0 0.0Q205.0 0.0 205.0 8.0L205.0 74.0Q205.0 82.0 197.0 82.0L197.0 82.0" stroke="#323232" stroke-width="2.0" stroke-dasharray="none" opacity="1.0" fill="#ffffff"/><path id="ProcessOnPath1022" d="M0.0 16.0Q0.0 8.0 8.0 8.0L189.0 8.0Q197.0 8.0 197.0 16.0L197.0 82.0Q197.0 90.0 189.0 90.0L8.0 90.0Q0.0 90.0 0.0 82.0L0.0 16.0Z" stroke="#323232" stroke-width="2.0" stroke-dasharray="none" opacity="1.0" fill="#ffffff"/><path id="ProcessOnPath1023" d="M0.0 4.0Q0.0 0.0 4.0 0.0L201.0 0.0Q205.0 0.0 205.0 4.0L205.0 86.0Q205.0 90.0 201.0 90.0L4.0 90.0Q0.0 90.0 0.0 86.0Z" stroke="#323232" stroke-width="0.0" stroke-dasharray="none" opacity="1.0" fill="none"/><g id="ProcessOnG1024" transform="matrix(1.0,0.0,0.0,1.0,16.0,32.75)"><text id="ProcessOnText1025" fill="#000000" font-weight="normal" font-style="normal" text-decoration="blink" font-family="微软雅黑" text-anchor="middle" font-size="13" x="82.5" y="13.325">《process》</text><text id="ProcessOnText1026" fill="#000000" font-weight="normal" font-style="normal" text-decoration="blink" font-family="微软雅黑" text-anchor="middle" font-size="13" x="82.5" y="29.575">GoodsInfoServer</text></g></g><g id="ProcessOnG1027" transform="matrix(1.0,0.0,0.0,1.0,950.01171875,545.50390625)" opacity="1.0"><path id="ProcessOnPath1028" d="M0.0 4.0Q0.0 0.0 4.0 0.0L224.0 0.0Q228.0 0.0 228.0 4.0L228.0 72.0Q228.0 76.0 224.0 76.0L4.0 76.0Q0.0 76.0 0.0 72.0L0.0 4.0ZM20.0 0.0L20.0 76.0M208.0 0.0L208.0 76.0" stroke="#323232" stroke-width="2.0" stroke-dasharray="none" opacity="1.0" fill="#ffffff"/><g id="ProcessOnG1029" transform="matrix(1.0,0.0,0.0,1.0,20.0,21.75)"><text id="ProcessOnText1030" fill="#000000" font-weight="normal" font-style="normal" text-decoration="blink" font-family="微软雅黑" text-anchor="middle" font-size="13" x="94.0" y="13.325">《process》</text><text id="ProcessOnText1031" fill="#000000" font-weight="normal" font-style="normal" text-decoration="blink" font-family="微软雅黑" text-anchor="middle" font-size="13" x="94.0" y="29.575">CommentServer</text></g></g><g id="ProcessOnG1032" transform="matrix(1.0,0.0,0.0,1.0,887.01171875,1054.50390625)" opacity="1.0"><path id="ProcessOnPath1033" d="M0.0 4.0Q0.0 0.0 4.0 0.0L224.0 0.0Q228.0 0.0 228.0 4.0L228.0 72.0Q228.0 76.0 224.0 76.0L4.0 76.0Q0.0 76.0 0.0 72.0L0.0 4.0ZM20.0 0.0L20.0 76.0M208.0 0.0L208.0 76.0" stroke="#323232" stroke-width="2.0" stroke-dasharray="none" opacity="1.0" fill="#ffffff"/><g id="ProcessOnG1034" transform="matrix(1.0,0.0,0.0,1.0,20.0,21.75)"><text id="ProcessOnText1035" fill="#000000" font-weight="normal" font-style="normal" text-decoration="blink" font-family="微软雅黑" text-anchor="middle" font-size="13" x="94.0" y="13.325">《process》</text><text id="ProcessOnText1036" fill="#000000" font-weight="normal" font-style="normal" text-decoration="blink" font-family="微软雅黑" text-anchor="middle" font-size="13" x="94.0" y="29.575">CommentDB</text></g></g><g id="ProcessOnG1037" transform="matrix(1.0,0.0,0.0,1.0,694.01171875,901.50390625)" opacity="1.0"><path id="ProcessOnPath1038" d="M0.0 4.0Q0.0 0.0 4.0 0.0L224.0 0.0Q228.0 0.0 228.0 4.0L228.0 72.0Q228.0 76.0 224.0 76.0L4.0 76.0Q0.0 76.0 0.0 72.0L0.0 4.0ZM20.0 0.0L20.0 76.0M208.0 0.0L208.0 76.0" stroke="#323232" stroke-width="2.0" stroke-dasharray="none" opacity="1.0" fill="#ffffff"/><g id="ProcessOnG1039" transform="matrix(1.0,0.0,0.0,1.0,20.0,21.75)"><text id="ProcessOnText1040" fill="#000000" font-weight="normal" font-style="normal" text-decoration="blink" font-family="微软雅黑" text-anchor="middle" font-size="13" x="94.0" y="13.325">《process》</text><text id="ProcessOnText1041" fill="#000000" font-weight="normal" font-style="normal" text-decoration="blink" font-family="微软雅黑" text-anchor="middle" font-size="13" x="94.0" y="29.575">CommentNotifier</text></g></g><g id="ProcessOnG1042" transform="matrix(1.0,0.0,0.0,1.0,548.01171875,576.50390625)" opacity="1.0"><path id="ProcessOnPath1043" d="M0.0 4.0Q0.0 0.0 4.0 0.0L224.0 0.0Q228.0 0.0 228.0 4.0L228.0 72.0Q228.0 76.0 224.0 76.0L4.0 76.0Q0.0 76.0 0.0 72.0L0.0 4.0ZM20.0 0.0L20.0 76.0M208.0 0.0L208.0 76.0" stroke="#323232" stroke-width="2.0" stroke-dasharray="none" opacity="1.0" fill="#ffffff"/><g id="ProcessOnG1044" transform="matrix(1.0,0.0,0.0,1.0,20.0,21.75)"><text id="ProcessOnText1045" fill="#000000" font-weight="normal" font-style="normal" text-decoration="blink" font-family="微软雅黑" text-anchor="middle" font-size="13" x="94.0" y="13.325">《process》</text><text id="ProcessOnText1046" fill="#000000" font-weight="normal" font-style="normal" text-decoration="blink" font-family="微软雅黑" text-anchor="middle" font-size="13" x="94.0" y="29.575">StaticContentServer</text></g></g><g id="ProcessOnG1047" transform="matrix(1.0,0.0,0.0,1.0,486.01171875,773.50390625)" opacity="1.0"><path id="ProcessOnPath1048" d="M0.0 4.0Q0.0 0.0 4.0 0.0L224.0 0.0Q228.0 0.0 228.0 4.0L228.0 72.0Q228.0 76.0 224.0 76.0L4.0 76.0Q0.0 76.0 0.0 72.0L0.0 4.0ZM20.0 0.0L20.0 76.0M208.0 0.0L208.0 76.0" stroke="#323232" stroke-width="2.0" stroke-dasharray="none" opacity="1.0" fill="#ffffff"/><g id="ProcessOnG1049" transform="matrix(1.0,0.0,0.0,1.0,20.0,21.75)"><text id="ProcessOnText1050" fill="#000000" font-weight="normal" font-style="normal" text-decoration="blink" font-family="微软雅黑" text-anchor="middle" font-size="13" x="94.0" y="13.325">《process》</text><text id="ProcessOnText1051" fill="#000000" font-weight="normal" font-style="normal" text-decoration="blink" font-family="微软雅黑" text-anchor="middle" font-size="13" x="94.0" y="29.575">CNDService</text></g></g><g id="ProcessOnG1052" transform="matrix(1.0,0.0,0.0,1.0,165.01171875,764.50390625)" opacity="1.0"><path id="ProcessOnPath1053" d="M0.0 4.0Q0.0 0.0 4.0 0.0L224.0 0.0Q228.0 0.0 228.0 4.0L228.0 72.0Q228.0 76.0 224.0 76.0L4.0 76.0Q0.0 76.0 0.0 72.0L0.0 4.0ZM20.0 0.0L20.0 76.0M208.0 0.0L208.0 76.0" stroke="#323232" stroke-width="2.0" stroke-dasharray="none" opacity="1.0" fill="#ffffff"/><g id="ProcessOnG1054" transform="matrix(1.0,0.0,0.0,1.0,20.0,21.75)"><text id="ProcessOnText1055" fill="#000000" font-weight="normal" font-style="normal" text-decoration="blink" font-family="微软雅黑" text-anchor="middle" font-size="13" x="94.0" y="13.325">《process》</text><text id="ProcessOnText1056" fill="#000000" font-weight="normal" font-style="normal" text-decoration="blink" font-family="微软雅黑" text-anchor="middle" font-size="13" x="94.0" y="29.575">Monitor</text></g></g><g id="ProcessOnG1057" transform="matrix(1.0,0.0,0.0,1.0,448.01171875,245.50390625)" opacity="1.0"><path id="ProcessOnPath1058" d="M0.0 4.0Q0.0 0.0 4.0 0.0L224.0 0.0Q228.0 0.0 228.0 4.0L228.0 72.0Q228.0 76.0 224.0 76.0L4.0 76.0Q0.0 76.0 0.0 72.0L0.0 4.0ZM20.0 0.0L20.0 76.0M208.0 0.0L208.0 76.0" stroke="#323232" stroke-width="2.0" stroke-dasharray="none" opacity="1.0" fill="#ffffff"/><g id="ProcessOnG1059" transform="matrix(1.0,0.0,0.0,1.0,20.0,21.75)"><text id="ProcessOnText1060" fill="#000000" font-weight="normal" font-style="normal" text-decoration="blink" font-family="微软雅黑" text-anchor="middle" font-size="13" x="94.0" y="13.325">《process》</text><text id="ProcessOnText1061" fill="#000000" font-weight="normal" font-style="normal" text-decoration="blink" font-family="微软雅黑" text-anchor="middle" font-size="13" x="94.0" y="29.575">Firewall</text></g></g><g id="ProcessOnG1062" transform="matrix(1.0,0.0,0.0,1.0,792.01171875,707.50390625)" opacity="1.0"><path id="ProcessOnPath1063" d="M0.0 4.0Q0.0 0.0 4.0 0.0L224.0 0.0Q228.0 0.0 228.0 4.0L228.0 72.0Q228.0 76.0 224.0 76.0L4.0 76.0Q0.0 76.0 0.0 72.0L0.0 4.0ZM20.0 0.0L20.0 76.0M208.0 0.0L208.0 76.0" stroke="#323232" stroke-width="2.0" stroke-dasharray="none" opacity="1.0" fill="#ffffff"/><g id="ProcessOnG1064" transform="matrix(1.0,0.0,0.0,1.0,20.0,21.75)"><text id="ProcessOnText1065" fill="#000000" font-weight="normal" font-style="normal" text-decoration="blink" font-family="微软雅黑" text-anchor="middle" font-size="13" x="94.0" y="13.325">《process》</text><text id="ProcessOnText1066" fill="#000000" font-weight="normal" font-style="normal" text-decoration="blink" font-family="微软雅黑" text-anchor="middle" font-size="13" x="94.0" y="29.575">Message</text></g></g><g id="ProcessOnG1067" transform="matrix(1.0,0.0,0.0,1.0,988.01171875,843.50390625)" opacity="1.0"><path id="ProcessOnPath1068" d="M0.0 4.0Q0.0 0.0 4.0 0.0L224.0 0.0Q228.0 0.0 228.0 4.0L228.0 72.0Q228.0 76.0 224.0 76.0L4.0 76.0Q0.0 76.0 0.0 72.0L0.0 4.0ZM20.0 0.0L20.0 76.0M208.0 0.0L208.0 76.0" stroke="#323232" stroke-width="2.0" stroke-dasharray="none" opacity="1.0" fill="#ffffff"/><g id="ProcessOnG1069" transform="matrix(1.0,0.0,0.0,1.0,20.0,21.75)"><text id="ProcessOnText1070" fill="#000000" font-weight="normal" font-style="normal" text-decoration="blink" font-family="微软雅黑" text-anchor="middle" font-size="13" x="94.0" y="13.325">《process》</text><text id="ProcessOnText1071" fill="#000000" font-weight="normal" font-style="normal" text-decoration="blink" font-family="微软雅黑" text-anchor="middle" font-size="13" x="94.0" y="29.575">DBProxy</text></g></g><g id="ProcessOnG1072"><path id="ProcessOnPath1073" d="M562.01171875 459.50390625L276.01171875 516.50390625" stroke="#323232" stroke-width="2.0" stroke-dasharray="none" fill="none"/></g><g id="ProcessOnG1074"><path id="ProcessOnPath1075" d="M562.01171875 459.50390625L1064.01171875 545.50390625" stroke="#323232" stroke-width="2.0" stroke-dasharray="none" fill="none"/></g><g id="ProcessOnG1076"><path id="ProcessOnPath1077" d="M276.01171875 592.50390625L141.01171875 631.50390625" stroke="#323232" stroke-width="2.0" stroke-dasharray="none" fill="none"/></g><g id="ProcessOnG1078"><path id="ProcessOnPath1079" d="M276.01171875 592.50390625L405.01171875 624.50390625" stroke="#323232" stroke-width="2.0" stroke-dasharray="none" fill="none"/></g><g id="ProcessOnG1080"><path id="ProcessOnPath1081" d="M562.01171875 459.50390625L662.01171875 576.50390625" stroke="#323232" stroke-width="2.0" stroke-dasharray="none" fill="none"/></g><g id="ProcessOnG1082"><path id="ProcessOnPath1083" d="M662.01171875 652.50390625L600.01171875 773.50390625" stroke="#323232" stroke-width="2.0" stroke-dasharray="none" fill="none"/></g><g id="ProcessOnG1084"><path id="ProcessOnPath1085" d="M405.01171875 714.50390625L279.01171875 764.50390625" stroke="#323232" stroke-width="2.0" stroke-dasharray="none" fill="none"/></g><g id="ProcessOnG1086"><path id="ProcessOnPath1087" d="M562.01171875 321.50390625L562.01171875 383.50390625" stroke="#323232" stroke-width="2.0" stroke-dasharray="none" fill="none"/></g><g id="ProcessOnG1088"><path id="ProcessOnPath1089" d="M1064.01171875 621.50390625L906.01171875 707.50390625" stroke="#323232" stroke-width="2.0" stroke-dasharray="none" fill="none"/></g><g id="ProcessOnG1090"><path id="ProcessOnPath1091" d="M906.01171875 783.50390625L808.01171875 901.50390625" stroke="#323232" stroke-width="2.0" stroke-dasharray="none" fill="none"/></g><g id="ProcessOnG1092"><path id="ProcessOnPath1093" d="M1064.01171875 621.50390625L1102.01171875 843.50390625" stroke="#323232" stroke-width="2.0" stroke-dasharray="none" fill="none"/></g><g id="ProcessOnG1094"><path id="ProcessOnPath1095" d="M1102.01171875 919.50390625L1001.01171875 1054.50390625" stroke="#323232" stroke-width="2.0" stroke-dasharray="none" fill="none"/></g><g id="ProcessOnG1096" transform="matrix(1.0,0.0,0.0,1.0,448.01171875,100.50390625)" opacity="1.0"><path id="ProcessOnPath1097" d="M0.0 4.0Q0.0 0.0 4.0 0.0L224.0 0.0Q228.0 0.0 228.0 4.0L228.0 72.0Q228.0 76.0 224.0 76.0L4.0 76.0Q0.0 76.0 0.0 72.0L0.0 4.0ZM20.0 0.0L20.0 76.0M208.0 0.0L208.0 76.0" stroke="#323232" stroke-width="2.0" stroke-dasharray="none" opacity="1.0" fill="#ffffff"/><g id="ProcessOnG1098" transform="matrix(1.0,0.0,0.0,1.0,20.0,21.75)"><text id="ProcessOnText1099" fill="#000000" font-weight="normal" font-style="normal" text-decoration="blink" font-family="微软雅黑" text-anchor="middle" font-size="13" x="94.0" y="13.325">《process》</text><text id="ProcessOnText1100" fill="#000000" font-weight="normal" font-style="normal" text-decoration="blink" font-family="微软雅黑" text-anchor="middle" font-size="13" x="94.0" y="29.575">Browser</text></g></g><g id="ProcessOnG1101"><path id="ProcessOnPath1102" d="M562.01171875 176.50390625L562.01171875 245.50390625" stroke="#323232" stroke-width="2.0" stroke-dasharray="none" fill="none"/></g></g></g></svg>